<svg version="1.1" id="Layer_1" xmlns="http://www.w3.org/2000/svg" xmlns:xlink="http://www.w3.org/1999/xlink" x="0px" y="0px"
	 width="100%" viewBox="0 0 491 78" enable-background="new 0 0 491 78" xml:space="preserve">
<path fill="#FFFFFF" opacity="1.000000" stroke="none" 
	d="
M468.000061,79.000000 
	C312.000061,79.000000 156.500061,79.000000 1.000065,79.000000 
	C1.000043,53.000031 1.000043,27.000063 1.000022,1.000072 
	C164.666611,1.000048 328.333221,1.000048 491.999878,1.000024 
	C491.999939,26.999947 491.999939,52.999893 491.999969,78.999924 
	C484.166687,79.000000 476.333374,79.000000 468.000061,79.000000 
M60.047802,69.539497 
	C68.719376,68.155373 75.721764,61.171932 78.504623,51.186150 
	C78.015854,45.768555 77.527077,40.350956 77.031174,34.225040 
	C75.358032,31.817362 73.684891,29.409685 71.802071,26.403700 
	C70.653839,25.535091 69.505608,24.666483 67.950172,23.211327 
	C64.290268,21.840847 60.630360,20.470367 56.297901,18.729822 
	C54.979801,18.624420 53.656597,18.384302 52.344379,18.434036 
	C35.460323,19.073986 22.665352,35.877079 27.695309,51.349888 
	C28.827509,53.890518 29.959709,56.431145 31.240034,59.609169 
	C32.842022,61.283913 34.444008,62.958660 36.474873,65.189842 
	C38.712067,66.435425 40.949261,67.681007 43.756805,69.395248 
	C49.021320,69.588425 54.285839,69.781609 60.047802,69.539497 
z"/>
<path fill="#EE4E3A" opacity="1.000000" stroke="none" 
	d="
M31.091911,58.971775 
	C29.959709,56.431145 28.827509,53.890518 27.802290,50.560669 
	C28.848080,47.771358 29.362686,45.372826 30.800806,43.841724 
	C36.351658,37.931976 42.117207,32.215675 47.968037,26.599474 
	C50.778698,23.901524 53.958061,21.587679 56.970451,19.099888 
	C60.630360,20.470367 64.290268,21.840847 67.826324,23.659508 
	C57.082497,34.621956 46.486969,45.161182 35.812141,55.619461 
	C34.450710,56.953270 32.675453,57.864677 31.091911,58.971775 
z"/>
<path fill="#CF3C2B" opacity="1.000000" stroke="none" 
	d="
M43.186455,68.926590 
	C40.949261,67.681007 38.712067,66.435425 36.263252,64.569214 
	C37.070808,62.107582 37.724453,59.891483 39.167385,58.485302 
	C50.028122,47.901199 61.044216,37.476521 72.011749,27.002007 
	C73.684891,29.409685 75.358032,31.817362 76.848701,34.858589 
	C65.506310,46.636959 54.346382,57.781776 43.186455,68.926590 
z"/>
<path fill="#C63727" opacity="1.000000" stroke="none" 
	d="
M43.471634,69.160919 
	C54.346382,57.781776 65.506310,46.636959 76.852264,35.212753 
	C77.527077,40.350956 78.015854,45.768555 78.235703,51.007645 
	C77.860184,48.628960 77.753586,46.428772 77.691551,45.148396 
	C69.347694,53.525810 60.944374,61.962940 52.964622,69.974792 
	C54.306282,69.974792 56.928318,69.974792 59.550354,69.974792 
	C54.285839,69.781609 49.021320,69.588425 43.471634,69.160919 
z"/>
<path fill="#B92E1E" opacity="1.000000" stroke="none" 
	d="
M59.799080,69.757141 
	C56.928318,69.974792 54.306282,69.974792 52.964622,69.974792 
	C60.944374,61.962940 69.347694,53.525810 77.691551,45.148396 
	C77.753586,46.428772 77.860184,48.628960 77.971375,51.244495 
	C75.721764,61.171932 68.719376,68.155373 59.799080,69.757141 
z"/>
<path fill="#F65842" opacity="1.000000" stroke="none" 
	d="
M56.634178,18.914856 
	C53.958061,21.587679 50.778698,23.901524 47.968037,26.599474 
	C42.117207,32.215675 36.351658,37.931976 30.800806,43.841724 
	C29.362686,45.372826 28.848080,47.771358 27.852339,50.201050 
	C22.665352,35.877079 35.460323,19.073986 52.344379,18.434036 
	C53.656597,18.384302 54.979801,18.624420 56.634178,18.914856 
z"/>
<path fill="#DF4734" opacity="1.000000" stroke="none" 
	d="
M71.906906,26.702852 
	C61.044216,37.476521 50.028122,47.901199 39.167385,58.485302 
	C37.724453,59.891483 37.070808,62.107582 36.048813,64.291000 
	C34.444008,62.958660 32.842022,61.283913 31.165974,59.290474 
	C32.675453,57.864677 34.450710,56.953270 35.812141,55.619461 
	C46.486969,45.161182 57.082497,34.621956 68.029922,23.952782 
	C69.505608,24.666483 70.653839,25.535091 71.906906,26.702852 
z"/>
</svg>