<svg version="1.1" id="Layer_1" xmlns="http://www.w3.org/2000/svg" xmlns:xlink="http://www.w3.org/1999/xlink" x="0px" y="0px"
	 width="100%" viewBox="0 0 491 78" enable-background="new 0 0 491 78" xml:space="preserve">
<path fill="#F5F5DB" opacity="1.000000" stroke="none" 
	d="
M365.000000,79.000000 
	C243.333344,79.000000 122.166695,79.000000 1.000033,79.000000 
	C1.000022,53.000019 1.000022,27.000034 1.000011,1.000040 
	C164.666626,1.000026 328.333252,1.000026 491.999908,1.000013 
	C491.999939,26.999960 491.999939,52.999920 491.999969,78.999939 
	C449.833344,79.000000 407.666656,79.000000 365.000000,79.000000 
M31.896393,59.662811 
	C32.218773,59.857670 32.541157,60.052532 32.751915,60.110928 
	C32.751915,60.110928 32.633633,60.241657 32.686565,60.876255 
	C33.440258,61.599098 34.193951,62.321945 34.997952,63.012112 
	C34.997952,63.012112 34.949116,63.036438 35.093494,63.543587 
	C35.387745,63.713249 35.681995,63.882908 36.191151,64.592209 
	C36.799709,65.056549 37.408264,65.520889 38.257401,66.620850 
	C39.523815,67.078560 40.790226,67.536278 42.496284,68.562080 
	C60.447071,77.108551 80.424339,61.370113 78.882019,43.220619 
	C77.255257,38.807590 75.628494,34.394562 73.995224,30.001303 
	C73.995224,30.001303 74.015816,30.003340 73.897713,29.463793 
	C73.605965,29.267557 73.314217,29.071321 73.018700,28.979643 
	C73.018700,28.979643 73.123299,28.977190 72.959221,28.455801 
	C72.636940,28.297834 72.314651,28.139868 71.765862,27.353769 
	C70.537529,26.497784 69.309189,25.641798 68.064766,24.377098 
	C68.064766,24.377098 67.844902,24.032188 67.669250,23.389868 
	C65.854485,22.524712 64.039719,21.659557 61.640697,20.273239 
	C57.379120,19.876492 52.990776,18.624035 48.878220,19.233255 
	C32.339378,21.683268 23.789371,38.918472 28.007946,51.583942 
	C28.983156,53.719627 29.958368,55.855309 30.970863,58.027420 
	C30.970863,58.027420 31.011608,57.999153 31.077545,58.557011 
	C31.364891,58.763321 31.652237,58.969631 31.940680,59.041489 
	C31.940680,59.041489 31.807037,59.056267 31.896393,59.662811 
z"/>
<path fill="#EE5743" opacity="1.000000" stroke="none" 
	d="
M28.046455,50.822727 
	C23.789371,38.918472 32.339378,21.683268 48.878220,19.233255 
	C52.990776,18.624035 57.379120,19.876492 61.609901,20.705536 
	C59.015450,21.998341 55.816616,22.168390 53.999306,23.840195 
	C46.569344,30.675262 39.520737,37.928974 32.427715,45.123188 
	C30.755800,46.818958 27.010494,47.024540 28.046455,50.822727 
z"/>
<path fill="#E94E3A" opacity="1.000000" stroke="none" 
	d="
M28.027201,51.203335 
	C27.010494,47.024540 30.755800,46.818958 32.427715,45.123188 
	C39.520737,37.928974 46.569344,30.675262 53.999306,23.840195 
	C55.816616,22.168390 59.015450,21.998341 61.902023,20.966118 
	C64.039719,21.659557 65.854485,22.524712 67.434174,23.867203 
	C59.523872,25.860943 55.480953,32.536568 49.949497,36.952621 
	C43.513607,42.090740 38.097965,48.519260 32.354916,54.498573 
	C31.545971,55.340790 31.391165,56.811298 30.933578,57.990993 
	C29.958368,55.855309 28.983156,53.719627 28.027201,51.203335 
z"/>
<path fill="#D5422F" opacity="1.000000" stroke="none" 
	d="
M68.080856,24.785812 
	C69.309189,25.641798 70.537529,26.497784 72.018341,27.884254 
	C72.554985,28.602224 72.839142,28.789707 73.123299,28.977190 
	C73.123299,28.977190 73.018700,28.979643 73.131119,29.160877 
	C73.500961,29.562521 73.758392,29.782930 74.015816,30.003340 
	C74.015816,30.003340 73.995224,30.001303 74.008842,30.368919 
	C74.014893,31.491375 74.007317,32.246212 73.655243,33.041061 
	C65.022430,41.129646 56.672466,49.116203 48.480755,57.261909 
	C45.773888,59.953579 43.475178,63.055717 40.618317,65.976685 
	C39.503464,65.983871 38.760143,65.984550 38.016823,65.985229 
	C37.408264,65.520889 36.799709,65.056549 35.971748,64.099495 
	C35.547119,63.328648 35.279373,63.138535 34.949116,63.036438 
	C34.949116,63.036438 34.997952,63.012112 34.988159,62.691998 
	C34.977131,61.923008 34.975899,61.474129 35.185822,60.747093 
	C40.068077,57.610367 41.921997,51.103748 46.870728,50.420429 
	C52.398315,44.662422 56.710674,38.833286 62.312691,34.791752 
	C66.228355,31.966825 67.615494,28.963280 68.080856,24.785812 
z"/>
<path fill="#E24835" opacity="1.000000" stroke="none" 
	d="
M68.072815,24.581455 
	C67.615494,28.963280 66.228355,31.966825 62.312691,34.791752 
	C56.710674,38.833286 52.398315,44.662422 46.870728,50.420429 
	C41.921997,51.103748 40.068077,57.610367 34.903229,60.616112 
	C33.817535,60.589417 33.225582,60.415539 32.633633,60.241657 
	C32.633633,60.241657 32.751915,60.110928 32.725754,59.908539 
	C32.402077,59.489521 32.104557,59.272896 31.807037,59.056267 
	C31.807037,59.056267 31.940680,59.041489 31.851280,58.864464 
	C31.511789,58.458012 31.261698,58.228584 31.011608,57.999153 
	C31.011608,57.999153 30.970863,58.027420 30.952221,58.009209 
	C31.391165,56.811298 31.545971,55.340790 32.354916,54.498573 
	C38.097965,48.519260 43.513607,42.090740 49.949497,36.952621 
	C55.480953,32.536568 59.523872,25.860943 67.521996,24.188364 
	C67.844902,24.032188 68.064766,24.377098 68.072815,24.581455 
z"/>
<path fill="#A93021" opacity="1.000000" stroke="none" 
	d="
M78.739403,44.030766 
	C80.424339,61.370113 60.447071,77.108551 42.498169,68.281235 
	C42.500053,68.000397 42.941322,67.953262 43.363937,67.975090 
	C45.190163,67.994125 46.593773,67.991333 48.413746,67.994728 
	C50.217026,68.009026 51.603943,68.017136 53.201889,68.255699 
	C55.451801,67.314491 57.736328,66.424065 59.473362,64.906837 
	C62.243992,62.486797 64.419868,59.364632 67.269081,57.061131 
	C70.846550,54.168858 75.941643,52.881199 76.294830,46.987770 
	C76.356598,45.956970 77.887184,45.014194 78.739403,44.030766 
z"/>
<path fill="#BA3423" opacity="1.000000" stroke="none" 
	d="
M78.810715,43.625694 
	C77.887184,45.014194 76.356598,45.956970 76.294830,46.987770 
	C75.941643,52.881199 70.846550,54.168858 67.269081,57.061131 
	C64.419868,59.364632 62.243992,62.486797 59.473362,64.906837 
	C57.736328,66.424065 55.451801,67.314491 53.243824,67.901428 
	C53.760277,66.011391 54.201946,64.479134 55.171047,63.437653 
	C61.346069,56.801411 67.459221,50.088104 73.987198,43.810360 
	C76.262718,41.622059 77.139046,39.813278 75.978180,36.656631 
	C75.317833,35.210209 74.658791,34.105629 73.999748,33.001049 
	C74.007317,32.246212 74.014893,31.491375 74.012100,30.359035 
	C75.628494,34.394562 77.255257,38.807590 78.810715,43.625694 
z"/>
<path fill="#C13726" opacity="1.000000" stroke="none" 
	d="
M42.941322,67.953262 
	C42.941322,67.953262 42.500053,68.000397 42.278347,67.997192 
	C40.790226,67.536278 39.523815,67.078560 38.137112,66.303040 
	C38.760143,65.984550 39.503464,65.983871 40.930168,66.033791 
	C42.056141,66.707344 42.498734,67.330307 42.941322,67.953262 
z"/>
<path fill="#CC3C2B" opacity="1.000000" stroke="none" 
	d="
M32.660099,60.558956 
	C33.225582,60.415539 33.817535,60.589417 34.692074,60.894276 
	C34.975899,61.474129 34.977131,61.923008 34.963005,62.708336 
	C34.193951,62.321945 33.440258,61.599098 32.660099,60.558956 
z"/>
<path fill="#BA3423" opacity="1.000000" stroke="none" 
	d="
M73.041260,28.716496 
	C72.839142,28.789707 72.554985,28.602224 72.131599,28.198322 
	C72.314651,28.139868 72.636940,28.297834 73.041260,28.716496 
z"/>
<path fill="#BA3423" opacity="1.000000" stroke="none" 
	d="
M73.956764,29.733566 
	C73.758392,29.782930 73.500961,29.562521 73.133003,29.108599 
	C73.314217,29.071321 73.605965,29.267557 73.956764,29.733566 
z"/>
<path fill="#CC3C2B" opacity="1.000000" stroke="none" 
	d="
M31.044577,58.278084 
	C31.261698,58.228584 31.511789,58.458012 31.850731,58.931690 
	C31.652237,58.969631 31.364891,58.763321 31.044577,58.278084 
z"/>
<path fill="#CC3C2B" opacity="1.000000" stroke="none" 
	d="
M31.851715,59.359539 
	C32.104557,59.272896 32.402077,59.489521 32.781567,59.976772 
	C32.541157,60.052532 32.218773,59.857670 31.851715,59.359539 
z"/>
<path fill="#CC3C2B" opacity="1.000000" stroke="none" 
	d="
M35.021305,63.290012 
	C35.279373,63.138535 35.547119,63.328648 35.864300,63.829674 
	C35.681995,63.882908 35.387745,63.713249 35.021305,63.290012 
z"/>
<path fill="#CC3C2B" opacity="1.000000" stroke="none" 
	d="
M43.363937,67.975090 
	C42.498734,67.330307 42.056141,66.707344 41.301701,66.027283 
	C43.475178,63.055717 45.773888,59.953579 48.480755,57.261909 
	C56.672466,49.116203 65.022430,41.129646 73.655243,33.041061 
	C74.658791,34.105629 75.317833,35.210209 75.633377,36.701332 
	C67.683937,44.734180 59.953472,52.262970 52.553448,60.103634 
	C50.526024,62.251789 49.488937,65.334625 47.997387,67.988541 
	C46.593773,67.991333 45.190163,67.994125 43.363937,67.975090 
z"/>
<path fill="#C13726" opacity="1.000000" stroke="none" 
	d="
M48.413746,67.994728 
	C49.488937,65.334625 50.526024,62.251789 52.553448,60.103634 
	C59.953472,52.262970 67.683937,44.734180 75.634689,37.043175 
	C77.139046,39.813278 76.262718,41.622059 73.987198,43.810360 
	C67.459221,50.088104 61.346069,56.801411 55.171047,63.437653 
	C54.201946,64.479134 53.760277,66.011391 53.032799,67.670990 
	C51.603943,68.017136 50.217026,68.009026 48.413746,67.994728 
z"/>
</svg>