<svg version="1.1" id="Layer_1" xmlns="http://www.w3.org/2000/svg" xmlns:xlink="http://www.w3.org/1999/xlink" x="0px" y="0px"
	 width="100%" viewBox="0 0 433 83" enable-background="new 0 0 433 83" xml:space="preserve">
<path fill="#F5F5DB" opacity="1.000000" stroke="none" 
	d="
M318.000000,84.000000 
	C212.000015,84.000000 106.500023,84.000000 1.000028,84.000000 
	C1.000019,56.333351 1.000019,28.666698 1.000009,1.000036 
	C145.333298,1.000024 289.666595,1.000024 433.999939,1.000012 
	C433.999939,28.666632 433.999939,56.333263 433.999969,83.999947 
	C395.500000,84.000000 357.000000,84.000000 318.000000,84.000000 
M40.000042,64.583000 
	C40.335331,64.731735 40.670616,64.880463 41.002316,64.989861 
	C41.002316,64.989861 40.965706,65.004692 41.356152,65.577118 
	C51.404972,71.669579 61.172169,70.880775 70.637489,64.282341 
	C78.912979,58.513359 83.261604,44.793633 79.021042,37.488823 
	C79.006950,37.296257 78.992867,37.103691 79.218651,36.759655 
	C79.380348,36.440536 79.305542,36.225273 79.026451,36.024342 
	C79.026451,36.024342 78.957436,35.958866 79.078026,35.308651 
	C78.727974,34.532787 78.377914,33.756927 77.979004,32.271572 
	C75.700378,29.796701 73.421753,27.321831 70.876381,24.233402 
	C69.255676,23.127928 67.634979,22.022453 65.688957,20.414286 
	C65.125359,20.279947 64.561760,20.145611 63.472595,19.534338 
	C62.079243,19.253405 60.685886,18.972471 58.580734,18.235273 
	C40.525669,16.501419 25.988110,31.659218 30.155994,48.786991 
	C30.480280,50.194786 30.804567,51.602585 31.144054,53.673435 
	C31.759804,54.788284 32.375553,55.903130 33.000484,56.998947 
	C33.000484,56.998947 32.981434,57.008598 33.143459,57.653847 
	C34.189171,58.750439 35.234879,59.847034 36.412437,61.465904 
	C36.969761,61.881958 37.527081,62.298012 38.074436,62.925198 
	C38.074436,62.925198 38.285385,62.911861 38.462662,63.457832 
	C38.962841,63.704414 39.463020,63.951000 39.976135,64.046989 
	C39.976135,64.046989 39.824993,64.045082 40.000042,64.583000 
M115.176468,61.553154 
	C115.700943,61.799431 116.225418,62.045708 116.857956,62.936203 
	C117.914200,63.597942 118.970444,64.259682 120.034149,64.992523 
	C120.034149,64.992523 120.099861,64.964355 120.372353,65.492027 
	C121.244240,65.910080 122.116119,66.328133 123.330589,67.065109 
	C123.330589,67.065109 123.798637,67.066078 124.299950,67.612518 
	C135.068268,71.766785 144.763885,69.739929 152.635773,61.546700 
	C159.581650,54.317307 161.712036,45.529873 158.144287,35.070770 
	C156.750687,32.726746 155.357086,30.382723 153.867035,27.514730 
	C153.576828,27.337103 153.286636,27.159473 152.822540,26.305101 
	C152.279556,25.908993 151.736588,25.512884 151.206696,24.640532 
	C150.802353,24.421492 150.398010,24.202450 149.815643,23.392752 
	C148.945511,22.871281 148.075378,22.349812 146.851456,21.303156 
	C146.261169,21.103512 145.670868,20.903868 144.858765,20.577887 
	C144.858765,20.577887 144.665649,20.744802 144.243484,20.129641 
	C142.843689,19.752823 141.443909,19.376005 139.516129,18.594059 
	C138.649994,18.490564 137.783859,18.387068 136.063477,18.026241 
	C134.571243,18.022028 133.071564,17.918144 131.587891,18.028759 
	C113.444313,19.381426 101.946938,41.583340 111.911766,56.143379 
	C111.911766,56.143379 111.843506,56.159550 111.859200,56.730553 
	C112.215508,57.144096 112.571815,57.557640 113.072800,58.596180 
	C113.721527,59.390564 114.370255,60.184948 115.176468,61.553154 
z"/>
<path fill="#EF5843" opacity="1.000000" stroke="none" 
	d="
M29.963844,48.073097 
	C25.988110,31.659218 40.525669,16.501419 58.694046,18.649857 
	C58.546005,19.370699 58.284653,19.676956 57.967453,20.342815 
	C56.143230,23.264896 52.984581,25.086956 53.760330,29.042940 
	C53.848251,29.491304 51.929256,30.938429 51.017673,30.871794 
	C47.264988,30.597475 44.725712,31.332180 44.348190,35.750942 
	C44.259163,36.792965 42.800076,37.837185 41.791611,38.660305 
	C37.888397,41.846146 33.912605,44.943062 29.963844,48.073097 
M52.160042,19.305622 
	C52.080448,19.444551 52.000851,19.583481 51.921253,19.722408 
	C52.051483,19.662844 52.181713,19.603279 52.160042,19.305622 
z"/>
<path fill="#EA4F3A" opacity="1.000000" stroke="none" 
	d="
M136.917725,18.283571 
	C137.783859,18.387068 138.649994,18.490564 140.003387,19.069214 
	C141.882324,19.944515 143.273987,20.344660 144.665649,20.744804 
	C144.665649,20.744802 144.858765,20.577887 144.939209,20.959705 
	C145.014175,21.553974 145.008713,21.766422 145.002975,21.985352 
	C145.002716,21.991833 144.998810,22.000149 144.757889,22.000328 
	C144.516968,22.000509 144.035156,21.995140 143.876404,22.086586 
	C143.657333,22.282635 143.520432,22.440268 143.549835,22.482723 
	C143.680969,22.672039 143.859604,22.828442 144.265350,22.997910 
	C144.509644,22.999081 144.998199,22.998901 145.004517,23.249418 
	C145.013596,23.666975 145.016342,23.834017 144.670868,24.042122 
	C140.559006,27.046478 136.322433,29.577204 133.132217,33.065006 
	C126.892975,39.886265 121.254013,47.255310 115.315781,54.355133 
	C114.727242,55.058804 113.787842,55.469017 112.717148,56.033730 
	C112.229851,56.087868 112.036674,56.123711 111.843506,56.159550 
	C111.843506,56.159550 111.911766,56.143379 111.931992,55.717491 
	C111.567856,53.713985 111.219543,52.126530 110.792015,50.560703 
	C109.731438,46.676342 109.132004,43.088360 114.352127,41.589279 
	C115.501694,41.259151 116.361237,39.948132 117.376221,39.115490 
	C122.603149,34.827564 125.229149,27.967245 131.585953,24.763653 
	C132.198334,24.455032 132.869766,23.371876 132.792328,22.736166 
	C132.398422,19.502890 134.867661,19.127483 136.917725,18.283571 
z"/>
<path fill="#E74D39" opacity="1.000000" stroke="none" 
	d="
M30.059921,48.430046 
	C33.912605,44.943062 37.888397,41.846146 41.791611,38.660305 
	C42.800076,37.837185 44.259163,36.792965 44.348190,35.750942 
	C44.725712,31.332180 47.264988,30.597475 51.017673,30.871794 
	C51.929256,30.938429 53.848251,29.491304 53.760330,29.042940 
	C52.984581,25.086956 56.143230,23.264896 58.332520,20.351517 
	C60.501675,20.004166 62.249920,20.007719 63.998161,20.011272 
	C64.561760,20.145611 65.125359,20.279947 65.847443,21.050198 
	C66.008415,22.454777 66.010918,23.223444 65.938416,24.343813 
	C62.541763,28.195965 59.250977,31.726400 55.889011,35.187706 
	C53.021549,38.139900 50.046520,40.987503 47.172207,43.933212 
	C46.065598,45.067307 44.291267,46.307793 44.234516,47.563675 
	C44.075771,51.076389 41.666622,51.741798 39.268398,51.848446 
	C35.636311,52.009960 34.725208,53.868328 34.652206,56.989342 
	C33.872520,56.998264 33.426975,57.003429 32.981434,57.008598 
	C32.981434,57.008598 33.000484,56.998947 32.993999,56.641861 
	C32.367958,55.193314 31.748405,54.101845 31.128853,53.010380 
	C30.804567,51.602585 30.480280,50.194786 30.059921,48.430046 
z"/>
<path fill="#ED5C48" opacity="1.000000" stroke="none" 
	d="
M136.490601,18.154907 
	C134.867661,19.127483 132.398422,19.502890 132.792328,22.736166 
	C132.869766,23.371876 132.198334,24.455032 131.585953,24.763653 
	C125.229149,27.967245 122.603149,34.827564 117.376221,39.115490 
	C116.361237,39.948132 115.501694,41.259151 114.352127,41.589279 
	C109.132004,43.088360 109.731438,46.676342 110.792015,50.560703 
	C111.219543,52.126530 111.567856,53.713985 111.900925,55.701195 
	C101.946938,41.583340 113.444313,19.381426 131.587891,18.028759 
	C133.071564,17.918144 134.571243,18.022028 136.490601,18.154907 
z"/>
<path fill="#AE3525" opacity="1.000000" stroke="none" 
	d="
M158.114868,35.791080 
	C161.712036,45.529873 159.581650,54.317307 152.635773,61.546700 
	C144.763885,69.739929 135.068268,71.766785 124.389153,67.308083 
	C125.317505,66.669960 126.156647,66.336281 127.256119,66.266899 
	C132.623291,67.456787 136.321701,65.001183 139.872025,61.725147 
	C142.219162,59.559361 145.006607,57.870758 147.596924,55.968517 
	C148.101639,56.425915 148.606369,56.883312 149.111084,57.340710 
	C152.112350,50.157497 155.113617,42.974289 158.114868,35.791080 
z"/>
<path fill="#C13727" opacity="1.000000" stroke="none" 
	d="
M158.129578,35.430923 
	C155.113617,42.974289 152.112350,50.157497 149.111084,57.340710 
	C148.606369,56.883312 148.101639,56.425915 147.596924,55.968517 
	C145.006607,57.870758 142.219162,59.559361 139.872025,61.725147 
	C136.321701,65.001183 132.623291,67.456787 127.298103,65.921768 
	C127.727707,64.370750 128.254791,63.310478 129.043579,62.507175 
	C133.555817,57.911842 138.051071,53.294640 142.708374,48.848560 
	C146.519531,45.210247 150.549011,41.800640 154.481705,38.289642 
	C153.476471,37.610085 158.797577,33.180882 153.049667,32.639084 
	C153.371048,30.874664 153.652100,29.470085 153.941010,28.057575 
	C153.948868,28.049641 153.963486,28.038700 153.963486,28.038700 
	C155.357086,30.382723 156.750687,32.726746 158.129578,35.430923 
z"/>
<path fill="#C03323" opacity="1.000000" stroke="none" 
	d="
M78.978775,36.911125 
	C78.992867,37.103691 79.006950,37.296257 78.700584,38.077492 
	C76.748726,43.117340 81.565063,51.244656 73.066216,50.527561 
	C70.396744,53.844551 68.706154,56.309303 66.641777,58.406033 
	C64.651497,60.427498 61.904213,61.768085 60.144135,63.938637 
	C56.219574,68.778465 53.413605,69.443565 48.143539,65.727386 
	C54.363808,59.603016 60.552116,53.903061 66.454872,47.921318 
	C70.471703,43.850735 74.088753,39.385639 78.023102,35.287613 
	C78.377365,35.720505 78.642632,35.880699 78.957436,35.958866 
	C78.957436,35.958866 79.026451,36.024342 78.985954,36.267479 
	C78.945457,36.510616 78.978775,36.911125 78.978775,36.911125 
z"/>
<path fill="#D64332" opacity="1.000000" stroke="none" 
	d="
M33.062447,57.331223 
	C33.426975,57.003429 33.872520,56.998264 34.821106,57.304611 
	C39.618000,61.380497 39.695404,61.332581 43.151402,52.623447 
	C44.167351,52.956013 45.195251,53.292488 46.284176,53.648941 
	C46.841240,52.081577 46.930893,50.307987 47.863178,49.450104 
	C54.527767,43.317390 61.485252,37.499119 68.055687,31.270802 
	C69.591698,29.814768 70.000397,27.169506 70.981735,25.015415 
	C71.035713,24.959440 71.143120,24.846962 71.143120,24.846962 
	C73.421753,27.321831 75.700378,29.796701 77.933548,32.689072 
	C77.888100,33.106571 77.749870,33.233807 77.581970,33.176735 
	C77.414078,33.119663 77.057419,33.100246 76.780441,32.946831 
	C73.470909,30.287872 72.460732,32.924767 70.849312,34.787979 
	C69.565025,36.272957 67.713455,37.267311 65.191940,39.177898 
	C61.657627,46.718010 54.471230,52.995110 46.984966,58.411942 
	C44.082645,60.511971 42.786037,61.807312 42.679962,65.002396 
	C41.880123,65.011589 41.422916,65.008141 40.965706,65.004692 
	C40.965706,65.004692 41.002316,64.989861 40.858620,64.790466 
	C40.418282,64.409073 40.121639,64.227074 39.824993,64.045082 
	C39.824993,64.045082 39.976135,64.046989 39.844070,63.873383 
	C39.236462,63.437138 38.760925,63.174500 38.285385,62.911861 
	C38.285385,62.911861 38.074436,62.925198 37.987068,62.562881 
	C37.359997,61.781586 36.820293,61.362606 36.280590,60.943626 
	C35.234879,59.847034 34.189171,58.750439 33.062447,57.331223 
z"/>
<path fill="#AC3728" opacity="1.000000" stroke="none" 
	d="
M41.160927,65.290909 
	C41.422916,65.008141 41.880123,65.011589 43.011810,65.158463 
	C45.120838,65.545181 46.555386,65.788467 47.989933,66.031754 
	C53.413605,69.443565 56.219574,68.778465 60.144135,63.938637 
	C61.904213,61.768085 64.651497,60.427498 66.641777,58.406033 
	C68.706154,56.309303 70.396744,53.844551 73.066216,50.527561 
	C81.565063,51.244656 76.748726,43.117340 78.640854,38.360886 
	C83.261604,44.793633 78.912979,58.513359 70.637489,64.282341 
	C61.172169,70.880775 51.404972,71.669579 41.160927,65.290909 
z"/>
<path fill="#CD3E2D" opacity="1.000000" stroke="none" 
	d="
M153.009338,32.998932 
	C158.797577,33.180882 153.476471,37.610085 154.481705,38.289642 
	C150.549011,41.800640 146.519531,45.210247 142.708374,48.848560 
	C138.051071,53.294640 133.555817,57.911842 129.043579,62.507175 
	C128.254791,63.310478 127.727707,64.370750 127.037781,65.657471 
	C126.156647,66.336281 125.317505,66.669960 124.138496,67.034866 
	C123.798637,67.066078 123.330589,67.065109 123.079147,66.598846 
	C121.918427,65.743172 121.009140,65.353767 120.099861,64.964355 
	C120.099861,64.964355 120.034149,64.992523 120.017929,64.567581 
	C119.995277,63.103062 119.988831,62.063488 120.348785,60.968018 
	C122.645470,60.047974 125.038567,59.643650 126.429504,58.243645 
	C134.347519,50.274010 141.996750,42.037903 149.838821,33.991268 
	C150.518982,33.293385 151.935089,33.312740 153.009338,32.998932 
z"/>
<path fill="#D74331" opacity="1.000000" stroke="none" 
	d="
M145.019104,24.001060 
	C145.016342,23.834017 145.013596,23.666975 145.004730,22.999866 
	C144.998611,22.499800 144.998810,22.000149 144.998810,22.000149 
	C144.998810,22.000149 145.002716,21.991833 145.371765,21.989845 
	C146.228973,21.934685 146.717102,21.881514 147.205246,21.828342 
	C148.075378,22.349812 148.945511,22.871281 149.936768,23.918259 
	C150.057907,24.443768 150.129288,24.902824 150.087982,24.941311 
	C150.046661,24.979797 149.960724,25.053087 149.593323,25.034630 
	C147.823639,24.677803 146.421371,24.339432 145.019104,24.001060 
z"/>
<path fill="#D64332" opacity="1.000000" stroke="none" 
	d="
M66.013412,23.992113 
	C66.010918,23.223444 66.008415,22.454777 66.010101,21.301544 
	C67.634979,22.022453 69.255676,23.127928 71.009750,24.540182 
	C71.143120,24.846962 71.035713,24.959440 70.620728,24.986580 
	C68.808296,24.673185 67.410851,24.332649 66.013412,23.992113 
z"/>
<path fill="#D64332" opacity="1.000000" stroke="none" 
	d="
M63.735378,19.772804 
	C62.249920,20.007719 60.501675,20.004166 58.388367,19.991913 
	C58.284653,19.676956 58.546005,19.370699 59.049946,18.877991 
	C60.685886,18.972471 62.079243,19.253405 63.735378,19.772804 
z"/>
<path fill="#C13727" opacity="1.000000" stroke="none" 
	d="
M119.982391,61.023911 
	C119.988831,62.063488 119.995277,63.103062 120.014206,64.532028 
	C118.970444,64.259682 117.914200,63.597942 116.873947,62.529324 
	C116.889946,62.122444 117.026863,61.950363 117.341324,61.939110 
	C118.431320,61.626541 119.206856,61.325222 119.982391,61.023911 
z"/>
<path fill="#D64332" opacity="1.000000" stroke="none" 
	d="
M31.136454,53.341908 
	C31.748405,54.101845 32.367958,55.193314 32.989410,56.651379 
	C32.375553,55.903130 31.759804,54.788284 31.136454,53.341908 
z"/>
<path fill="#CD3E2D" opacity="1.000000" stroke="none" 
	d="
M151.193604,25.116776 
	C151.736588,25.512884 152.279556,25.908993 152.672150,26.666708 
	C152.521759,27.028315 152.046402,27.072065 151.728943,27.005184 
	C150.927917,26.309896 150.444321,25.681490 149.960724,25.053085 
	C149.960724,25.053087 150.046661,24.979797 150.266968,24.967499 
	C150.733459,24.962067 150.968903,25.015926 151.193604,25.116776 
z"/>
<path fill="#C13727" opacity="1.000000" stroke="none" 
	d="
M120.236107,65.228195 
	C121.009140,65.353767 121.918427,65.743172 122.907852,66.439384 
	C122.116119,66.328133 121.244240,65.910080 120.236107,65.228195 
z"/>
<path fill="#ED5C48" opacity="1.000000" stroke="none" 
	d="
M144.454559,20.437222 
	C143.273987,20.344660 141.882324,19.944515 140.267395,19.271778 
	C141.443909,19.376005 142.843689,19.752823 144.454559,20.437222 
z"/>
<path fill="#C13727" opacity="1.000000" stroke="none" 
	d="
M115.018982,60.979332 
	C114.370255,60.184948 113.721527,59.390564 113.090317,58.322933 
	C113.107834,58.049686 113.283333,57.964104 113.555740,57.994156 
	C114.195114,58.040504 114.562080,58.056801 114.944405,58.430893 
	C114.993805,59.506664 115.027847,60.224632 115.051422,60.952278 
	C115.040947,60.961956 115.018982,60.979332 115.018982,60.979332 
z"/>
<path fill="#D64332" opacity="1.000000" stroke="none" 
	d="
M79.017731,35.633759 
	C78.642632,35.880699 78.377365,35.720505 78.005623,34.967934 
	C77.817329,34.247429 77.785057,34.037270 77.779587,33.678646 
	C77.806404,33.530186 77.749870,33.233807 77.749870,33.233807 
	C77.749870,33.233807 77.888100,33.106571 77.957977,33.043819 
	C78.377914,33.756927 78.727974,34.532787 79.017731,35.633759 
z"/>
<path fill="#AC3728" opacity="1.000000" stroke="none" 
	d="
M36.346512,61.204765 
	C36.820293,61.362606 37.359997,61.781586 37.992050,62.457314 
	C37.527081,62.298012 36.969761,61.881958 36.346512,61.204765 
z"/>
<path fill="#C13727" opacity="1.000000" stroke="none" 
	d="
M152.046402,27.072065 
	C152.046402,27.072065 152.521759,27.028315 152.759094,27.005081 
	C153.286636,27.159473 153.576828,27.337103 153.915253,27.776714 
	C153.963486,28.038700 153.948868,28.049641 153.618927,28.033739 
	C152.858215,28.013273 152.427460,28.008707 152.002350,27.770763 
	C152.007980,27.537382 152.046402,27.072065 152.046402,27.072065 
z"/>
<path fill="#C13727" opacity="1.000000" stroke="none" 
	d="
M151.200150,24.878654 
	C150.968903,25.015926 150.733459,24.962067 150.308273,24.929012 
	C150.129288,24.902824 150.057907,24.443768 150.025787,24.213589 
	C150.398010,24.202450 150.802353,24.421492 151.200150,24.878654 
z"/>
<path fill="#ED5C48" opacity="1.000000" stroke="none" 
	d="
M147.028351,21.565750 
	C146.717102,21.881514 146.228973,21.934685 145.372040,21.983364 
	C145.008713,21.766422 145.014175,21.553974 145.050110,21.022875 
	C145.670868,20.903868 146.261169,21.103512 147.028351,21.565750 
z"/>
<path fill="#ED5C48" opacity="1.000000" stroke="none" 
	d="
M111.851349,56.445053 
	C112.036674,56.123711 112.229851,56.087868 112.732849,56.362083 
	C113.122894,57.102798 113.203110,57.533451 113.283325,57.964104 
	C113.283333,57.964104 113.107834,58.049686 113.017975,58.010437 
	C112.571815,57.557640 112.215508,57.144096 111.851349,56.445053 
z"/>
<path fill="#C13727" opacity="1.000000" stroke="none" 
	d="
M116.819916,62.207214 
	C116.225418,62.045708 115.700943,61.799431 115.097725,61.266243 
	C115.018982,60.979332 115.040947,60.961956 115.335770,60.998245 
	C116.096008,61.339809 116.561440,61.645084 117.026863,61.950363 
	C117.026863,61.950363 116.889946,62.122444 116.819916,62.207214 
z"/>
<path fill="#AC3728" opacity="1.000000" stroke="none" 
	d="
M38.374023,63.184845 
	C38.760925,63.174500 39.236462,63.437138 39.837601,63.948681 
	C39.463020,63.951000 38.962841,63.704414 38.374023,63.184845 
z"/>
<path fill="#D64332" opacity="1.000000" stroke="none" 
	d="
M79.098709,36.835388 
	C78.978775,36.911125 78.945457,36.510616 78.969849,36.312241 
	C79.305542,36.225273 79.380348,36.440536 79.098709,36.835388 
z"/>
<path fill="#AC3728" opacity="1.000000" stroke="none" 
	d="
M39.912518,64.314041 
	C40.121639,64.227074 40.418282,64.409073 40.860416,64.810135 
	C40.670616,64.880463 40.335331,64.731735 39.912518,64.314041 
z"/>
<path fill="#E74D39" opacity="1.000000" stroke="none" 
	d="
M52.235992,19.424667 
	C52.181713,19.603279 52.051483,19.662844 51.921253,19.722408 
	C52.000851,19.583481 52.080448,19.444551 52.235992,19.424667 
z"/>
<path fill="#E24834" opacity="1.000000" stroke="none" 
	d="
M113.555740,57.994156 
	C113.203110,57.533451 113.122894,57.102798 113.026978,56.343788 
	C113.787842,55.469017 114.727242,55.058804 115.315781,54.355133 
	C121.254013,47.255310 126.892975,39.886265 133.132217,33.065006 
	C136.322433,29.577204 140.559006,27.046478 144.670868,24.042122 
	C146.421371,24.339432 147.823639,24.677803 149.593323,25.034630 
	C150.444321,25.681490 150.927917,26.309896 151.728943,27.005184 
	C152.046402,27.072065 152.007980,27.537382 151.764069,28.026012 
	C148.814713,30.281254 145.824921,31.733397 143.457474,33.873867 
	C136.553528,40.115917 129.430557,46.228157 123.366516,53.233585 
	C120.796356,56.202732 118.653000,58.005100 114.929047,58.073093 
	C114.562080,58.056801 114.195114,58.040504 113.555740,57.994156 
z"/>
<path fill="#ED5C48" opacity="1.000000" stroke="none" 
	d="
M144.757889,22.000328 
	C144.998810,22.000149 144.998611,22.499800 144.998413,22.749352 
	C144.998199,22.998901 144.509644,22.999081 144.268158,22.747509 
	C144.029526,22.329004 144.032349,22.162071 144.035156,21.995140 
	C144.035156,21.995140 144.516968,22.000509 144.757889,22.000328 
z"/>
<path fill="#D74331" opacity="1.000000" stroke="none" 
	d="
M143.876404,22.086586 
	C144.032349,22.162071 144.029526,22.329004 144.023880,22.746340 
	C143.859604,22.828442 143.680969,22.672039 143.549835,22.482723 
	C143.520432,22.440268 143.657333,22.282635 143.876404,22.086586 
z"/>
<path fill="#DE4835" opacity="1.000000" stroke="none" 
	d="
M65.938416,24.343813 
	C67.410851,24.332649 68.808296,24.673185 70.566742,25.042557 
	C70.000397,27.169506 69.591698,29.814768 68.055687,31.270802 
	C61.485252,37.499119 54.527767,43.317390 47.863178,49.450104 
	C46.930893,50.307987 46.841240,52.081577 46.284176,53.648941 
	C45.195251,53.292488 44.167351,52.956013 43.151402,52.623447 
	C39.695404,61.332581 39.618000,61.380497 35.155247,57.300850 
	C34.725208,53.868328 35.636311,52.009960 39.268398,51.848446 
	C41.666622,51.741798 44.075771,51.076389 44.234516,47.563675 
	C44.291267,46.307793 46.065598,45.067307 47.172207,43.933212 
	C50.046520,40.987503 53.021549,38.139900 55.889011,35.187706 
	C59.250977,31.726400 62.541763,28.195965 65.938416,24.343813 
z"/>
<path fill="#D74331" opacity="1.000000" stroke="none" 
	d="
M114.944405,58.430893 
	C118.653000,58.005100 120.796356,56.202732 123.366516,53.233585 
	C129.430557,46.228157 136.553528,40.115917 143.457474,33.873867 
	C145.824921,31.733397 148.814713,30.281254 151.758438,28.259392 
	C152.427460,28.008707 152.858215,28.013273 153.611069,28.041672 
	C153.652100,29.470085 153.371048,30.874664 153.049667,32.639084 
	C151.935089,33.312740 150.518982,33.293385 149.838821,33.991268 
	C141.996750,42.037903 134.347519,50.274010 126.429504,58.243645 
	C125.038567,59.643650 122.645470,60.047974 120.348793,60.968018 
	C119.206856,61.325222 118.431320,61.626541 117.341324,61.939110 
	C116.561440,61.645084 116.096008,61.339809 115.346237,60.988571 
	C115.027847,60.224632 114.993805,59.506664 114.944405,58.430893 
z"/>
<path fill="#CD3C2A" opacity="1.000000" stroke="none" 
	d="
M77.752777,33.827106 
	C77.785057,34.037270 77.817329,34.247429 77.867096,34.777271 
	C74.088753,39.385639 70.471703,43.850735 66.454872,47.921318 
	C60.552116,53.903061 54.363808,59.603016 48.143539,65.727386 
	C46.555386,65.788467 45.120838,65.545181 43.354439,65.145828 
	C42.786037,61.807312 44.082645,60.511971 46.984966,58.411942 
	C54.471230,52.995110 61.657627,46.718010 65.191940,39.177898 
	C67.713455,37.267311 69.565025,36.272957 70.849312,34.787979 
	C72.460732,32.924767 73.470909,30.287872 76.854584,33.104874 
	C77.334656,33.624378 77.517014,33.761303 77.752777,33.827106 
z"/>
<path fill="#C03323" opacity="1.000000" stroke="none" 
	d="
M77.779587,33.678646 
	C77.517014,33.761303 77.334656,33.624378 77.131561,33.258289 
	C77.057419,33.100246 77.414078,33.119663 77.581970,33.176735 
	C77.749870,33.233807 77.806404,33.530186 77.779587,33.678646 
z"/>
</svg>