<svg version="1.1" id="Layer_1" xmlns="http://www.w3.org/2000/svg" xmlns:xlink="http://www.w3.org/1999/xlink" x="0px" y="0px"
	 width="100%" viewBox="0 0 433 83" enable-background="new 0 0 433 83" xml:space="preserve">
<path fill="#FFFFFF" opacity="1.000000" stroke="none" 
	d="
M324.000000,84.000000 
	C216.000015,84.000000 108.500023,84.000000 1.000029,84.000000 
	C1.000019,56.333351 1.000019,28.666698 1.000010,1.000036 
	C145.333298,1.000024 289.666595,1.000024 433.999939,1.000012 
	C433.999939,28.666632 433.999939,56.333263 433.999969,83.999947 
	C397.500000,84.000000 361.000000,84.000000 324.000000,84.000000 
M160.089661,47.350498 
	C160.062576,46.904213 160.035507,46.457932 160.300995,45.406498 
	C159.871063,42.605076 159.441147,39.803650 159.157242,36.313572 
	C158.524765,35.504856 157.892288,34.696140 157.215500,33.170753 
	C156.776871,32.115253 156.338242,31.059755 155.955399,29.338284 
	C154.644470,27.875422 153.333527,26.412558 151.820511,24.395658 
	C151.026337,23.863087 150.232162,23.330517 149.019974,22.224600 
	C146.681656,21.168081 144.343338,20.111563 141.425339,18.643324 
	C140.273941,18.461172 139.122559,18.279022 137.309479,17.727140 
	C121.129028,16.082054 107.352219,28.456503 107.894890,44.804897 
	C108.001427,45.877689 108.107964,46.950478 108.130394,48.638264 
	C108.348747,48.971474 108.567108,49.304680 108.719498,50.249321 
	C108.895317,50.835476 109.071144,51.421635 109.263741,52.693256 
	C110.497040,54.831242 111.730339,56.969227 113.071335,59.634117 
	C113.682098,60.233082 114.292862,60.832047 115.233795,62.047611 
	C116.828697,63.298767 118.423599,64.549919 120.461121,66.260025 
	C121.034866,66.494354 121.608620,66.728676 122.641457,67.467918 
	C124.417076,68.001823 126.192688,68.535721 128.620712,69.568039 
	C131.764313,69.603966 134.907898,69.639885 138.790604,69.746544 
	C150.016403,67.116913 157.032196,60.243927 159.952805,48.514000 
	C159.917725,48.337425 159.882629,48.160851 160.089661,47.350498 
M81.143059,46.177563 
	C81.087425,44.788994 81.031792,43.400429 81.136490,41.220901 
	C80.436676,38.791065 79.736855,36.361229 79.040207,33.269005 
	C78.384911,32.171535 77.729614,31.074070 76.925041,29.302168 
	C75.728920,27.941820 74.532791,26.581472 73.068642,24.726528 
	C72.163254,24.086134 71.257874,23.445740 69.955727,22.227274 
	C67.639297,21.173069 65.322876,20.118862 62.422573,18.659468 
	C61.271610,18.472912 60.120651,18.286356 58.306606,17.732723 
	C41.328133,15.970551 27.123556,29.688061 28.922619,46.669067 
	C29.011543,47.119705 29.100468,47.570343 29.104717,48.644455 
	C29.324902,48.982048 29.545084,49.319645 29.672226,50.277611 
	C30.000786,51.234333 30.329348,52.191051 30.780859,53.834518 
	C31.553930,55.213203 32.327003,56.591885 33.242100,58.608307 
	C34.835407,60.283394 36.428711,61.958485 38.400505,64.157082 
	C39.286854,64.721794 40.173199,65.286499 41.510509,66.351852 
	C42.736523,66.877075 43.962540,67.402290 45.766102,68.397469 
	C50.914379,68.620399 56.062653,68.843323 61.879402,68.756721 
	C71.499672,66.316856 77.710800,60.470108 80.473862,50.241512 
	C80.618416,49.155621 80.762970,48.069729 81.143059,46.177563 
z"/>
<path fill="#EE4F3A" opacity="1.000000" stroke="none" 
	d="
M58.969688,18.099800 
	C60.120651,18.286356 61.271610,18.472912 62.708794,19.222633 
	C62.756016,20.561909 62.752071,21.575403 62.243359,22.079130 
	C51.749374,32.470181 41.197941,42.803223 30.657906,53.147774 
	C30.329348,52.191051 30.000786,51.234333 29.740252,49.658516 
	C29.601982,48.699944 29.395689,48.360462 29.189396,48.020981 
	C29.100468,47.570343 29.011543,47.119705 29.249203,46.133636 
	C36.602825,38.345680 43.518036,30.979298 50.720486,23.905375 
	C53.087547,21.580555 56.198761,20.013411 58.969688,18.099800 
z"/>
<path fill="#C63727" opacity="1.000000" stroke="none" 
	d="
M61.210930,69.066254 
	C56.062653,68.843323 50.914379,68.620399 45.722057,67.953125 
	C47.115223,65.509346 48.333138,63.297268 50.028862,61.548512 
	C56.259815,55.122715 62.573311,48.771957 69.011665,42.554417 
	C72.177139,39.497505 75.684425,36.794533 79.037033,33.931389 
	C79.736855,36.361229 80.436676,38.791065 80.692596,41.617149 
	C79.468689,42.243195 78.447945,42.233219 77.944588,42.738575 
	C69.735527,50.980125 61.589378,59.284386 53.456963,67.601799 
	C53.331402,67.730209 53.557240,68.202209 53.704720,68.945374 
	C55.085434,68.945374 56.552521,68.945374 58.418587,68.950615 
	C59.615353,68.992653 60.413143,69.029449 61.210930,69.066254 
z"/>
<path fill="#E84C38" opacity="1.000000" stroke="none" 
	d="
M30.719381,53.491146 
	C41.197941,42.803223 51.749374,32.470181 62.243359,22.079130 
	C62.752071,21.575403 62.756016,20.561909 63.000732,19.425228 
	C65.322876,20.118862 67.639297,21.173069 69.826950,22.670147 
	C59.081676,33.625195 48.489597,44.162308 37.818287,54.618549 
	C36.457355,55.952053 34.682938,56.863564 33.100075,57.970570 
	C32.327003,56.591885 31.553930,55.213203 30.719381,53.491146 
z"/>
<path fill="#E84C38" opacity="1.000000" stroke="none" 
	d="
M142.005020,19.055048 
	C144.343338,20.111563 146.681656,21.168081 148.854950,22.585915 
	C147.960098,23.313385 147.074066,23.522243 146.523514,24.068954 
	C135.806396,34.711292 125.112556,45.377316 114.476189,56.100224 
	C113.724998,56.857533 113.456558,58.093704 112.963638,59.107208 
	C111.730339,56.969227 110.497040,54.831242 109.582306,52.303085 
	C120.412628,41.585945 130.931824,31.266512 141.408203,20.903786 
	C141.816864,20.499556 141.815399,19.680704 142.005020,19.055048 
z"/>
<path fill="#EE4F3A" opacity="1.000000" stroke="none" 
	d="
M141.715179,18.849186 
	C141.815399,19.680704 141.816864,20.499556 141.408203,20.903786 
	C130.931824,31.266512 120.412628,41.585945 109.573921,51.960350 
	C109.071144,51.421635 108.895317,50.835476 108.769363,49.639412 
	C108.617645,48.694092 108.416077,48.358681 108.214500,48.023270 
	C108.107964,46.950478 108.001427,45.877689 108.314163,44.367470 
	C115.722855,37.218632 122.621170,30.408154 129.751968,23.850471 
	C132.191925,21.606628 135.214676,19.996519 137.971161,18.096870 
	C139.122559,18.279022 140.273941,18.461172 141.715179,18.849186 
z"/>
<path fill="#F65742" opacity="1.000000" stroke="none" 
	d="
M58.638145,17.916260 
	C56.198761,20.013411 53.087547,21.580555 50.720486,23.905375 
	C43.518036,30.979298 36.602825,38.345680 29.312588,45.792465 
	C27.123556,29.688061 41.328133,15.970551 58.638145,17.916260 
z"/>
<path fill="#F65742" opacity="1.000000" stroke="none" 
	d="
M137.640320,17.912004 
	C135.214676,19.996519 132.191925,21.606628 129.751968,23.850471 
	C122.621170,30.408154 115.722855,37.218632 108.392738,43.968224 
	C107.352219,28.456503 121.129028,16.082054 137.640320,17.912004 
z"/>
<path fill="#D94230" opacity="1.000000" stroke="none" 
	d="
M120.018494,65.801079 
	C118.423599,64.549919 116.828697,63.298767 115.464157,61.596371 
	C127.803879,49.079987 139.913239,37.014843 152.022583,24.949699 
	C153.333527,26.412558 154.644470,27.875422 155.568909,29.674988 
	C153.929001,30.700735 152.437851,31.149097 151.458893,32.116016 
	C141.588242,41.865299 131.766342,51.664970 122.042435,61.560223 
	C121.004295,62.616650 120.676048,64.370667 120.018494,65.801079 
z"/>
<path fill="#D94230" opacity="1.000000" stroke="none" 
	d="
M73.336662,25.221123 
	C74.532791,26.581472 75.728920,27.941820 76.650139,29.677387 
	C75.551842,30.568043 74.596619,30.950890 73.924812,31.618803 
	C63.847202,41.638126 53.784443,51.672760 43.789036,61.773891 
	C42.659389,62.915485 41.958992,64.481834 41.059547,65.851212 
	C40.173199,65.286499 39.286854,64.721794 38.215393,63.553085 
	C38.513378,61.930927 38.769787,60.692036 39.513802,59.927937 
	C49.547112,49.623772 59.652504,39.389828 69.727219,29.125904 
	C70.968285,27.861530 72.135323,26.524492 73.336662,25.221123 
z"/>
<path fill="#DF4733" opacity="1.000000" stroke="none" 
	d="
M73.202652,24.973827 
	C72.135323,26.524492 70.968285,27.861530 69.727219,29.125904 
	C59.652504,39.389828 49.547112,49.623772 39.513802,59.927937 
	C38.769787,60.692036 38.513378,61.930927 38.026154,63.291332 
	C36.428711,61.958485 34.835407,60.283394 33.171089,58.289436 
	C34.682938,56.863564 36.457355,55.952053 37.818287,54.618549 
	C48.489597,44.162308 59.081676,33.625195 70.025330,22.959181 
	C71.257874,23.445740 72.163254,24.086134 73.202652,24.973827 
z"/>
<path fill="#C23525" opacity="1.000000" stroke="none" 
	d="
M159.011215,37.002228 
	C159.441147,39.803650 159.871063,42.605076 159.897308,45.509979 
	C158.612137,42.573875 157.304443,43.124493 155.491226,44.965855 
	C148.548401,52.016384 141.507645,58.970417 134.550568,66.007050 
	C133.955780,66.608643 133.708664,67.553970 132.985840,68.943710 
	C135.083313,68.943710 136.533478,68.943710 138.008972,69.125961 
	C138.034317,69.308212 138.051498,69.675812 138.051498,69.675812 
	C134.907898,69.639885 131.764313,69.603966 128.308334,68.943817 
	C128.496078,66.931099 128.613998,65.163734 129.556076,64.213341 
	C137.980377,55.714828 146.518875,47.328220 155.118454,39.006519 
	C156.122421,38.034988 157.699707,37.655945 159.011215,37.002228 
z"/>
<path fill="#DF4733" opacity="1.000000" stroke="none" 
	d="
M151.921539,24.672680 
	C139.913239,37.014843 127.803879,49.079987 115.299072,61.288071 
	C114.292862,60.832047 113.682098,60.233082 113.017487,59.370659 
	C113.456558,58.093704 113.724998,56.857533 114.476189,56.100224 
	C125.112556,45.377316 135.806396,34.711292 146.523514,24.068954 
	C147.074066,23.522243 147.960098,23.313385 149.063965,22.872589 
	C150.232162,23.330517 151.026337,23.863087 151.921539,24.672680 
z"/>
<path fill="#CF3C2B" opacity="1.000000" stroke="none" 
	d="
M41.285030,66.101532 
	C41.958992,64.481834 42.659389,62.915485 43.789036,61.773891 
	C53.784443,51.672760 63.847202,41.638126 73.924812,31.618803 
	C74.596619,30.950890 75.551842,30.568043 76.724777,30.014605 
	C77.729614,31.074070 78.384911,32.171535 79.038620,33.600197 
	C75.684425,36.794533 72.177139,39.497505 69.011665,42.554417 
	C62.573311,48.771957 56.259815,55.122715 50.028862,61.548512 
	C48.333138,63.297268 47.115223,65.509346 45.433285,67.718140 
	C43.962540,67.402290 42.736523,66.877075 41.285030,66.101532 
z"/>
<path fill="#CF3C2B" opacity="1.000000" stroke="none" 
	d="
M120.239807,66.030548 
	C120.676048,64.370667 121.004295,62.616650 122.042435,61.560223 
	C131.766342,51.664970 141.588242,41.865299 151.458893,32.116016 
	C152.437851,31.149097 153.929001,30.700735 155.541016,30.007975 
	C156.338242,31.059755 156.776871,32.115253 156.855865,33.562378 
	C154.734772,35.066406 152.690704,35.897373 151.257401,37.336594 
	C141.493866,47.140491 131.858856,57.072399 122.182365,66.962997 
	C121.608620,66.728676 121.034866,66.494354 120.239807,66.030548 
z"/>
<path fill="#C63727" opacity="1.000000" stroke="none" 
	d="
M122.411911,67.215454 
	C131.858856,57.072399 141.493866,47.140491 151.257401,37.336594 
	C152.690704,35.897373 154.734772,35.066406 156.878036,33.920715 
	C157.892288,34.696140 158.524765,35.504856 159.084229,36.657898 
	C157.699707,37.655945 156.122421,38.034988 155.118454,39.006519 
	C146.518875,47.328220 137.980377,55.714828 129.556076,64.213341 
	C128.613998,65.163734 128.496078,66.931099 127.982132,68.694611 
	C126.192688,68.535721 124.417076,68.001823 122.411911,67.215454 
z"/>
<path fill="#B12B1C" opacity="1.000000" stroke="none" 
	d="
M61.545166,68.911484 
	C60.413143,69.029449 59.615353,68.992653 58.447754,68.611893 
	C63.668823,62.395069 69.203331,56.466751 74.889626,50.687778 
	C76.338684,49.215096 78.269196,48.216148 79.980591,47.366093 
	C79.975128,48.709797 79.967583,49.686947 79.960037,50.664097 
	C77.710800,60.470108 71.499672,66.316856 61.545166,68.911484 
z"/>
<path fill="#B12B1C" opacity="1.000000" stroke="none" 
	d="
M138.421051,69.711182 
	C138.051498,69.675812 138.034317,69.308212 138.050842,68.788055 
	C142.968048,63.088417 147.791595,57.832439 152.810364,52.770000 
	C154.621475,50.943111 156.901093,49.580677 159.040466,48.205608 
	C159.241531,48.671833 159.438980,48.868526 159.706390,48.995003 
	C157.032196,60.243927 150.016403,67.116913 138.421051,69.711182 
z"/>
<path fill="#B92E1E" opacity="1.000000" stroke="none" 
	d="
M79.978500,46.999542 
	C78.269196,48.216148 76.338684,49.215096 74.889626,50.687778 
	C69.203331,56.466751 63.668823,62.395069 58.048775,68.606644 
	C56.552521,68.945374 55.085434,68.945374 53.704720,68.945374 
	C53.557240,68.202209 53.331402,67.730209 53.456963,67.601799 
	C61.589378,59.284386 69.735527,50.980125 77.944588,42.738575 
	C78.447945,42.233219 79.468689,42.243195 80.612427,42.012627 
	C81.031792,43.400429 81.087425,44.788994 80.793015,46.583515 
	C80.442970,46.989468 79.978500,46.999542 79.978500,46.999542 
z"/>
<path fill="#B92E1E" opacity="1.000000" stroke="none" 
	d="
M158.966904,48.006298 
	C156.901093,49.580677 154.621475,50.943111 152.810364,52.770000 
	C147.791595,57.832439 142.968048,63.088417 138.025497,68.605804 
	C136.533478,68.943710 135.083313,68.943710 132.985840,68.943710 
	C133.708664,67.553970 133.955780,66.608643 134.550568,66.007050 
	C141.507645,58.970417 148.548401,52.016384 155.491226,44.965855 
	C157.304443,43.124493 158.612137,42.573875 159.751022,45.812553 
	C160.035507,46.457932 160.062576,46.904213 159.748352,47.669937 
	C159.407059,47.989380 158.966904,48.006294 158.966904,48.006298 
z"/>
<path fill="#C63727" opacity="1.000000" stroke="none" 
	d="
M79.980591,47.366096 
	C79.978500,46.999542 80.442970,46.989468 80.675247,46.986652 
	C80.762970,48.069729 80.618416,49.155621 80.216949,50.452805 
	C79.967583,49.686947 79.975128,48.709797 79.980591,47.366096 
z"/>
<path fill="#F65742" opacity="1.000000" stroke="none" 
	d="
M29.147057,48.332718 
	C29.395689,48.360462 29.601982,48.699944 29.786772,49.348331 
	C29.545084,49.319645 29.324902,48.982048 29.147057,48.332718 
z"/>
<path fill="#F65742" opacity="1.000000" stroke="none" 
	d="
M108.172447,48.330765 
	C108.416077,48.358681 108.617645,48.694092 108.802338,49.333698 
	C108.567108,49.304680 108.348747,48.971474 108.172447,48.330765 
z"/>
<path fill="#C23525" opacity="1.000000" stroke="none" 
	d="
M159.040466,48.205605 
	C158.966904,48.006294 159.407059,47.989380 159.627289,47.986824 
	C159.882629,48.160851 159.917725,48.337425 159.829590,48.754501 
	C159.438980,48.868526 159.241531,48.671833 159.040466,48.205605 
z"/>
</svg>