<svg version="1.1" id="Layer_1" xmlns="http://www.w3.org/2000/svg" xmlns:xlink="http://www.w3.org/1999/xlink" x="0px" y="0px"
	 width="100%" viewBox="0 0 413 85" enable-background="new 0 0 413 85" xml:space="preserve">
<path fill="#FFFEFE" opacity="1.000000" stroke="none" 
	d="
M348.000000,86.000000 
	C232.000015,86.000000 116.500031,86.000000 1.000031,86.000000 
	C1.000021,57.666683 1.000021,29.333368 1.000010,1.000039 
	C138.666641,1.000026 276.333282,1.000026 413.999939,1.000013 
	C413.999939,29.333296 413.999939,57.666592 413.999969,85.999939 
	C392.166656,86.000000 370.333344,86.000000 348.000000,86.000000 
M234.083328,47.347610 
	C234.057083,46.902206 234.030838,46.456802 234.299789,45.407597 
	C233.871902,42.606140 233.444016,39.804684 233.157822,36.298222 
	C232.720337,35.202251 232.282837,34.106281 231.804382,32.343552 
	C230.532639,30.564682 229.260910,28.785810 227.791672,26.388287 
	C226.325256,25.185652 224.858841,23.983017 223.004379,22.223116 
	C221.210846,21.391724 219.417328,20.560331 217.054184,19.191048 
	C215.037720,18.793491 213.021255,18.395935 210.358185,17.623999 
	C194.836121,16.704815 181.801208,28.393599 181.888550,43.835903 
	C181.996506,45.231815 182.104446,46.627728 182.128510,48.638519 
	C182.346634,48.972015 182.564774,49.305508 182.716461,50.250736 
	C182.893188,50.837135 183.069931,51.423534 183.260818,52.691887 
	C184.493591,54.826012 185.726349,56.960136 187.135864,59.728729 
	C188.728745,61.237030 190.321640,62.745335 192.244141,64.822670 
	C193.782516,65.707031 195.320908,66.591400 197.323196,67.910622 
	C198.552933,68.230232 199.782669,68.549835 201.747070,69.256187 
	C205.484833,69.343193 209.222580,69.430199 213.676834,69.509781 
	C220.748795,67.521034 226.786560,63.989315 230.515305,57.444809 
	C231.836914,55.125164 232.487610,52.423256 233.835495,49.332439 
	C233.838409,48.881866 233.841324,48.431293 234.083328,47.347610 
M155.098984,47.269279 
	C155.079865,46.522015 155.060745,45.774750 155.316177,44.448898 
	C154.882782,41.967178 154.449387,39.485462 154.162933,36.314201 
	C153.530060,35.504505 152.897186,34.694813 152.216202,33.168976 
	C151.777283,32.113884 151.338364,31.058788 150.954361,29.337877 
	C149.643616,27.875788 148.332855,26.413698 146.819458,24.397285 
	C146.024506,23.864256 145.229538,23.331224 144.017532,22.224606 
	C141.680145,21.168396 139.342773,20.112186 136.391037,18.632618 
	C134.928955,18.421206 133.466873,18.209793 131.358261,17.624008 
	C115.411636,16.692600 102.372612,28.845415 102.895737,44.804733 
	C103.002106,45.877682 103.108475,46.950630 103.130913,48.637951 
	C103.348846,48.971054 103.566772,49.304161 103.720131,50.249054 
	C103.895973,50.835449 104.071823,51.421844 104.264999,52.693504 
	C105.498077,54.830532 106.731148,56.967560 108.072533,59.632153 
	C108.684128,60.232342 109.295731,60.832535 110.236664,62.049000 
	C111.829811,63.299335 113.422951,64.549667 115.432373,66.242790 
	C116.161659,66.553505 116.890953,66.864220 118.119255,67.706169 
	C119.736885,68.162880 121.354523,68.619598 123.626823,69.569878 
	C126.767288,69.606186 129.907745,69.642494 133.783752,69.748840 
	C145.015991,67.122574 152.038589,60.252110 154.952454,48.511311 
	C154.916870,48.334835 154.881302,48.158360 155.098984,47.269279 
M76.140251,46.176231 
	C76.084862,44.788578 76.029465,43.400928 76.135399,41.222382 
	C75.435806,38.792320 74.736214,36.362259 74.039459,33.269554 
	C73.383232,32.172520 72.727005,31.075483 71.941795,29.341810 
	C70.967766,28.225855 69.993729,27.109900 68.808350,25.409096 
	C67.676239,24.557877 66.544121,23.706656 65.002274,22.270134 
	C62.670803,21.202778 60.339333,20.135424 57.390732,18.648832 
	C55.928116,18.433361 54.465504,18.217890 52.355721,17.628859 
	C36.367657,16.660267 23.379000,28.742224 23.842371,44.802135 
	C23.958160,45.875172 24.073952,46.948212 24.105251,48.644138 
	C24.325014,48.981655 24.544777,49.319176 24.664108,50.261818 
	C24.842291,50.844517 25.020473,51.427216 25.187969,52.693687 
	C26.158951,54.451317 27.129932,56.208946 28.241703,58.605431 
	C29.834902,60.279488 31.428101,61.953545 33.436405,64.178581 
	C34.586891,64.902840 35.737377,65.627098 37.302628,66.847298 
	C38.511368,67.296341 39.720104,67.745392 41.495934,68.711052 
	C46.400597,68.829315 51.305256,68.947578 56.878601,68.756485 
	C66.499626,66.317032 72.707283,60.466423 75.473366,50.240246 
	C75.617455,49.154236 75.761543,48.068226 76.140251,46.176231 
z"/>
<path fill="#E74B37" opacity="1.000000" stroke="none" 
	d="
M217.623795,19.728939 
	C219.417328,20.560331 221.210846,21.391724 222.868286,22.658175 
	C210.807831,35.093578 198.883469,47.093922 186.959106,59.094265 
	C185.726349,56.960136 184.493591,54.826012 183.580719,52.303146 
	C190.680466,45.362934 197.436340,38.786438 204.248688,32.268951 
	C208.664398,28.044359 213.162567,23.905958 217.623795,19.728939 
z"/>
<path fill="#EE4F3A" opacity="1.000000" stroke="none" 
	d="
M25.198658,52.009914 
	C25.020473,51.427216 24.842291,50.844517 24.735962,49.650555 
	C24.601791,48.699944 24.395767,48.360596 24.189743,48.021248 
	C24.073952,46.948212 23.958160,45.875172 24.266575,44.367355 
	C29.838894,39.075729 34.938065,34.165588 40.150509,29.378805 
	C44.363819,25.509563 48.713627,21.788956 53.002884,18.002415 
	C54.465504,18.217890 55.928116,18.433361 57.693352,19.218773 
	C57.305332,21.050550 56.857262,22.551441 55.886139,23.536871 
	C47.145187,32.406597 38.350559,41.224754 29.456669,49.940681 
	C28.387856,50.988106 26.634653,51.337166 25.198658,52.009914 
z"/>
<path fill="#C63727" opacity="1.000000" stroke="none" 
	d="
M74.036629,33.932198 
	C74.736214,36.362259 75.435806,38.792320 75.691177,41.618397 
	C74.467148,42.244370 73.446800,42.234722 72.943443,42.740044 
	C64.735329,50.980179 56.590084,59.282986 48.458534,67.598915 
	C48.332375,67.727928 48.556957,68.199905 48.702011,68.942848 
	C50.089382,68.942848 51.553364,68.942848 53.416473,68.948868 
	C54.613705,68.991875 55.411812,69.028862 56.209919,69.065842 
	C51.305256,68.947578 46.400597,68.829315 41.234550,68.074677 
	C41.969536,65.804832 42.705559,63.918232 44.006126,62.580494 
	C50.585911,55.812706 57.238621,49.111332 64.020226,42.546234 
	C67.178696,39.488605 70.686935,36.792294 74.036629,33.932198 
z"/>
<path fill="#DE4532" opacity="1.000000" stroke="none" 
	d="
M187.047485,59.411499 
	C198.883469,47.093922 210.807831,35.093578 223.062317,22.936808 
	C224.858841,23.983017 226.325256,25.185652 227.581543,26.833515 
	C226.268631,28.000978 225.004761,28.560822 224.087814,29.470388 
	C214.195038,39.283470 204.307068,49.102909 194.563339,59.062984 
	C193.266663,60.388451 192.777603,62.503979 191.914536,64.253632 
	C190.321640,62.745335 188.728745,61.237030 187.047485,59.411499 
z"/>
<path fill="#D43F2D" opacity="1.000000" stroke="none" 
	d="
M192.079346,64.538147 
	C192.777603,62.503979 193.266663,60.388451 194.563339,59.062984 
	C204.307068,49.102909 214.195038,39.283470 224.087814,29.470388 
	C225.004761,28.560822 226.268631,28.000978 227.680298,27.142841 
	C229.260910,28.785810 230.532639,30.564682 231.453186,32.675903 
	C229.399796,33.840511 227.341202,34.307308 226.052780,35.563843 
	C217.141693,44.254433 208.328705,53.048939 199.653091,61.974251 
	C198.284119,63.382633 197.769135,65.621101 196.859283,67.475769 
	C195.320908,66.591400 193.782516,65.707031 192.079346,64.538147 
z"/>
<path fill="#E84C38" opacity="1.000000" stroke="none" 
	d="
M107.964218,59.104584 
	C106.731148,56.967560 105.498077,54.830532 104.583206,52.303192 
	C115.412781,41.586132 125.931602,31.266922 136.407623,20.904448 
	C136.816391,20.500107 136.815430,19.681534 137.005386,19.055977 
	C139.342773,20.112186 141.680145,21.168396 143.852356,22.586222 
	C142.957626,23.314333 142.072113,23.523811 141.521530,24.070557 
	C130.805664,34.711792 120.112991,45.376656 109.477760,56.098362 
	C108.726524,56.855701 108.457489,58.091351 107.964218,59.104584 
z"/>
<path fill="#EE4F3A" opacity="1.000000" stroke="none" 
	d="
M217.338989,19.459993 
	C213.162567,23.905958 208.664398,28.044359 204.248688,32.268951 
	C197.436340,38.786438 190.680466,45.362934 183.573654,51.962170 
	C183.069931,51.423534 182.893188,50.837135 182.767151,49.640476 
	C182.616013,48.694691 182.414215,48.359165 182.212402,48.023640 
	C182.104446,46.627728 181.996506,45.231815 182.331848,43.414902 
	C185.087997,41.257099 187.554199,39.689091 189.685760,37.752701 
	C196.856323,31.238632 203.907776,24.593418 211.004791,17.998379 
	C213.021255,18.395935 215.037720,18.793491 217.338989,19.459993 
z"/>
<path fill="#EE4F3A" opacity="1.000000" stroke="none" 
	d="
M136.698212,18.844296 
	C136.815430,19.681534 136.816391,20.500107 136.407623,20.904448 
	C125.931602,31.266922 115.412781,41.586132 104.574539,51.960556 
	C104.071823,51.421844 103.895973,50.835449 103.769463,49.639187 
	C103.617477,48.694073 103.416168,48.358826 103.214851,48.023579 
	C103.108475,46.950630 103.002106,45.877682 103.314697,44.367180 
	C108.872345,39.068901 113.960190,34.152901 119.165718,29.364824 
	C123.371826,25.496016 127.719765,21.781397 132.004791,17.998379 
	C133.466873,18.209793 134.928955,18.421206 136.698212,18.844296 
z"/>
<path fill="#DF4734" opacity="1.000000" stroke="none" 
	d="
M33.021301,63.627602 
	C31.428101,61.953545 29.834902,60.279488 28.461170,58.137539 
	C39.174629,47.225533 49.635201,36.747375 60.201050,26.376467 
	C61.672451,24.932215 63.662209,24.016056 65.412010,22.855434 
	C66.544121,23.706656 67.676239,24.557877 68.610718,25.848339 
	C66.826263,27.474998 65.074760,28.495960 63.679153,29.876656 
	C54.121521,39.332157 44.580799,48.806892 35.202072,58.438480 
	C33.983734,59.689671 33.724689,61.874977 33.021301,63.627602 
z"/>
<path fill="#D94230" opacity="1.000000" stroke="none" 
	d="
M147.022110,24.951607 
	C148.332855,26.413698 149.643616,27.875788 150.568314,29.674597 
	C148.928802,30.700365 147.437607,31.148724 146.458618,32.115669 
	C136.588120,41.864807 126.766403,51.664379 117.042542,61.559418 
	C116.004036,62.616203 115.674507,64.369705 115.016098,65.800003 
	C113.422951,64.549667 111.829811,63.299335 110.466927,61.597015 
	C122.805496,49.080559 134.913803,37.016083 147.022110,24.951607 
z"/>
<path fill="#F65842" opacity="1.000000" stroke="none" 
	d="
M52.679302,17.815636 
	C48.713627,21.788956 44.363819,25.509563 40.150509,29.378805 
	C34.938065,34.165588 29.838894,39.075729 24.346439,43.967888 
	C23.379000,28.742224 36.367657,16.660267 52.679302,17.815636 
z"/>
<path fill="#D7412F" opacity="1.000000" stroke="none" 
	d="
M33.228851,63.903091 
	C33.724689,61.874977 33.983734,59.689671 35.202072,58.438480 
	C44.580799,48.806892 54.121521,39.332157 63.679153,29.876656 
	C65.074760,28.495960 66.826263,27.474998 68.716393,26.140762 
	C69.993729,27.109900 70.967766,28.225855 71.657013,29.697840 
	C70.788193,30.345907 70.078339,30.511370 69.638573,30.948530 
	C59.282753,41.242981 48.916920,51.528278 38.684307,61.944324 
	C37.655830,62.991234 37.466591,64.862602 36.887867,66.351349 
	C35.737377,65.627098 34.586891,64.902840 33.228851,63.903091 
z"/>
<path fill="#F65842" opacity="1.000000" stroke="none" 
	d="
M131.681519,17.811192 
	C127.719765,21.781397 123.371826,25.496016 119.165718,29.364824 
	C113.960190,34.152901 108.872345,39.068901 103.393013,43.967850 
	C102.372612,28.845415 115.411636,16.692600 131.681519,17.811192 
z"/>
<path fill="#E74B37" opacity="1.000000" stroke="none" 
	d="
M65.207138,22.562782 
	C63.662209,24.016056 61.672451,24.932215 60.201050,26.376467 
	C49.635201,36.747375 39.174629,47.225533 28.390778,57.818111 
	C27.129932,56.208946 26.158951,54.451317 25.193314,52.351799 
	C26.634653,51.337166 28.387856,50.988106 29.456669,49.940681 
	C38.350559,41.224754 47.145187,32.406597 55.886139,23.536871 
	C56.857262,22.551441 57.305332,21.050550 58.001919,19.428391 
	C60.339333,20.135424 62.670803,21.202778 65.207138,22.562782 
z"/>
<path fill="#F65842" opacity="1.000000" stroke="none" 
	d="
M210.681488,17.811188 
	C203.907776,24.593418 196.856323,31.238632 189.685760,37.752701 
	C187.554199,39.689091 185.087997,41.257099 182.413605,43.000408 
	C181.801208,28.393599 194.836121,16.704815 210.681488,17.811188 
z"/>
<path fill="#C33625" opacity="1.000000" stroke="none" 
	d="
M233.016144,37.003227 
	C233.444016,39.804684 233.871902,42.606140 233.895523,45.509678 
	C232.769913,43.455204 231.885788,42.527958 229.836502,44.620258 
	C222.562592,52.046886 215.182571,59.369537 207.883087,66.771347 
	C207.520432,67.139099 207.537384,67.881203 207.249527,68.903969 
	C209.110245,68.903969 210.562515,68.903969 212.196442,68.966278 
	C212.621231,69.133011 212.815308,69.295883 212.960342,69.517204 
	C209.222580,69.430199 205.484833,69.343193 201.381653,68.706184 
	C201.364655,67.261314 201.477448,66.133728 202.096893,65.506592 
	C211.029724,56.462830 219.994736,47.449715 229.069656,38.549179 
	C229.997772,37.638901 231.682495,37.500053 233.016144,37.003227 
z"/>
<path fill="#C23525" opacity="1.000000" stroke="none" 
	d="
M154.015991,37.003746 
	C154.449387,39.485462 154.882782,41.967178 154.912018,44.561218 
	C152.744629,41.977642 151.521439,44.004482 150.307739,45.211044 
	C143.489868,51.988804 136.687927,58.782852 129.927399,65.617668 
	C129.207275,66.345711 128.790985,67.374275 127.809830,68.939850 
	C130.065704,68.939850 131.521896,68.939850 133.002792,69.123901 
	C133.027496,69.307961 133.048218,69.678802 133.048218,69.678802 
	C129.907745,69.642494 126.767288,69.606186 123.307533,68.936157 
	C123.774956,66.585777 124.173386,64.493195 125.411896,63.213943 
	C132.999100,55.377102 140.714447,47.660389 148.546585,40.068180 
	C149.996994,38.662201 152.174210,38.006004 154.015991,37.003746 
z"/>
<path fill="#E04633" opacity="1.000000" stroke="none" 
	d="
M146.920776,24.674446 
	C134.913803,37.016083 122.805496,49.080559 110.302261,61.288879 
	C109.295731,60.832535 108.684128,60.232342 108.018379,59.368370 
	C108.457489,58.091351 108.726524,56.855701 109.477760,56.098362 
	C120.112991,45.376656 130.805664,34.711792 141.521530,24.070557 
	C142.072113,23.523811 142.957626,23.314333 144.060883,22.873016 
	C145.229538,23.331224 146.024506,23.864256 146.920776,24.674446 
z"/>
<path fill="#CF3C2B" opacity="1.000000" stroke="none" 
	d="
M37.095245,66.599319 
	C37.466591,64.862602 37.655830,62.991234 38.684307,61.944324 
	C48.916920,51.528278 59.282753,41.242981 69.638573,30.948530 
	C70.078339,30.511370 70.788193,30.345907 71.721497,30.016159 
	C72.727005,31.075483 73.383232,32.172520 74.038040,33.600876 
	C70.686935,36.792294 67.178696,39.488605 64.020226,42.546234 
	C57.238621,49.111332 50.585911,55.812706 44.006126,62.580494 
	C42.705559,63.918232 41.969536,65.804832 40.951004,67.816376 
	C39.720104,67.745392 38.511368,67.296341 37.095245,66.599319 
z"/>
<path fill="#CA3928" opacity="1.000000" stroke="none" 
	d="
M233.086975,36.650726 
	C231.682495,37.500053 229.997772,37.638901 229.069656,38.549179 
	C219.994736,47.449715 211.029724,56.462830 202.096893,65.506592 
	C201.477448,66.133728 201.364655,67.261314 201.014328,68.512817 
	C199.782669,68.549835 198.552933,68.230232 197.091248,67.693192 
	C197.769135,65.621101 198.284119,63.382633 199.653091,61.974251 
	C208.328705,53.048939 217.141693,44.254433 226.052780,35.563843 
	C227.341202,34.307308 229.399796,33.840511 231.473663,33.009281 
	C232.282837,34.106281 232.720337,35.202251 233.086975,36.650726 
z"/>
<path fill="#D13D2B" opacity="1.000000" stroke="none" 
	d="
M115.224236,66.021393 
	C115.674507,64.369705 116.004036,62.616203 117.042542,61.559418 
	C126.766403,51.664379 136.588120,41.864807 146.458618,32.115669 
	C147.437607,31.148724 148.928802,30.700365 150.540863,30.007505 
	C151.338364,31.058788 151.777283,32.113884 151.858154,33.560436 
	C150.578018,34.249802 149.373154,34.272594 148.775864,34.886513 
	C138.346420,45.606297 127.991440,56.398506 117.620239,67.174942 
	C116.890953,66.864220 116.161659,66.553505 115.224236,66.021393 
z"/>
<path fill="#B22C1D" opacity="1.000000" stroke="none" 
	d="
M213.318588,69.513489 
	C212.815308,69.295883 212.621231,69.133011 212.195709,68.611313 
	C218.499100,61.481430 224.976501,54.760666 231.501999,48.086906 
	C231.754929,47.828247 232.469269,48.020737 232.976013,48.254265 
	C233.137131,48.968979 233.290863,49.432419 233.444595,49.895859 
	C232.487610,52.423256 231.836914,55.125164 230.515305,57.444809 
	C226.786560,63.989315 220.748795,67.521034 213.318588,69.513489 
z"/>
<path fill="#CA3928" opacity="1.000000" stroke="none" 
	d="
M117.869751,67.440559 
	C127.991440,56.398506 138.346420,45.606297 148.775864,34.886513 
	C149.373154,34.272594 150.578018,34.249802 151.882233,33.918507 
	C152.897186,34.694813 153.530060,35.504505 154.089447,36.658974 
	C152.174210,38.006004 149.996994,38.662201 148.546585,40.068180 
	C140.714447,47.660389 132.999100,55.377102 125.411896,63.213943 
	C124.173386,64.493195 123.774956,66.585777 122.980194,68.689377 
	C121.354523,68.619598 119.736885,68.162880 117.869751,67.440559 
z"/>
<path fill="#B12B1C" opacity="1.000000" stroke="none" 
	d="
M56.544258,68.911163 
	C55.411812,69.028862 54.613705,68.991875 53.446732,68.610489 
	C58.668602,62.394096 64.203064,56.466743 69.889046,50.688477 
	C71.338219,49.215782 73.267990,48.216000 74.979584,47.365486 
	C74.974800,48.709164 74.967384,49.686283 74.959976,50.663406 
	C72.707283,60.466423 66.499626,66.317032 56.544258,68.911163 
z"/>
<path fill="#B22C1D" opacity="1.000000" stroke="none" 
	d="
M133.415985,69.713821 
	C133.048218,69.678802 133.027496,69.307961 133.047028,68.786606 
	C137.968063,63.086315 142.792572,57.831017 147.811966,52.768951 
	C149.623505,50.942001 151.902695,49.578739 154.044189,48.202095 
	C154.249527,48.664452 154.445938,48.862297 154.709122,48.993847 
	C152.038589,60.252110 145.015991,67.122574 133.415985,69.713821 
z"/>
<path fill="#B82D1E" opacity="1.000000" stroke="none" 
	d="
M74.976944,46.998932 
	C73.267990,48.216000 71.338219,49.215782 69.889046,50.688477 
	C64.203064,56.466743 58.668602,62.394096 53.047604,68.604462 
	C51.553364,68.942848 50.089382,68.942848 48.702011,68.942848 
	C48.556957,68.199905 48.332375,67.727928 48.458534,67.598915 
	C56.590084,59.282986 64.735329,50.980179 72.943443,42.740044 
	C73.446800,42.234722 74.467148,42.244370 75.610504,42.013844 
	C76.029465,43.400928 76.084862,44.788578 75.790741,46.582222 
	C75.441231,46.988209 74.976944,46.998932 74.976944,46.998932 
z"/>
<path fill="#B82D1E" opacity="1.000000" stroke="none" 
	d="
M153.968475,48.003883 
	C151.902695,49.578739 149.623505,50.942001 147.811966,52.768951 
	C142.792572,57.831017 137.968063,63.086315 133.022308,68.602554 
	C131.521896,68.939850 130.065704,68.939850 127.809830,68.939850 
	C128.790985,67.374275 129.207275,66.345711 129.927399,65.617668 
	C136.687927,58.782852 143.489868,51.988804 150.307739,45.211044 
	C151.521439,44.004482 152.744629,41.977642 154.774750,44.850513 
	C155.060745,45.774750 155.079865,46.522015 154.752960,47.628086 
	C154.406952,47.986893 153.968475,48.003883 153.968475,48.003883 
z"/>
<path fill="#B82D1E" opacity="1.000000" stroke="none" 
	d="
M232.968597,48.002998 
	C232.469269,48.020737 231.754929,47.828247 231.501999,48.086906 
	C224.976501,54.760666 218.499100,61.481430 212.014069,68.549004 
	C210.562515,68.903969 209.110245,68.903969 207.249527,68.903969 
	C207.537384,67.881203 207.520432,67.139099 207.883087,66.771347 
	C215.182571,59.369537 222.562592,52.046886 229.836502,44.620258 
	C231.885788,42.527958 232.769913,43.455204 233.747925,45.811577 
	C234.030838,46.456802 234.057083,46.902206 233.744781,47.666813 
	C233.406250,47.986015 232.968597,48.002998 232.968597,48.002998 
z"/>
<path fill="#C63727" opacity="1.000000" stroke="none" 
	d="
M74.979584,47.365486 
	C74.976944,46.998932 75.441231,46.988209 75.673431,46.985214 
	C75.761543,48.068226 75.617455,49.154236 75.216667,50.451828 
	C74.967384,49.686283 74.974800,48.709164 74.979584,47.365486 
z"/>
<path fill="#C33625" opacity="1.000000" stroke="none" 
	d="
M232.976013,48.254265 
	C232.968597,48.002998 233.406250,47.986015 233.625244,47.983368 
	C233.841324,48.431293 233.838409,48.881866 233.640045,49.614151 
	C233.290863,49.432419 233.137131,48.968979 232.976013,48.254265 
z"/>
<path fill="#F65842" opacity="1.000000" stroke="none" 
	d="
M24.147497,48.332695 
	C24.395767,48.360596 24.601791,48.699944 24.786177,49.347992 
	C24.544777,49.319176 24.325014,48.981655 24.147497,48.332695 
z"/>
<path fill="#F65842" opacity="1.000000" stroke="none" 
	d="
M103.172882,48.330765 
	C103.416168,48.358826 103.617477,48.694073 103.801743,49.333294 
	C103.566772,49.304161 103.348846,48.971054 103.172882,48.330765 
z"/>
<path fill="#C23525" opacity="1.000000" stroke="none" 
	d="
M154.044189,48.202095 
	C153.968475,48.003883 154.406952,47.986893 154.626343,47.984390 
	C154.881302,48.158360 154.916870,48.334835 154.830780,48.752579 
	C154.445938,48.862297 154.249527,48.664452 154.044189,48.202095 
z"/>
<path fill="#F65842" opacity="1.000000" stroke="none" 
	d="
M182.170471,48.331078 
	C182.414215,48.359165 182.616013,48.694691 182.800369,49.334610 
	C182.564774,49.305508 182.346634,48.972015 182.170471,48.331078 
z"/>
</svg>