<svg version="1.1" id="Layer_1" xmlns="http://www.w3.org/2000/svg" xmlns:xlink="http://www.w3.org/1999/xlink" x="0px" y="0px"
	 width="100%" viewBox="0 0 413 85" enable-background="new 0 0 413 85" xml:space="preserve">
<path fill="#F5F4DA" opacity="1.000000" stroke="none" 
	d="
M348.000000,86.000000 
	C232.000015,86.000000 116.500031,86.000000 1.000031,86.000000 
	C1.000021,57.666683 1.000021,29.333368 1.000010,1.000039 
	C138.666641,1.000026 276.333282,1.000026 413.999939,1.000013 
	C413.999939,29.333296 413.999939,57.666592 413.999969,85.999939 
	C392.166656,86.000000 370.333344,86.000000 348.000000,86.000000 
M146.998978,26.000952 
	C146.998978,26.000952 147.085373,26.000511 146.944839,25.463345 
	C146.630005,25.288454 146.315186,25.113564 145.814178,24.315723 
	C144.531174,23.592983 143.248169,22.870241 141.345505,21.744783 
	C139.314087,21.108107 137.282669,20.471430 134.963150,19.081652 
	C126.626564,16.077541 116.569946,19.182892 109.613441,26.909311 
	C103.149940,34.088150 101.458427,44.685246 105.493370,53.660339 
	C105.493370,53.660339 105.802292,54.002846 105.812042,54.708717 
	C106.442413,55.639320 107.072784,56.569923 107.691902,57.837845 
	C107.691902,57.837845 107.936790,58.070087 107.972107,58.590027 
	C108.225983,58.809761 108.479858,59.029495 108.874550,59.915924 
	C110.908623,61.622692 112.942703,63.329464 115.359276,65.594070 
	C117.908318,66.397133 120.457352,67.200188 123.743240,68.093590 
	C125.511818,68.106308 127.280403,68.119026 129.844315,68.037987 
	C130.892593,68.035789 131.940887,68.033585 133.825394,68.122231 
	C148.809372,67.742218 158.553070,50.349926 152.886230,34.495968 
	C152.594681,33.992294 152.303131,33.488621 151.985199,32.343086 
	C151.292786,31.321478 150.600357,30.299870 149.938156,29.085270 
	C149.938156,29.085270 149.742966,29.077734 149.628174,28.506092 
	C149.089478,27.983381 148.550797,27.460672 147.999344,27.001482 
	C147.999344,27.001482 148.064102,27.003443 147.915909,26.465969 
	C147.610016,26.282166 147.304108,26.098364 146.998978,26.000952 
M35.954384,65.051735 
	C35.954384,65.051735 35.879330,65.076416 36.165131,65.648956 
	C36.770638,65.817947 37.376144,65.986938 37.965279,66.052094 
	C37.965279,66.052094 37.864532,66.082092 38.264118,66.690605 
	C52.882851,75.409874 73.462456,64.671371 75.179504,47.725155 
	C75.472832,44.830132 74.469040,41.803677 74.057831,38.086155 
	C73.395966,36.312263 72.734108,34.538372 72.113815,32.075329 
	C71.103661,30.625296 70.093513,29.175264 69.009132,27.272020 
	C68.839630,26.977324 68.584885,26.828682 68.174187,26.127930 
	C65.826973,24.381887 63.479759,22.635845 60.709805,20.294294 
	C50.483250,15.817640 39.948212,17.711700 31.872257,25.478903 
	C24.557842,32.513680 22.278111,43.272572 26.107779,53.471272 
	C26.865065,54.727776 27.622351,55.984276 28.546253,57.938805 
	C28.827099,58.321671 29.107943,58.704540 29.376625,59.403214 
	C29.376625,59.403214 29.609314,59.617207 29.609314,59.617207 
	C29.609314,59.617207 29.923466,59.579517 30.422760,60.054798 
	C31.220219,60.400078 32.017677,60.745358 33.084053,61.670197 
	C33.709896,62.462624 34.335739,63.255051 35.118717,64.554779 
	C35.399254,64.746689 35.679790,64.938606 35.954384,65.051735 
M233.037918,44.255177 
	C232.820755,42.540146 232.603577,40.825111 232.954346,38.663139 
	C231.327621,35.377377 229.700897,32.091614 228.077774,28.113449 
	C226.412384,26.713074 224.746979,25.312698 222.860428,23.374203 
	C222.273315,22.886744 221.686203,22.399286 220.689575,21.307846 
	C218.154556,20.463430 215.619522,19.619017 212.397034,18.324955 
	C210.253784,18.217840 208.096024,17.895073 205.969604,18.038141 
	C190.640793,19.069490 178.896072,35.085011 183.199188,49.610622 
	C184.730331,52.448402 186.261459,55.286179 187.743805,58.853092 
	C189.794189,60.914959 191.844559,62.976830 194.340454,65.577263 
	C196.536179,66.413033 198.731903,67.248795 201.362473,68.709549 
	C209.088531,71.045776 216.353485,69.652687 222.717636,65.057175 
	C229.390045,60.239086 234.191727,54.066975 233.037918,44.255177 
z"/>
<path fill="#EE5843" opacity="1.000000" stroke="none" 
	d="
M183.295822,48.856216 
	C178.896072,35.085011 190.640793,19.069490 205.969604,18.038141 
	C208.096024,17.895073 210.253784,18.217840 212.714630,18.955284 
	C212.659882,20.616278 212.547226,22.314474 211.875565,22.575781 
	C203.950333,25.659019 199.763687,32.870586 194.200241,38.503811 
	C192.589996,40.134258 192.035065,42.806946 190.992554,45.389210 
	C190.977600,48.631939 190.071274,49.673073 187.105728,48.217518 
	C186.166519,47.756527 184.583969,48.606293 183.295822,48.856216 
M208.154297,20.727318 
	C208.059113,20.727957 207.963943,20.728598 208.154297,20.727318 
z"/>
<path fill="#EE5A46" opacity="1.000000" stroke="none" 
	d="
M105.415977,53.205639 
	C101.458427,44.685246 103.149940,34.088150 109.613441,26.909311 
	C116.569946,19.182892 126.626564,16.077541 134.773087,19.619116 
	C128.317505,24.249798 122.120583,28.361221 117.690445,34.668747 
	C116.209923,36.776688 113.862831,38.282867 111.883484,40.032009 
	C108.628967,42.907997 104.733177,45.416069 106.660065,50.868313 
	C106.858788,51.430630 105.859421,52.416370 105.415977,53.205639 
z"/>
<path fill="#ED5A45" opacity="1.000000" stroke="none" 
	d="
M26.080111,52.814148 
	C22.278111,43.272572 24.557842,32.513680 31.872257,25.478903 
	C39.948212,17.711700 50.483250,15.817640 60.566841,20.637133 
	C59.947365,21.000446 59.470860,21.020922 58.640144,20.987581 
	C56.754269,20.353899 55.222595,19.774033 54.134579,19.362127 
	C48.955853,24.388275 44.190060,29.297520 39.100380,33.844200 
	C36.167000,36.464630 32.613117,38.376396 29.513123,40.827915 
	C25.577030,43.940632 26.297035,48.547710 26.080111,52.814148 
z"/>
<path fill="#EA4E39" opacity="1.000000" stroke="none" 
	d="
M105.454674,53.432991 
	C105.859421,52.416370 106.858788,51.430630 106.660065,50.868313 
	C104.733177,45.416069 108.628967,42.907997 111.883484,40.032009 
	C113.862831,38.282867 116.209923,36.776688 117.690445,34.668747 
	C122.120583,28.361221 128.317505,24.249798 134.917145,19.995667 
	C137.282669,20.471430 139.314087,21.108107 141.663910,22.253719 
	C141.983337,23.173145 141.984344,23.583632 141.614838,24.004478 
	C140.355469,24.381237 139.262192,24.532177 138.611465,25.149559 
	C134.843674,28.724308 131.196472,32.425663 127.477852,36.052803 
	C120.990593,42.380478 114.481117,48.685364 107.707397,54.877983 
	C106.889992,54.505062 106.346146,54.253956 105.802292,54.002846 
	C105.802292,54.002846 105.493370,53.660339 105.454674,53.432991 
z"/>
<path fill="#CA3C2A" opacity="1.000000" stroke="none" 
	d="
M228.074158,28.805849 
	C229.700897,32.091614 231.327621,35.377377 232.280060,38.856766 
	C230.040131,38.853718 228.474518,38.657043 227.879776,38.582329 
	C226.112610,41.203117 225.106049,43.236301 223.613312,44.807598 
	C219.255051,49.395210 214.550476,53.659405 210.285751,58.328152 
	C207.879166,60.962746 206.071426,64.144356 203.694031,67.204254 
	C202.571976,67.580811 201.749802,67.832687 200.927628,68.084557 
	C198.731903,67.248795 196.536179,66.413033 194.426270,65.156082 
	C200.716934,58.611839 207.110336,52.665638 213.070099,46.312660 
	C218.323059,40.713097 223.091675,34.659149 228.074158,28.805849 
z"/>
<path fill="#E94F3B" opacity="1.000000" stroke="none" 
	d="
M26.093945,53.142708 
	C26.297035,48.547710 25.577030,43.940632 29.513123,40.827915 
	C32.613117,38.376396 36.167000,36.464630 39.100380,33.844200 
	C44.190060,29.297520 48.955853,24.388275 54.134579,19.362127 
	C55.222595,19.774033 56.754269,20.353899 58.588470,21.371172 
	C58.529903,25.632973 56.641727,27.831551 53.060455,27.418253 
	C51.977974,29.686321 51.549545,32.019016 50.152256,33.266537 
	C43.643242,39.077869 36.705860,44.401726 32.624264,52.470356 
	C31.695484,54.306396 29.819595,55.663326 28.379637,57.240780 
	C27.622351,55.984276 26.865065,54.727776 26.093945,53.142708 
z"/>
<path fill="#D64332" opacity="1.000000" stroke="none" 
	d="
M141.985352,23.994118 
	C141.984344,23.583632 141.983337,23.173145 141.973755,22.455078 
	C143.248169,22.870241 144.531174,23.592983 146.047424,24.842962 
	C146.548889,25.580305 146.817139,25.790409 147.085373,26.000511 
	C147.085373,26.000511 146.998978,26.000952 147.134003,26.178020 
	C147.534042,26.571207 147.799072,26.787323 148.064102,27.003441 
	C148.064102,27.003443 147.999344,27.001482 148.052521,27.269363 
	C148.651459,28.050741 149.197220,28.564236 149.742966,29.077732 
	C149.742966,29.077734 149.938156,29.085270 149.971588,29.550808 
	C150.008469,31.009735 150.011932,32.003128 149.638443,32.997597 
	C147.909515,33.735401 146.344193,34.238060 145.238998,35.245522 
	C135.514618,44.109985 125.851509,53.042274 116.246803,62.036221 
	C115.522324,62.714638 115.386330,64.021507 114.976776,65.036232 
	C112.942703,63.329464 110.908623,61.622692 108.881149,59.269424 
	C108.896065,58.407990 108.904381,58.193058 109.123703,57.771824 
	C111.468910,57.231274 113.958710,57.471203 115.650848,56.423199 
	C117.973007,54.985004 119.656189,52.535053 121.673599,50.581032 
	C127.349495,45.083473 133.173981,39.732693 138.690445,34.080578 
	C140.769135,31.950779 142.277206,29.216496 143.748886,26.591528 
	C143.977615,26.183537 142.613098,24.882294 141.985352,23.994118 
z"/>
<path fill="#E24936" opacity="1.000000" stroke="none" 
	d="
M28.462944,57.589790 
	C29.819595,55.663326 31.695484,54.306396 32.624264,52.470356 
	C36.705860,44.401726 43.643242,39.077869 50.152256,33.266537 
	C51.549545,32.019016 51.977974,29.686321 53.060455,27.418253 
	C56.641727,27.831551 58.529903,25.632973 58.942680,21.424988 
	C59.470860,21.020922 59.947365,21.000446 60.778214,20.934887 
	C63.479759,22.635845 65.826973,24.381887 67.881897,26.655899 
	C62.046509,29.500368 57.503189,32.899235 53.608768,37.662937 
	C49.453697,42.745468 44.691113,47.527946 39.455780,51.458466 
	C36.212776,53.893200 34.589054,56.144802 34.720795,60.123657 
	C33.899643,60.529640 33.357388,60.810139 32.815136,61.090637 
	C32.017677,60.745358 31.220219,60.400078 30.106419,59.712757 
	C29.790075,59.370716 29.388786,59.087406 29.388786,59.087406 
	C29.107943,58.704540 28.827099,58.321671 28.462944,57.589790 
z"/>
<path fill="#E14834" opacity="1.000000" stroke="none" 
	d="
M141.614838,24.004478 
	C142.613098,24.882294 143.977615,26.183537 143.748886,26.591528 
	C142.277206,29.216496 140.769135,31.950779 138.690445,34.080578 
	C133.173981,39.732693 127.349495,45.083473 121.673599,50.581032 
	C119.656189,52.535053 117.973007,54.985004 115.650848,56.423199 
	C113.958710,57.471203 111.468910,57.231274 108.879578,57.787766 
	C108.424438,58.010017 107.936790,58.070087 107.936790,58.070087 
	C107.936790,58.070087 107.691902,57.837845 107.787567,57.256836 
	C107.915802,56.117157 107.948380,55.558479 107.980957,54.999802 
	C114.481117,48.685364 120.990593,42.380478 127.477852,36.052803 
	C131.196472,32.425663 134.843674,28.724308 138.611465,25.149559 
	C139.262192,24.532177 140.355469,24.381237 141.614838,24.004478 
z"/>
<path fill="#CE3D2B" opacity="1.000000" stroke="none" 
	d="
M32.949593,61.380417 
	C33.357388,60.810139 33.899643,60.529640 35.031517,60.287277 
	C36.709538,60.908054 37.797943,61.490692 38.520912,61.877708 
	C40.360260,59.329308 41.607658,56.992718 43.407963,55.216545 
	C49.759670,48.949978 56.688129,43.217953 62.577892,36.558064 
	C64.904259,33.927517 69.467888,32.471504 69.083359,27.725231 
	C70.093513,29.175264 71.103661,30.625296 72.069267,32.806355 
	C69.737175,36.769562 67.813377,40.355045 65.087524,43.161510 
	C59.126144,49.299191 52.682255,54.965744 46.616497,61.006527 
	C45.346767,62.271034 44.857773,64.319504 44.010017,66.261597 
	C44.013390,66.686440 44.015743,66.856400 43.660332,66.871429 
	C41.489887,66.505035 39.677212,66.293564 37.864532,66.082092 
	C37.864532,66.082092 37.965279,66.052094 37.803383,65.835678 
	C37.054100,65.438316 36.466713,65.257370 35.879330,65.076416 
	C35.879330,65.076416 35.954384,65.051735 35.849461,64.860458 
	C35.483551,64.461945 35.222569,64.254715 34.961582,64.047478 
	C34.335739,63.255051 33.709896,62.462624 32.949593,61.380417 
z"/>
<path fill="#D54230" opacity="1.000000" stroke="none" 
	d="
M228.075974,28.459648 
	C223.091675,34.659149 218.323059,40.713097 213.070099,46.312660 
	C207.110336,52.665638 200.716934,58.611839 194.203506,64.886795 
	C191.844559,62.976830 189.794189,60.914959 187.856812,58.448746 
	C187.969818,58.044395 188.126495,57.929657 188.479431,57.959202 
	C193.320526,59.595570 195.895279,56.582035 198.565430,53.904411 
	C203.683640,48.771885 208.852219,43.684334 213.820190,38.408901 
	C217.748306,34.237690 224.476898,31.751673 222.962494,24.032097 
	C223.002487,23.992466 223.081589,23.912327 223.081589,23.912327 
	C224.746979,25.312698 226.412384,26.713074 228.075974,28.459648 
z"/>
<path fill="#CC3D2C" opacity="1.000000" stroke="none" 
	d="
M115.168030,65.315155 
	C115.386330,64.021507 115.522324,62.714638 116.246803,62.036221 
	C125.851509,53.042274 135.514618,44.109985 145.238998,35.245522 
	C146.344193,34.238060 147.909515,33.735401 149.970947,32.992844 
	C151.124130,32.986328 151.567856,32.985638 152.011581,32.984947 
	C152.303131,33.488621 152.594681,33.992294 152.632202,35.033504 
	C152.256180,36.385437 152.134171,37.199829 151.646362,38.020210 
	C149.736328,39.554184 148.206039,41.096581 146.645493,42.607708 
	C139.006042,50.005184 131.327011,57.362480 123.769493,64.842621 
	C123.114258,65.491150 123.242226,66.930984 123.006393,68.003250 
	C120.457352,67.200188 117.908318,66.397133 115.168030,65.315155 
z"/>
<path fill="#DA4230" opacity="1.000000" stroke="none" 
	d="
M69.046249,27.498627 
	C69.467888,32.471504 64.904259,33.927517 62.577892,36.558064 
	C56.688129,43.217953 49.759670,48.949978 43.407963,55.216545 
	C41.607658,56.992718 40.360260,59.329308 38.520912,61.877708 
	C37.797943,61.490692 36.709538,60.908054 35.310417,60.161789 
	C34.589054,56.144802 36.212776,53.893200 39.455780,51.458466 
	C44.691113,47.527946 49.453697,42.745468 53.608768,37.662937 
	C57.503189,32.899235 62.046509,29.500368 67.917252,27.004982 
	C68.584885,26.828682 68.839630,26.977324 69.046249,27.498627 
z"/>
<path fill="#C23625" opacity="1.000000" stroke="none" 
	d="
M44.009003,66.006714 
	C44.857773,64.319504 45.346767,62.271034 46.616497,61.006527 
	C52.682255,54.965744 59.126144,49.299191 65.087524,43.161510 
	C67.813377,40.355045 69.737175,36.769562 72.048485,33.150932 
	C72.734108,34.538372 73.395966,36.312263 74.043457,38.878567 
	C74.014702,40.782959 74.000320,41.894939 73.638962,43.049927 
	C68.103905,47.815193 63.010525,52.647381 57.697273,57.224323 
	C53.571159,60.778641 50.759972,66.507080 44.009003,66.006714 
z"/>
<path fill="#E94D39" opacity="1.000000" stroke="none" 
	d="
M190.996338,45.001835 
	C192.035065,42.806946 192.589996,40.134258 194.200241,38.503811 
	C199.763687,32.870586 203.950333,25.659019 211.875565,22.575781 
	C212.547226,22.314474 212.659882,20.616278 213.058380,19.180107 
	C215.619522,19.619017 218.154556,20.463430 220.672852,21.746283 
	C220.442917,22.454170 220.229706,22.723621 219.729950,23.035652 
	C217.961456,25.050951 216.479507,27.023666 214.778702,28.726093 
	C212.970856,27.937922 211.381866,27.420040 209.792877,26.902159 
	C209.565735,27.224886 209.338608,27.547613 209.111465,27.870340 
	C209.743347,28.914227 210.375229,29.958113 211.006531,31.335308 
	C211.003479,32.113052 211.001038,32.557484 210.617447,33.002243 
	C206.785782,35.540169 203.452835,38.262650 199.846741,40.555576 
	C197.074890,42.318047 193.959152,43.539688 190.996338,45.001835 
z"/>
<path fill="#C23423" opacity="1.000000" stroke="none" 
	d="
M123.374817,68.048416 
	C123.242226,66.930984 123.114258,65.491150 123.769493,64.842621 
	C131.327011,57.362480 139.006042,50.005184 146.645493,42.607708 
	C148.206039,41.096581 149.736328,39.554184 151.794937,38.355301 
	C152.534286,40.123318 152.759247,41.562222 152.624237,43.044674 
	C148.118759,44.137264 146.418961,46.810734 147.003448,51.001919 
	C147.000000,51.000153 147.003403,51.006889 146.636505,51.011143 
	C140.610931,55.902920 134.926254,60.761242 129.342422,65.732811 
	C128.890717,66.134972 129.130524,67.313812 129.048981,68.131737 
	C127.280403,68.119026 125.511818,68.106308 123.374817,68.048416 
z"/>
<path fill="#BF3322" opacity="1.000000" stroke="none" 
	d="
M203.993927,67.079559 
	C206.071426,64.144356 207.879166,60.962746 210.285751,58.328152 
	C214.550476,53.659405 219.255051,49.395210 223.613312,44.807598 
	C225.106049,43.236301 226.112610,41.203117 227.879776,38.582329 
	C228.474518,38.657043 230.040131,38.853718 231.996078,39.080238 
	C232.603577,40.825111 232.820755,42.540146 232.941071,44.648125 
	C232.844238,45.041069 232.680374,45.127686 232.320389,45.089615 
	C227.954407,49.481911 221.037415,51.338234 220.089798,58.456093 
	C219.360916,58.252991 218.272705,57.630234 217.944778,57.907295 
	C214.245026,61.033443 210.660309,64.295868 207.056381,67.534706 
	C206.962082,67.619453 206.999817,67.851120 206.682892,67.894684 
	C205.591171,67.543243 204.792557,67.311401 203.993927,67.079559 
z"/>
<path fill="#AA3727" opacity="1.000000" stroke="none" 
	d="
M73.985947,43.006920 
	C74.000320,41.894939 74.014702,40.782959 74.046776,39.254459 
	C74.469040,41.803677 75.472832,44.830132 75.179504,47.725155 
	C73.462456,64.671371 52.882851,75.409874 38.064323,66.386353 
	C39.677212,66.293564 41.489887,66.505035 43.950760,67.139702 
	C50.235844,67.908463 56.273457,69.347191 58.868526,61.882156 
	C59.143284,61.091789 60.347111,60.643539 61.076698,59.988441 
	C63.023968,58.239986 64.947678,56.465298 66.880753,54.701035 
	C68.137680,53.446846 70.738266,53.063343 71.489876,51.677246 
	C72.889992,49.095184 73.214027,45.929619 73.985947,43.006920 
z"/>
<path fill="#E44C39" opacity="1.000000" stroke="none" 
	d="
M190.992538,45.389210 
	C193.959152,43.539688 197.074890,42.318047 199.846741,40.555576 
	C203.452835,38.262650 206.785782,35.540169 210.577133,33.345142 
	C209.806656,35.096809 208.803436,36.609779 207.565903,37.897594 
	C201.118927,44.606499 194.612335,51.258106 188.126495,57.929661 
	C188.126495,57.929657 187.969818,58.044395 187.881195,58.084175 
	C186.261459,55.286179 184.730331,52.448402 183.247498,49.233421 
	C184.583969,48.606293 186.166519,47.756527 187.105728,48.217518 
	C190.071274,49.673073 190.977600,48.631939 190.992538,45.389210 
z"/>
<path fill="#A93527" opacity="1.000000" stroke="none" 
	d="
M152.984207,43.001125 
	C152.759247,41.562222 152.534286,40.123318 152.160736,38.349319 
	C152.134171,37.199829 152.256180,36.385437 152.582138,35.337479 
	C158.553070,50.349926 148.809372,67.742218 133.605576,67.807968 
	C135.989777,64.835457 138.183960,61.437626 141.303192,59.709080 
	C145.069946,57.621700 147.039886,55.189011 147.003403,51.006889 
	C147.003403,51.006889 147.000000,51.000153 147.380844,50.995285 
	C152.799026,50.482208 151.769577,46.008205 152.984207,43.001125 
z"/>
<path fill="#B92E1F" opacity="1.000000" stroke="none" 
	d="
M146.636505,51.011143 
	C147.039886,55.189011 145.069946,57.621700 141.303192,59.709080 
	C138.183960,61.437626 135.989777,64.835457 133.187469,67.762543 
	C131.940887,68.033585 130.892593,68.035789 129.446655,68.084862 
	C129.130524,67.313812 128.890717,66.134972 129.342422,65.732811 
	C134.926254,60.761242 140.610931,55.902920 146.636505,51.011143 
z"/>
<path fill="#A44D3D" opacity="1.000000" stroke="none" 
	d="
M203.694031,67.204254 
	C204.792557,67.311401 205.591171,67.543243 207.118805,67.901451 
	C219.766190,67.952759 230.249847,58.284931 232.680374,45.127686 
	C232.680374,45.127686 232.844238,45.041069 232.936798,45.034729 
	C234.191727,54.066975 229.390045,60.239086 222.717636,65.057175 
	C216.353485,69.652687 209.088531,71.045776 201.145050,68.397049 
	C201.749802,67.832687 202.571976,67.580811 203.694031,67.204254 
z"/>
<path fill="#A93527" opacity="1.000000" stroke="none" 
	d="
M151.998383,32.664017 
	C151.567856,32.985638 151.124130,32.986328 150.347900,32.991768 
	C150.011932,32.003128 150.008469,31.009735 149.956482,29.647303 
	C150.600357,30.299870 151.292786,31.321478 151.998383,32.664017 
z"/>
<path fill="#EE5A46" opacity="1.000000" stroke="none" 
	d="
M107.707397,54.877987 
	C107.948380,55.558479 107.915802,56.117157 107.793182,57.088181 
	C107.072784,56.569923 106.442413,55.639320 105.807167,54.355782 
	C106.346146,54.253956 106.889992,54.505062 107.707397,54.877987 
z"/>
<path fill="#D54230" opacity="1.000000" stroke="none" 
	d="
M220.016510,22.993073 
	C220.229706,22.723621 220.442917,22.454170 220.877609,22.048273 
	C221.686203,22.399286 222.273315,22.886744 222.971008,23.643265 
	C223.081589,23.912327 223.002487,23.992466 222.654938,23.979874 
	C221.543762,23.642546 220.780121,23.317808 220.016510,22.993073 
z"/>
<path fill="#A93527" opacity="1.000000" stroke="none" 
	d="
M149.685577,28.791912 
	C149.197220,28.564236 148.651459,28.050741 148.058899,27.237606 
	C148.550797,27.460672 149.089478,27.983381 149.685577,28.791912 
z"/>
<path fill="#AA3727" opacity="1.000000" stroke="none" 
	d="
M36.022232,65.362686 
	C36.466713,65.257370 37.054100,65.438316 37.811569,65.887604 
	C37.376144,65.986938 36.770638,65.817947 36.022232,65.362686 
z"/>
<path fill="#A93527" opacity="1.000000" stroke="none" 
	d="
M147.015106,25.731930 
	C146.817139,25.790409 146.548889,25.580305 146.140503,25.154436 
	C146.315186,25.113564 146.630005,25.288454 147.015106,25.731930 
z"/>
<path fill="#A93527" opacity="1.000000" stroke="none" 
	d="
M147.990005,26.734703 
	C147.799072,26.787323 147.534042,26.571207 147.133606,26.134827 
	C147.304108,26.098364 147.610016,26.282166 147.990005,26.734703 
z"/>
<path fill="#EE5A46" opacity="1.000000" stroke="none" 
	d="
M107.954453,58.330055 
	C107.936790,58.070087 108.424438,58.010017 108.668564,57.994072 
	C108.904381,58.193058 108.896065,58.407990 108.810745,58.936077 
	C108.479858,59.029495 108.225983,58.809761 107.954453,58.330055 
z"/>
<path fill="#E94F3B" opacity="1.000000" stroke="none" 
	d="
M29.382706,59.245308 
	C29.388786,59.087406 29.790075,59.370716 29.856770,59.475117 
	C29.923466,59.579517 29.609314,59.617207 29.609314,59.617207 
	C29.609314,59.617207 29.376625,59.403214 29.382706,59.245308 
z"/>
<path fill="#AA3727" opacity="1.000000" stroke="none" 
	d="
M35.040150,64.301132 
	C35.222569,64.254715 35.483551,64.461945 35.852432,64.899849 
	C35.679790,64.938606 35.399254,64.746689 35.040150,64.301132 
z"/>
<path fill="#E94D39" opacity="1.000000" stroke="none" 
	d="
M208.011536,20.728277 
	C207.963943,20.728598 208.059113,20.727957 208.011536,20.728277 
z"/>
<path fill="#BA2F1E" opacity="1.000000" stroke="none" 
	d="
M73.638962,43.049927 
	C73.214027,45.929619 72.889992,49.095184 71.489876,51.677246 
	C70.738266,53.063343 68.137680,53.446846 66.880753,54.701035 
	C64.947678,56.465298 63.023968,58.239986 61.076698,59.988441 
	C60.347111,60.643539 59.143284,61.091789 58.868526,61.882156 
	C56.273457,69.347191 50.235844,67.908463 44.308521,67.294624 
	C44.015743,66.856400 44.013390,66.686440 44.010017,66.261597 
	C50.759972,66.507080 53.571159,60.778641 57.697273,57.224323 
	C63.010525,52.647381 68.103905,47.815193 73.638962,43.049927 
z"/>
<path fill="#DF4633" opacity="1.000000" stroke="none" 
	d="
M219.729950,23.035652 
	C220.780121,23.317808 221.543762,23.642546 222.614960,24.019505 
	C224.476898,31.751673 217.748306,34.237690 213.820190,38.408901 
	C208.852219,43.684334 203.683640,48.771885 198.565430,53.904411 
	C195.895279,56.582035 193.320526,59.595570 188.479431,57.959206 
	C194.612335,51.258106 201.118927,44.606499 207.565903,37.897594 
	C208.803436,36.609779 209.806656,35.096809 210.958282,33.344818 
	C211.001038,32.557484 211.003479,32.113052 211.335922,31.300432 
	C212.776459,30.286959 213.887009,29.641670 214.997559,28.996384 
	C216.479507,27.023666 217.961456,25.050951 219.729950,23.035652 
z"/>
<path fill="#E44C39" opacity="1.000000" stroke="none" 
	d="
M214.778702,28.726093 
	C213.887009,29.641670 212.776459,30.286959 211.336517,30.967123 
	C210.375229,29.958113 209.743347,28.914227 209.111465,27.870340 
	C209.338608,27.547613 209.565735,27.224886 209.792877,26.902159 
	C211.381866,27.420040 212.970856,27.937922 214.778702,28.726093 
z"/>
<path fill="#B92E1F" opacity="1.000000" stroke="none" 
	d="
M152.624237,43.044674 
	C151.769577,46.008205 152.799026,50.482208 147.384277,50.997051 
	C146.418961,46.810734 148.118759,44.137264 152.624237,43.044674 
z"/>
<path fill="#B22C1D" opacity="1.000000" stroke="none" 
	d="
M232.320389,45.089615 
	C230.249847,58.284931 219.766190,67.952759 207.411896,68.021042 
	C206.999817,67.851120 206.962082,67.619453 207.056381,67.534706 
	C210.660309,64.295868 214.245026,61.033443 217.944778,57.907295 
	C218.272705,57.630234 219.360916,58.252991 220.089798,58.456093 
	C221.037415,51.338234 227.954407,49.481911 232.320389,45.089615 
z"/>
</svg>