<svg version="1.1" id="Layer_1" xmlns="http://www.w3.org/2000/svg" xmlns:xlink="http://www.w3.org/1999/xlink" x="0px" y="0px"
	 width="100%" viewBox="0 0 425 78" enable-background="new 0 0 425 78" xml:space="preserve">
<path fill="#F5F4DA" opacity="1.000000" stroke="none" 
	d="
M315.000000,79.000000 
	C210.000015,79.000000 105.500023,79.000000 1.000028,79.000000 
	C1.000019,53.000015 1.000019,27.000031 1.000009,1.000035 
	C142.666641,1.000023 284.333282,1.000023 425.999939,1.000012 
	C425.999939,26.999964 425.999939,52.999928 425.999969,78.999947 
	C389.166656,79.000000 352.333344,79.000000 315.000000,79.000000 
M116.000381,65.999428 
	C116.000381,65.999428 115.996269,65.996788 116.290169,66.528801 
	C116.846207,66.740356 117.402252,66.951912 117.954765,67.059097 
	C117.954765,67.059097 117.860306,67.103638 118.264427,67.684860 
	C126.555519,72.351860 134.807617,71.712837 142.860428,67.211479 
	C155.843491,59.954205 160.019577,41.289902 151.057877,30.912025 
	C151.057877,30.912025 151.193573,30.936256 151.076233,30.393028 
	C150.752792,30.227562 150.429352,30.062098 149.960449,29.357639 
	C149.674683,29.131065 149.388916,28.904491 148.896423,28.043282 
	C146.875763,23.992380 143.032303,22.781963 138.734222,21.226254 
	C138.126190,21.161701 137.518143,21.097147 136.618713,20.547379 
	C136.074646,20.350355 135.530563,20.153332 134.365143,19.453846 
	C133.578751,19.405636 132.792374,19.357426 131.157700,19.061674 
	C121.082100,18.653536 113.263092,22.962133 108.189423,31.374733 
	C103.502884,39.145451 102.479881,47.554810 107.213654,56.638390 
	C109.119568,58.805737 111.025482,60.973083 113.110283,63.646912 
	C113.615967,64.143066 114.121643,64.639221 114.954865,65.605927 
	C115.304703,65.737999 115.654549,65.870064 116.000381,65.999428 
M269.944458,62.147762 
	C269.944458,62.147762 269.746704,62.200481 269.843262,62.826363 
	C270.500092,63.308121 271.156921,63.789879 271.821350,64.310631 
	C271.821350,64.310631 271.780121,64.324455 272.046906,64.857780 
	C272.720520,65.232666 273.394135,65.607552 274.424713,66.563843 
	C279.493713,69.827492 285.039612,71.271774 291.019592,70.498161 
	C305.513977,68.623070 313.460327,58.217064 313.078613,41.390442 
	C312.691956,40.587307 312.305328,39.784172 312.127136,38.364697 
	C310.452881,34.877533 308.778595,31.390368 307.075195,27.916536 
	C307.075195,27.916536 307.080017,27.939821 306.920715,27.346170 
	C306.297699,26.840487 305.674713,26.334803 304.846039,25.273891 
	C304.196472,24.838327 303.546936,24.402765 302.654572,23.466442 
	C302.147003,23.271458 301.639404,23.076475 301.085754,22.894190 
	C301.085754,22.894190 301.069977,22.849068 300.738647,22.285961 
	C299.530182,21.811384 298.321686,21.336807 296.523071,20.365589 
	C295.573944,20.072779 294.639069,19.717855 293.673523,19.496717 
	C283.495789,17.165709 272.309814,21.773909 266.436035,30.695908 
	C260.717377,39.382278 260.912354,51.198277 267.065247,59.641506 
	C267.724091,60.329704 268.382935,61.017906 269.284943,62.136505 
	C269.284943,62.136505 269.766388,62.248650 269.944458,62.147762 
M43.421162,69.825020 
	C44.571236,69.964462 45.730854,70.049942 46.869938,70.251503 
	C62.090630,72.944847 75.821976,61.467220 75.989983,45.267178 
	C75.667252,43.840427 75.344521,42.413677 75.168533,40.184639 
	C75.100189,39.102531 75.031845,38.020420 75.089859,36.259331 
	C74.388336,34.902424 73.686806,33.545513 73.023170,32.036133 
	C73.023170,32.036133 72.874687,31.984785 72.845413,31.308758 
	C70.654045,29.092922 68.462685,26.877087 66.137253,24.761681 
	C66.137253,24.761681 66.258080,24.877697 66.136787,24.258556 
	C65.785812,24.039537 65.434845,23.820520 64.703194,23.036129 
	C63.198479,22.642479 61.693764,22.248829 59.986488,21.123980 
	C51.832397,16.876198 40.723904,18.993111 33.091530,26.249275 
	C25.454245,33.510109 23.030128,45.055386 27.242044,54.535404 
	C27.538792,55.029728 27.835539,55.524052 28.068132,56.539085 
	C28.377193,56.912441 28.686253,57.285797 29.114965,58.191505 
	C29.354610,58.453045 29.594257,58.714584 29.876822,59.692539 
	C32.872383,62.202351 35.867943,64.712158 39.214737,67.684364 
	C39.746044,67.906204 40.277348,68.128044 41.183475,68.813217 
	C41.758648,68.955254 42.333817,69.097290 43.421162,69.825020 
M222.723816,23.370169 
	C221.838715,23.125179 220.953629,22.880190 219.767715,22.140400 
	C219.210892,21.990814 218.654083,21.841230 217.644058,21.087038 
	C215.445801,20.501474 213.247543,19.915909 210.334152,19.054527 
	C193.269196,18.830709 180.425568,33.443932 183.947739,49.742218 
	C185.286758,52.823925 186.625763,55.905632 188.079086,59.661610 
	C190.381668,61.760857 192.684265,63.860104 195.402390,66.525307 
	C204.561005,72.322464 213.766098,72.177681 222.870468,66.512703 
	C231.571182,61.098888 234.666306,52.926830 234.081329,42.233582 
	C233.031372,38.819092 231.981415,35.404606 230.945953,31.302032 
	C228.954697,29.216814 226.963425,27.131594 224.779678,24.462427 
	C224.199722,24.304283 223.619751,24.146137 222.723816,23.370169 
z"/>
<path fill="#EE5844" opacity="1.000000" stroke="none" 
	d="
M27.276592,53.943913 
	C23.030128,45.055386 25.454245,33.510109 33.091530,26.249275 
	C40.723904,18.993111 51.832397,16.876198 59.790482,21.546612 
	C59.394142,21.994926 59.193817,22.020607 58.666794,22.203651 
	C56.235134,23.418991 53.851082,24.137518 52.076118,25.596863 
	C46.104424,30.506699 40.636974,36.071163 34.426743,40.637333 
	C28.793398,44.779339 26.896149,47.575840 27.856606,53.962036 
	C27.663145,53.975266 27.276592,53.943913 27.276592,53.943913 
z"/>
<path fill="#EE5A46" opacity="1.000000" stroke="none" 
	d="
M266.904144,59.064930 
	C260.912354,51.198277 260.717377,39.382278 266.436035,30.695908 
	C272.309814,21.773909 283.495789,17.165709 293.673523,19.496717 
	C294.639069,19.717855 295.573944,20.072779 296.764709,20.684650 
	C297.006317,21.003714 296.901215,21.146250 296.498047,21.109055 
	C292.871246,20.408823 290.653015,21.658504 289.285065,24.601585 
	C288.946075,25.330902 288.647522,26.362772 288.045410,26.642796 
	C280.885071,29.972759 276.457275,36.031441 272.106354,42.216728 
	C271.583801,42.959591 270.591888,43.543121 269.698792,43.827183 
	C263.234131,45.883343 262.330353,49.498215 266.983215,55.406654 
	C266.960083,56.897812 266.932129,57.981369 266.904144,59.064930 
z"/>
<path fill="#EE5844" opacity="1.000000" stroke="none" 
	d="
M107.197113,55.947296 
	C102.479881,47.554810 103.502884,39.145451 108.189423,31.374733 
	C113.263092,22.962133 121.082100,18.653536 131.508499,19.488453 
	C131.383423,20.724800 130.307053,21.977743 130.526016,22.274281 
	C132.394577,24.804998 131.821945,26.516172 129.312790,28.164778 
	C128.806610,28.497358 129.076721,30.011444 128.659286,30.984440 
	C127.889923,30.987743 127.450203,30.987413 126.778076,30.740395 
	C124.676170,31.388567 122.465759,31.910873 121.002602,33.249786 
	C116.989723,36.921928 111.199402,39.316563 110.997208,46.375916 
	C110.992210,47.493706 110.989090,48.238941 110.626999,48.901676 
	C109.449318,47.243313 108.630608,45.667450 107.433243,43.362736 
	C104.612007,48.033920 106.968307,50.990452 108.953583,54.298004 
	C108.341621,55.047462 107.769363,55.497379 107.197113,55.947296 
z"/>
<path fill="#E84E39" opacity="1.000000" stroke="none" 
	d="
M187.964783,58.987339 
	C186.625763,55.905632 185.286758,52.823925 184.260162,49.147861 
	C185.342651,47.284893 186.609955,46.083115 186.791107,44.735340 
	C187.374039,40.398701 189.633408,40.708183 192.226700,42.466412 
	C197.525604,36.776924 202.170334,30.944136 207.737946,26.192778 
	C210.264832,24.036375 211.230515,22.252367 211.049286,19.330345 
	C213.247543,19.915909 215.445801,20.501474 217.878204,21.774061 
	C218.248062,23.730858 218.980011,25.465473 218.415604,26.189384 
	C216.058777,29.212318 213.456436,32.082474 210.680054,34.731934 
	C204.159622,40.954250 197.412521,46.940422 190.948227,53.218880 
	C189.819672,54.315006 189.623444,56.371063 188.784500,58.105686 
	C188.317215,58.438751 188.114685,58.691994 187.964783,58.987339 
z"/>
<path fill="#E04835" opacity="1.000000" stroke="none" 
	d="
M27.259319,54.239658 
	C27.276592,53.943913 27.663145,53.975266 28.218689,53.968552 
	C32.794178,51.196331 36.923237,48.573963 40.799065,45.619400 
	C43.823887,43.313564 46.660213,40.721394 49.355770,38.031460 
	C53.872898,33.523754 59.691875,29.725359 58.993488,22.046288 
	C59.193817,22.020607 59.394142,21.994926 59.891762,21.912212 
	C61.693764,22.248829 63.198479,22.642479 64.989845,23.612232 
	C65.603691,24.418121 65.930885,24.647909 66.258080,24.877697 
	C66.258080,24.877697 66.137253,24.761681 66.148247,25.087494 
	C65.556084,27.633940 65.616127,30.473373 64.227760,31.961348 
	C59.726398,36.785637 54.599510,41.018780 49.896038,45.664364 
	C46.176460,49.338161 41.749043,52.787693 39.470963,57.269535 
	C37.714096,60.725945 36.502483,60.805557 33.683266,59.803562 
	C32.457020,59.367737 31.120398,59.242447 29.833904,58.976124 
	C29.594257,58.714584 29.354610,58.453045 29.032024,57.685532 
	C28.676819,56.792496 28.404552,56.405434 28.132286,56.018375 
	C27.835539,55.524052 27.538792,55.029728 27.259319,54.239658 
z"/>
<path fill="#EE5844" opacity="1.000000" stroke="none" 
	d="
M210.691711,19.192436 
	C211.230515,22.252367 210.264832,24.036375 207.737946,26.192778 
	C202.170334,30.944136 197.525604,36.776924 192.226700,42.466412 
	C189.633408,40.708183 187.374039,40.398701 186.791107,44.735340 
	C186.609955,46.083115 185.342651,47.284893 184.302338,48.766975 
	C180.425568,33.443932 193.269196,18.830709 210.691711,19.192436 
z"/>
<path fill="#D74331" opacity="1.000000" stroke="none" 
	d="
M188.021942,59.324474 
	C188.114685,58.691994 188.317215,58.438751 189.104706,58.252274 
	C191.819824,57.620483 194.763290,57.646923 196.063751,56.198357 
	C205.530151,45.653767 217.756775,37.658566 224.972168,25.046373 
	C226.963425,27.131594 228.954697,29.216814 230.716492,31.832058 
	C230.321335,32.905552 230.155640,33.449024 229.595062,33.994637 
	C227.628036,34.620937 225.664337,34.843647 224.546753,35.933788 
	C216.723602,43.564903 209.029678,51.330891 201.406128,59.162468 
	C199.707855,60.907093 198.453812,63.084160 196.705307,65.076996 
	C195.939209,65.381027 195.463028,65.670189 194.986862,65.959351 
	C192.684265,63.860104 190.381668,61.760857 188.021942,59.324474 
z"/>
<path fill="#CE3E2D" opacity="1.000000" stroke="none" 
	d="
M149.103134,28.677921 
	C149.388916,28.904491 149.674683,29.131065 150.137024,29.868437 
	C150.606918,30.564907 150.900253,30.750582 151.193573,30.936256 
	C151.193573,30.936256 151.057877,30.912025 151.089081,31.246807 
	C151.750168,34.055767 152.380066,36.529949 152.597931,39.001144 
	C149.522827,38.863655 147.248749,39.060772 146.788956,42.567467 
	C146.653610,43.599781 145.227631,44.503029 144.317184,45.387218 
	C136.881699,52.608246 129.428238,59.810741 121.568962,67.018906 
	C120.058556,67.047173 118.959435,67.075401 117.860306,67.103638 
	C117.860306,67.103638 117.954765,67.059097 117.806900,66.844254 
	C117.104782,66.418541 116.550522,66.207664 115.996269,65.996788 
	C115.996269,65.996788 116.000381,65.999428 115.835663,65.770279 
	C115.323074,65.405884 114.975204,65.270630 114.627327,65.135376 
	C114.121643,64.639221 113.615967,64.143066 113.048683,63.107910 
	C113.000061,62.377899 113.013031,62.186890 113.434814,61.997177 
	C116.444283,60.950722 119.709785,60.567421 121.533249,58.742912 
	C130.565475,49.705505 139.216904,40.287514 148.256760,30.786884 
	C148.708359,29.939381 148.905746,29.308651 149.103134,28.677921 
z"/>
<path fill="#D44331" opacity="1.000000" stroke="none" 
	d="
M29.855362,59.334332 
	C31.120398,59.242447 32.457020,59.367737 33.683266,59.803562 
	C36.502483,60.805557 37.714096,60.725945 39.470963,57.269535 
	C41.749043,52.787693 46.176460,49.338161 49.896038,45.664364 
	C54.599510,41.018780 59.726398,36.785637 64.227760,31.961348 
	C65.616127,30.473373 65.556084,27.633940 66.215279,25.037279 
	C68.462685,26.877087 70.654045,29.092922 72.527359,31.704737 
	C67.178391,36.993168 62.111588,41.849442 57.129303,46.790928 
	C53.870220,50.023327 51.200115,54.128033 47.419670,56.483185 
	C43.058258,59.200275 39.999283,62.261410 38.863506,67.221970 
	C35.867943,64.712158 32.872383,62.202351 29.855362,59.334332 
z"/>
<path fill="#E04A37" opacity="1.000000" stroke="none" 
	d="
M148.999786,28.360603 
	C148.905746,29.308651 148.708359,29.939381 148.203461,30.472633 
	C146.992676,30.331369 145.733887,29.876812 145.239136,30.305023 
	C137.022156,37.417000 128.877777,44.613682 120.771515,51.852295 
	C118.074577,54.260582 115.462608,56.775902 112.981499,59.402592 
	C112.556976,59.852016 112.989441,61.110924 113.026009,61.995884 
	C113.013031,62.186890 113.000061,62.377899 112.959244,62.854668 
	C111.025482,60.973083 109.119568,58.805737 107.205383,56.292843 
	C107.769363,55.497379 108.341621,55.047462 109.316650,54.292225 
	C110.813995,52.992374 111.908577,51.997849 113.346588,50.961533 
	C119.460213,44.946899 125.230408,38.974060 131.269440,32.799549 
	C135.292618,29.841587 139.302002,27.262438 139.078781,21.743036 
	C143.032303,22.781963 146.875763,23.992380 148.999786,28.360603 
z"/>
<path fill="#CC3E2D" opacity="1.000000" stroke="none" 
	d="
M307.104340,27.903200 
	C308.778595,31.390368 310.452881,34.877533 311.712769,38.530228 
	C309.468597,39.599258 307.269135,40.119301 305.869324,41.468811 
	C297.136627,49.887661 288.582764,58.492004 279.592041,67.021072 
	C277.498871,66.665649 275.783325,66.324043 274.067749,65.982437 
	C273.394135,65.607552 272.720520,65.232666 272.303467,64.499649 
	C274.289886,63.343708 276.399658,62.936871 277.688110,61.684837 
	C286.212921,53.401073 294.714447,45.080051 302.861511,36.430130 
	C304.944946,34.218094 305.725281,30.778696 307.104340,27.903200 
z"/>
<path fill="#D74331" opacity="1.000000" stroke="none" 
	d="
M307.089783,27.909866 
	C305.725281,30.778696 304.944946,34.218094 302.861511,36.430130 
	C294.714447,45.080051 286.212921,53.401073 277.688110,61.684837 
	C276.399658,62.936871 274.289886,63.343708 272.170074,64.232986 
	C271.780121,64.324455 271.821350,64.310631 271.826447,63.931137 
	C271.136597,63.101254 270.441650,62.650867 269.746704,62.200481 
	C269.746704,62.200481 269.944458,62.147762 269.924255,61.895573 
	C269.918915,61.438004 269.933746,61.232628 270.113525,60.725182 
	C273.759430,57.444698 277.342773,54.576279 280.694214,51.458591 
	C284.444489,47.969833 288.071716,44.337662 291.594513,40.618275 
	C296.134430,35.825039 301.970032,31.798233 302.231323,24.100746 
	C302.454163,24.060364 302.897369,23.967203 302.897369,23.967203 
	C303.546936,24.402765 304.196472,24.838327 304.981323,25.888784 
	C305.771057,26.982391 306.425537,27.461105 307.080017,27.939819 
	C307.080017,27.939821 307.075195,27.916536 307.089783,27.909866 
z"/>
<path fill="#AF3324" opacity="1.000000" stroke="none" 
	d="
M195.194626,66.242325 
	C195.463028,65.670189 195.939209,65.381027 196.908234,65.327919 
	C198.596664,66.053444 199.792252,66.542923 201.258316,67.293396 
	C207.222992,69.531242 211.082275,67.539085 214.927902,62.922897 
	C220.788940,55.887459 227.562424,49.612148 233.948456,43.014069 
	C234.666306,52.926830 231.571182,61.098888 222.870468,66.512703 
	C213.766098,72.177681 204.561005,72.322464 195.194626,66.242325 
z"/>
<path fill="#E14835" opacity="1.000000" stroke="none" 
	d="
M302.008484,24.141125 
	C301.970032,31.798233 296.134430,35.825039 291.594513,40.618275 
	C288.071716,44.337662 284.444489,47.969833 280.694214,51.458591 
	C277.342773,54.576279 273.759430,57.444698 269.936890,60.799335 
	C269.374084,61.314045 269.189575,61.490894 269.041779,61.706108 
	C268.382935,61.017906 267.724091,60.329704 266.984680,59.353218 
	C266.932129,57.981369 266.960083,56.897812 267.339630,55.362534 
	C269.802368,53.429630 272.178925,52.213219 273.972717,50.415371 
	C278.524658,45.853111 282.726837,40.943424 287.238708,36.339104 
	C290.881409,32.621761 294.771515,29.146879 298.551880,25.564432 
	C298.910370,25.830086 299.268860,26.095741 299.627319,26.361397 
	C299.415710,25.248596 299.204102,24.135796 299.340332,23.012028 
	C300.148773,22.950396 300.609375,22.899731 301.069977,22.849068 
	C301.069977,22.849068 301.085754,22.894190 301.179840,23.141811 
	C301.518768,23.639999 301.763641,23.890562 302.008484,24.141125 
z"/>
<path fill="#C13624" opacity="1.000000" stroke="none" 
	d="
M234.014893,42.623825 
	C227.562424,49.612148 220.788940,55.887459 214.927902,62.922897 
	C211.082275,67.539085 207.222992,69.531242 201.456604,67.025528 
	C209.635101,58.458351 217.735901,50.256466 226.223526,42.476589 
	C228.939667,39.986919 230.446182,37.588451 229.989960,33.992493 
	C230.155640,33.449024 230.321335,32.905552 230.709244,32.176102 
	C231.981415,35.404606 233.031372,38.819092 234.014893,42.623825 
z"/>
<path fill="#E04835" opacity="1.000000" stroke="none" 
	d="
M224.875916,24.754400 
	C217.756775,37.658566 205.530151,45.653767 196.063751,56.198357 
	C194.763290,57.646923 191.819824,57.620483 189.316803,58.130356 
	C189.623444,56.371063 189.819672,54.315006 190.948227,53.218880 
	C197.412521,46.940422 204.159622,40.954250 210.680054,34.731934 
	C213.456436,32.082474 216.058777,29.212318 218.415604,26.189384 
	C218.980011,25.465473 218.248062,23.730858 218.104797,22.076365 
	C218.654083,21.841230 219.210892,21.990814 220.076340,22.706028 
	C221.269913,23.510435 222.154846,23.749214 223.039795,23.987991 
	C223.619751,24.146137 224.199722,24.304283 224.875916,24.754400 
z"/>
<path fill="#CB3B29" opacity="1.000000" stroke="none" 
	d="
M39.039124,67.453171 
	C39.999283,62.261410 43.058258,59.200275 47.419670,56.483185 
	C51.200115,54.128033 53.870220,50.023327 57.129303,46.790928 
	C62.111588,41.849442 67.178391,36.993168 72.542000,32.042751 
	C72.874687,31.984785 73.023170,32.036133 72.999542,32.509041 
	C72.988106,34.319012 73.000305,35.656075 72.949524,37.333107 
	C63.943069,46.746208 54.172630,55.079380 47.559063,65.093681 
	C44.963226,66.345840 42.885941,67.347862 40.808651,68.349884 
	C40.277348,68.128044 39.746044,67.906204 39.039124,67.453171 
z"/>
<path fill="#C33424" opacity="1.000000" stroke="none" 
	d="
M279.969666,67.034889 
	C288.582764,58.492004 297.136627,49.887661 305.869324,41.468811 
	C307.269135,40.119301 309.468597,39.599258 311.608521,38.838402 
	C312.305328,39.784172 312.691956,40.587307 312.746826,41.948078 
	C311.287048,44.672832 310.159088,46.839954 308.681061,49.067814 
	C299.857422,53.339836 293.378326,59.595776 288.551666,67.999374 
	C285.398926,67.680862 282.684296,67.357872 279.969666,67.034889 
z"/>
<path fill="#AB3929" opacity="1.000000" stroke="none" 
	d="
M309.031128,49.007076 
	C310.159088,46.839954 311.287048,44.672832 312.652832,42.272850 
	C313.460327,58.217064 305.513977,68.623070 291.019592,70.498161 
	C285.039612,71.271774 279.493713,69.827492 274.246216,66.273140 
	C275.783325,66.324043 277.498871,66.665649 279.592041,67.021072 
	C282.684296,67.357872 285.398926,67.680862 288.928558,67.993011 
	C292.559631,66.913399 295.375702,65.844635 298.709076,64.579552 
	C298.453522,60.659214 300.824646,58.363869 305.611938,58.664860 
	C305.611938,56.537151 305.611938,54.732960 305.611938,51.499550 
	C306.848145,53.765457 307.382629,54.745182 307.917145,55.724907 
	C308.463379,55.640560 309.009613,55.556217 309.555878,55.471874 
	C309.380951,53.316944 309.206024,51.162010 309.031128,49.007076 
z"/>
<path fill="#BA2F20" opacity="1.000000" stroke="none" 
	d="
M75.021790,40.986927 
	C75.344521,42.413677 75.667252,43.840427 75.574020,45.729836 
	C74.791672,46.698994 74.270859,47.154602 74.084381,47.720402 
	C73.003929,50.998657 73.252701,55.281414 68.038635,55.299057 
	C67.688141,55.300240 67.313416,55.901302 66.994484,56.262661 
	C63.937767,59.726070 60.919998,63.224346 57.831619,66.659172 
	C55.286434,69.489876 52.302330,69.887444 49.143394,67.696884 
	C55.898575,60.718884 62.531693,54.071060 69.118286,47.377453 
	C71.151291,45.311413 73.057510,43.120605 75.021790,40.986927 
z"/>
<path fill="#C23525" opacity="1.000000" stroke="none" 
	d="
M75.095161,40.585785 
	C73.057510,43.120605 71.151291,45.311413 69.118286,47.377453 
	C62.531693,54.071060 55.898575,60.718884 48.728168,67.694168 
	C46.418304,68.415779 44.663643,68.827553 42.908985,69.239319 
	C42.333817,69.097290 41.758648,68.955254 40.996063,68.581551 
	C42.885941,67.347862 44.963226,66.345840 47.559063,65.093681 
	C54.172630,55.079380 63.943069,46.746208 73.274704,37.331398 
	C74.096420,36.972588 74.529961,36.955448 74.963501,36.938313 
	C75.031845,38.020420 75.100189,39.102531 75.095161,40.585785 
z"/>
<path fill="#A83627" opacity="1.000000" stroke="none" 
	d="
M43.165073,69.532173 
	C44.663643,68.827553 46.418304,68.415779 48.588188,68.006721 
	C52.302330,69.887444 55.286434,69.489876 57.831619,66.659172 
	C60.919998,63.224346 63.937767,59.726070 66.994484,56.262661 
	C67.313416,55.901302 67.688141,55.300240 68.038635,55.299057 
	C73.252701,55.281414 73.003929,50.998657 74.084381,47.720402 
	C74.270859,47.154602 74.791672,46.698994 75.502312,46.104530 
	C75.821976,61.467220 62.090630,72.944847 46.869938,70.251503 
	C45.730854,70.049942 44.571236,69.964462 43.165073,69.532173 
z"/>
<path fill="#A54334" opacity="1.000000" stroke="none" 
	d="
M118.062363,67.394241 
	C118.959435,67.075401 120.058556,67.047173 121.810898,67.300331 
	C125.632568,67.727058 128.801025,67.872391 132.385376,68.021271 
	C143.772583,67.389023 152.049820,58.780266 154.001297,45.564346 
	C153.673569,43.100540 153.341751,41.052334 153.009949,39.004128 
	C152.380066,36.529949 151.750168,34.055767 151.124878,31.187916 
	C160.019577,41.289902 155.843491,59.954205 142.860428,67.211479 
	C134.807617,71.712837 126.555519,72.351860 118.062363,67.394241 
z"/>
<path fill="#E94D38" opacity="1.000000" stroke="none" 
	d="
M138.906494,21.484646 
	C139.302002,27.262438 135.292618,29.841587 130.952454,32.748898 
	C129.907410,32.260212 129.448166,31.620508 128.988937,30.980806 
	C129.076721,30.011444 128.806610,28.497358 129.312790,28.164778 
	C131.821945,26.516172 132.394577,24.804998 130.526016,22.274281 
	C130.307053,21.977743 131.383423,20.724800 131.932648,19.612225 
	C132.792374,19.357426 133.578751,19.405636 134.782684,19.906683 
	C135.770172,20.583878 136.340149,20.808235 136.910110,21.032593 
	C137.518143,21.097147 138.126190,21.161701 138.906494,21.484646 
z"/>
<path fill="#D44331" opacity="1.000000" stroke="none" 
	d="
M75.026680,36.598824 
	C74.529961,36.955448 74.096420,36.972588 73.337692,36.991432 
	C73.000305,35.656075 72.988106,34.319012 72.980591,32.585278 
	C73.686806,33.545513 74.388336,34.902424 75.026680,36.598824 
z"/>
<path fill="#EE5A46" opacity="1.000000" stroke="none" 
	d="
M300.904297,22.567513 
	C300.609375,22.899731 300.148773,22.950396 299.085388,22.882660 
	C297.955475,22.224922 297.428345,21.685585 296.901215,21.146248 
	C296.901215,21.146250 297.006317,21.003714 297.059753,20.932972 
	C298.321686,21.336807 299.530182,21.811384 300.904297,22.567513 
z"/>
<path fill="#EE5844" opacity="1.000000" stroke="none" 
	d="
M136.764404,20.789986 
	C136.340149,20.808235 135.770172,20.583878 135.093353,20.157913 
	C135.530563,20.153332 136.074646,20.350355 136.764404,20.789986 
z"/>
<path fill="#CC3E2D" opacity="1.000000" stroke="none" 
	d="
M269.794983,62.513420 
	C270.441650,62.650867 271.136597,63.101254 271.822632,63.911636 
	C271.156921,63.789879 270.500092,63.308121 269.794983,62.513420 
z"/>
<path fill="#CC3E2D" opacity="1.000000" stroke="none" 
	d="
M307.000366,27.642994 
	C306.425537,27.461105 305.771057,26.982391 305.084167,26.166397 
	C305.674713,26.334803 306.297699,26.840487 307.000366,27.642994 
z"/>
<path fill="#D74331" opacity="1.000000" stroke="none" 
	d="
M222.881805,23.679081 
	C222.154846,23.749214 221.269913,23.510435 220.226746,22.953428 
	C220.953629,22.880190 221.838715,23.125179 222.881805,23.679081 
z"/>
<path fill="#EE5A46" opacity="1.000000" stroke="none" 
	d="
M302.231323,24.100744 
	C301.763641,23.890562 301.518768,23.639999 301.202881,23.135464 
	C301.639404,23.076475 302.147003,23.271458 302.775970,23.716824 
	C302.897369,23.967203 302.454163,24.060364 302.231323,24.100744 
z"/>
<path fill="#E94E3A" opacity="1.000000" stroke="none" 
	d="
M28.100210,56.278732 
	C28.404552,56.405434 28.676819,56.792496 28.972198,57.419357 
	C28.686253,57.285797 28.377193,56.912441 28.100210,56.278732 
z"/>
<path fill="#A54334" opacity="1.000000" stroke="none" 
	d="
M116.143219,66.262794 
	C116.550522,66.207664 117.104782,66.418541 117.808662,66.896439 
	C117.402252,66.951912 116.846207,66.740356 116.143219,66.262794 
z"/>
<path fill="#A54334" opacity="1.000000" stroke="none" 
	d="
M151.134903,30.664642 
	C150.900253,30.750582 150.606918,30.564907 150.209747,30.137932 
	C150.429352,30.062098 150.752792,30.227562 151.134903,30.664642 
z"/>
<path fill="#D44331" opacity="1.000000" stroke="none" 
	d="
M66.197433,24.568127 
	C65.930885,24.647909 65.603691,24.418121 65.180183,23.894917 
	C65.434845,23.820520 65.785812,24.039537 66.197433,24.568127 
z"/>
<path fill="#CC3E2D" opacity="1.000000" stroke="none" 
	d="
M269.163361,61.921303 
	C269.189575,61.490894 269.374084,61.314045 269.771973,61.101402 
	C269.933746,61.232628 269.918915,61.438004 269.835205,61.946014 
	C269.766388,62.248650 269.284943,62.136505 269.163361,61.921303 
z"/>
<path fill="#A54334" opacity="1.000000" stroke="none" 
	d="
M114.791092,65.370651 
	C114.975204,65.270630 115.323074,65.405884 115.837669,65.771637 
	C115.654549,65.870064 115.304703,65.737999 114.791092,65.370651 
z"/>
<path fill="#E94E3A" opacity="1.000000" stroke="none" 
	d="
M58.666794,22.203651 
	C59.691875,29.725359 53.872898,33.523754 49.355770,38.031460 
	C46.660213,40.721394 43.823887,43.313564 40.799065,45.619400 
	C36.923237,48.573963 32.794178,51.196331 28.412148,53.955318 
	C26.896149,47.575840 28.793398,44.779339 34.426743,40.637333 
	C40.636974,36.071163 46.104424,30.506699 52.076118,25.596863 
	C53.851082,24.137518 56.235134,23.418991 58.666794,22.203651 
z"/>
<path fill="#E94D38" opacity="1.000000" stroke="none" 
	d="
M296.498047,21.109053 
	C297.428345,21.685585 297.955475,22.224922 298.737549,22.893627 
	C299.204102,24.135796 299.415710,25.248596 299.627319,26.361397 
	C299.268860,26.095741 298.910370,25.830086 298.551880,25.564432 
	C294.771515,29.146879 290.881409,32.621761 287.238708,36.339104 
	C282.726837,40.943424 278.524658,45.853111 273.972717,50.415371 
	C272.178925,52.213219 269.802368,53.429630 267.334778,54.954941 
	C262.330353,49.498215 263.234131,45.883343 269.698792,43.827183 
	C270.591888,43.543121 271.583801,42.959591 272.106354,42.216728 
	C276.457275,36.031441 280.885071,29.972759 288.045410,26.642796 
	C288.647522,26.362772 288.946075,25.330902 289.285065,24.601585 
	C290.653015,21.658504 292.871246,20.408823 296.498047,21.109053 
z"/>
<path fill="#EC4D38" opacity="1.000000" stroke="none" 
	d="
M110.999084,46.003357 
	C111.199402,39.316563 116.989723,36.921928 121.002602,33.249786 
	C122.465759,31.910873 124.676170,31.388567 126.632057,31.065575 
	C123.700096,38.856808 119.103302,44.349014 110.999084,46.003357 
z"/>
<path fill="#E94D37" opacity="1.000000" stroke="none" 
	d="
M110.997208,46.375916 
	C119.103302,44.349014 123.700096,38.856808 126.864471,31.312267 
	C127.450203,30.987413 127.889923,30.987743 128.659286,30.984440 
	C129.448166,31.620508 129.907410,32.260212 130.683624,32.950565 
	C125.230408,38.974060 119.460213,44.946899 113.345009,50.959885 
	C113.000000,51.000027 112.998207,50.998249 112.949287,50.683014 
	C112.267303,49.912224 111.634247,49.456661 110.999252,48.999100 
	C110.997322,48.997097 110.985962,48.984173 110.985962,48.984173 
	C110.989090,48.238941 110.992210,47.493706 110.997208,46.375916 
z"/>
<path fill="#E94D37" opacity="1.000000" stroke="none" 
	d="
M113.001572,51.001675 
	C111.908577,51.997849 110.813995,52.992374 109.356354,53.992683 
	C106.968307,50.990452 104.612007,48.033920 107.433243,43.362736 
	C108.630608,45.667450 109.449318,47.243313 110.626999,48.901676 
	C110.985962,48.984173 110.997322,48.997097 111.048309,49.314308 
	C111.732269,50.087097 112.365242,50.542671 112.998207,50.998249 
	C112.998207,50.998249 113.000000,51.000027 113.001572,51.001675 
z"/>
<path fill="#CD3C2A" opacity="1.000000" stroke="none" 
	d="
M229.595047,33.994637 
	C230.446182,37.588451 228.939667,39.986919 226.223526,42.476589 
	C217.735901,50.256466 209.635101,58.458351 201.186096,66.764534 
	C199.792252,66.542923 198.596664,66.053444 197.198166,65.313049 
	C198.453812,63.084160 199.707855,60.907093 201.406128,59.162468 
	C209.029678,51.330891 216.723602,43.564903 224.546753,35.933788 
	C225.664337,34.843647 227.628036,34.620937 229.595047,33.994637 
z"/>
<path fill="#C23524" opacity="1.000000" stroke="none" 
	d="
M131.969482,68.017723 
	C128.801025,67.872391 125.632568,67.727058 122.222176,67.300293 
	C129.428238,59.810741 136.881699,52.608246 144.317184,45.387218 
	C145.227631,44.503029 146.653610,43.599781 146.788956,42.567467 
	C147.248749,39.060772 149.522827,38.863655 152.597931,39.001144 
	C153.341751,41.052334 153.673569,43.100540 153.636780,45.581459 
	C151.505264,47.558304 149.605072,48.972954 148.004486,50.670162 
	C142.602127,56.398586 137.306137,62.227333 131.969482,68.017723 
z"/>
<path fill="#D94230" opacity="1.000000" stroke="none" 
	d="
M113.434814,61.997177 
	C112.989441,61.110924 112.556976,59.852016 112.981499,59.402592 
	C115.462608,56.775902 118.074577,54.260582 120.771515,51.852295 
	C128.877777,44.613682 137.022156,37.417000 145.239136,30.305023 
	C145.733887,29.876812 146.992676,30.331369 147.949249,30.689411 
	C139.216904,40.287514 130.565475,49.705505 121.533249,58.742912 
	C119.709785,60.567421 116.444283,60.950722 113.434814,61.997177 
z"/>
<path fill="#BA2E1E" opacity="1.000000" stroke="none" 
	d="
M308.681061,49.067818 
	C309.206024,51.162010 309.380951,53.316944 309.555878,55.471874 
	C309.009613,55.556217 308.463379,55.640560 307.917145,55.724907 
	C307.382629,54.745182 306.848145,53.765457 305.611938,51.499550 
	C305.611938,54.732960 305.611938,56.537151 305.611938,58.664860 
	C300.824646,58.363869 298.453522,60.659214 298.709076,64.579552 
	C295.375702,65.844635 292.559631,66.913399 289.366669,67.988525 
	C293.378326,59.595776 299.857422,53.339836 308.681061,49.067818 
z"/>
<path fill="#B42D1D" opacity="1.000000" stroke="none" 
	d="
M132.385376,68.021271 
	C137.306137,62.227333 142.602127,56.398586 148.004486,50.670162 
	C149.605072,48.972954 151.505264,47.558304 153.632690,45.997059 
	C152.049820,58.780266 143.772583,67.389023 132.385376,68.021271 
z"/>
<path fill="#EC4D38" opacity="1.000000" stroke="none" 
	d="
M112.949287,50.683014 
	C112.365242,50.542671 111.732269,50.087097 111.050247,49.316311 
	C111.634247,49.456661 112.267303,49.912224 112.949287,50.683014 
z"/>
</svg>