<svg version="1.1" id="Layer_1" xmlns="http://www.w3.org/2000/svg" xmlns:xlink="http://www.w3.org/1999/xlink" x="0px" y="0px"
	 width="100%" viewBox="0 0 425 78" enable-background="new 0 0 425 78" xml:space="preserve">
<path fill="#FFFEFE" opacity="1.000000" stroke="none" 
	d="
M310.000000,79.000000 
	C206.666672,79.000000 103.833359,79.000000 1.000028,79.000000 
	C1.000018,53.000015 1.000018,27.000031 1.000009,1.000035 
	C142.666641,1.000023 284.333282,1.000023 425.999939,1.000012 
	C425.999939,26.999964 425.999939,52.999928 425.999969,78.999947 
	C387.500000,79.000000 349.000000,79.000000 310.000000,79.000000 
M235.102112,48.179916 
	C235.083221,46.789085 235.064346,45.398254 235.023849,43.229259 
	C234.687637,41.487244 234.351425,39.745228 234.156479,37.298210 
	C233.719162,36.202251 233.281830,35.106293 232.803070,33.343708 
	C231.531448,31.564915 230.259811,29.786119 228.790527,27.388784 
	C227.324112,26.186190 225.857697,24.983597 224.003098,23.223953 
	C222.209732,22.392469 220.416367,21.560987 218.053040,20.192148 
	C216.036911,19.794359 214.020782,19.396568 211.357971,18.624613 
	C195.837311,17.704479 182.802231,29.393406 182.889786,44.836048 
	C182.997437,46.231796 183.105072,47.627544 183.128937,49.637558 
	C183.346558,49.971035 183.564163,50.304516 183.717300,51.250126 
	C183.894043,51.836742 184.070786,52.423359 184.262268,53.691792 
	C185.494705,55.825558 186.727158,57.959324 188.136642,60.727505 
	C189.729416,62.235840 191.322205,63.744175 193.244690,65.821465 
	C194.783005,66.705833 196.321335,67.590202 198.323471,68.909508 
	C199.553131,69.229225 200.782776,69.548943 202.747314,70.254944 
	C206.484909,70.342064 210.222519,70.429184 214.676544,70.508369 
	C221.748215,68.520020 227.785599,64.988495 231.514145,58.444393 
	C232.835785,56.124748 233.486420,53.422791 234.834183,50.332096 
	C234.837265,49.881626 234.840347,49.431156 235.102112,48.179916 
M156.106018,48.181393 
	C156.085632,46.789974 156.065247,45.398560 156.022736,43.229069 
	C155.686432,41.487267 155.350113,39.745461 155.160141,37.314400 
	C154.527481,36.504898 153.894836,35.695396 153.214798,34.169666 
	C152.776077,33.114349 152.337372,32.059032 151.953079,30.338030 
	C150.642609,28.876226 149.332153,27.414425 147.818741,25.398314 
	C147.023621,24.865145 146.228516,24.331976 145.016251,23.225454 
	C142.679306,22.169338 140.342346,21.113222 137.390717,19.634192 
	C135.928604,19.422667 134.466492,19.211142 132.357651,18.625845 
	C116.823662,17.718710 103.794090,29.403540 103.892555,44.836029 
	C104.000328,46.231953 104.108101,47.627872 104.132370,49.637783 
	C104.350174,49.970673 104.567978,50.303562 104.721474,51.248421 
	C104.897163,51.835037 105.072853,52.421654 105.247971,53.653133 
	C106.043770,55.143295 106.839569,56.633461 107.813042,58.744144 
	C108.844604,59.972366 109.876160,61.200592 111.236145,63.046028 
	C112.829475,64.297035 114.422806,65.548042 116.433365,67.241936 
	C117.163597,67.552696 117.893829,67.863449 119.122757,68.704758 
	C120.739212,69.161118 122.355667,69.617477 124.626465,70.567917 
	C127.767082,70.604591 130.907700,70.641273 134.783615,70.747513 
	C146.003754,68.109779 153.048370,61.262135 155.951309,49.511189 
	C155.915848,49.334743 155.880386,49.158298 156.106018,48.181393 
M77.140945,47.177422 
	C77.085510,45.788925 77.030075,44.400429 77.134338,42.221016 
	C76.434891,39.791725 75.735451,37.362434 75.038399,34.270111 
	C74.381264,33.171646 73.724136,32.073181 72.938675,30.338686 
	C71.965355,29.223913 70.992035,28.109140 69.807144,26.409554 
	C68.674858,25.558172 67.542580,24.706791 66.000595,23.270447 
	C63.669750,22.203711 61.338909,21.136976 58.390343,19.651875 
	C56.927711,19.436188 55.465076,19.220501 53.355507,18.631027 
	C37.383080,17.661907 24.378176,29.759249 24.845139,45.802498 
	C24.960659,46.875210 25.076180,47.947922 25.106609,49.642632 
	C25.325611,49.980164 25.544613,50.317696 25.666082,51.260979 
	C25.844185,51.843918 26.022287,52.426857 26.205769,53.691944 
	C27.171106,55.450096 28.136446,57.208244 29.243521,59.603603 
	C30.836309,61.278030 32.429100,62.952457 34.435539,65.176277 
	C35.582943,65.898621 36.730350,66.620964 38.297459,67.841713 
	C39.508057,68.292267 40.718655,68.742821 42.496414,69.709831 
	C47.400433,69.828316 52.304451,69.946808 57.877110,69.756523 
	C67.500046,67.318253 73.704559,61.463688 76.472412,51.239052 
	C76.616982,50.153973 76.761543,49.068893 77.140945,47.177422 
M314.234680,46.204559 
	C314.138733,44.807823 314.042755,43.411091 314.088684,41.255844 
	C313.429626,39.157501 312.770538,37.059162 312.096222,34.291283 
	C311.434692,33.182484 310.773163,32.073685 309.970703,30.329525 
	C308.996033,29.213839 308.021362,28.098152 306.829956,26.403013 
	C305.708496,25.549473 304.587036,24.695932 303.063446,23.273453 
	C301.249359,22.426165 299.435242,21.578876 297.051910,20.193495 
	C295.036072,19.795252 293.020233,19.397009 290.357758,18.624559 
	C274.843750,17.701807 261.798981,29.398243 261.886444,44.835583 
	C261.994476,46.231232 262.102509,47.626884 262.126068,49.637451 
	C262.345123,49.970638 262.564178,50.303822 262.717072,51.249226 
	C262.892792,51.836113 263.068481,52.423000 263.261230,53.691685 
	C264.491730,55.824814 265.722198,57.957943 267.127350,60.723354 
	C268.373566,61.941334 269.619781,63.159313 271.182617,64.923767 
	C272.423462,65.718987 273.664337,66.514206 275.313141,67.812645 
	C276.520966,68.265564 277.728760,68.718475 279.494690,69.697617 
	C283.975067,69.973572 288.455414,70.249535 293.642578,70.519127 
	C307.690216,66.408852 312.392212,58.258537 314.234680,46.204559 
z"/>
<path fill="#E74B37" opacity="1.000000" stroke="none" 
	d="
M218.623016,20.729507 
	C220.416367,21.560987 222.209732,22.392469 223.867188,23.658964 
	C211.807404,36.093681 199.883499,48.093391 187.959595,60.093094 
	C186.727158,57.959324 185.494705,55.825558 184.581802,53.302959 
	C191.680862,46.362820 198.436432,39.786472 205.248474,33.269154 
	C209.663986,29.044680 214.161972,24.906410 218.623016,20.729507 
z"/>
<path fill="#EE4E3A" opacity="1.000000" stroke="none" 
	d="
M54.002445,19.004814 
	C55.465076,19.220501 56.927711,19.436188 58.693100,20.221222 
	C58.304958,22.052198 57.856441,23.552689 56.885296,24.538128 
	C48.144974,33.407135 39.351025,42.224617 30.457853,50.939915 
	C29.389034,51.987358 27.636192,52.336823 26.200392,53.009796 
	C26.022287,52.426857 25.844185,51.843918 25.737030,50.649727 
	C25.602552,49.699196 25.397125,49.359917 25.191700,49.020634 
	C25.076180,47.947922 24.960659,46.875210 25.268871,45.367538 
	C31.074074,39.841900 36.403374,34.694515 41.854431,29.679476 
	C45.820450,26.030691 49.947300,22.556723 54.002445,19.004814 
z"/>
<path fill="#DE4532" opacity="1.000000" stroke="none" 
	d="
M188.048126,60.410301 
	C199.883499,48.093391 211.807404,36.093681 224.061279,23.937489 
	C225.857697,24.983597 227.324112,26.186190 228.580597,27.834015 
	C227.267944,29.001499 226.004196,29.561405 225.087265,30.470955 
	C215.194901,40.283607 205.307404,50.102634 195.564041,60.062244 
	C194.267395,61.387688 193.778137,63.502991 192.914978,65.252502 
	C191.322205,63.744175 189.729416,62.235840 188.048126,60.410301 
z"/>
<path fill="#C63727" opacity="1.000000" stroke="none" 
	d="
M75.036003,34.933144 
	C75.735451,37.362434 76.434891,39.791725 76.688705,42.617531 
	C75.463364,43.244942 74.459785,43.241913 73.937500,43.741768 
	C65.968979,51.367970 58.043365,59.039581 50.183914,66.777969 
	C49.602821,67.350105 49.603504,68.513115 49.168575,69.945229 
	C51.098904,69.945229 52.559288,69.945229 54.418331,69.950462 
	C55.614151,69.992233 56.411308,70.028763 57.208469,70.065292 
	C52.304451,69.946808 47.400433,69.828316 42.234898,69.073616 
	C42.969864,66.804047 43.706100,64.917664 45.006664,63.579948 
	C51.586117,56.812550 58.238426,50.111492 65.019699,43.546783 
	C68.178101,40.489250 71.686340,37.793102 75.036003,34.933144 
z"/>
<path fill="#D43F2D" opacity="1.000000" stroke="none" 
	d="
M193.079834,65.536987 
	C193.778137,63.502991 194.267395,61.387688 195.564041,60.062244 
	C205.307404,50.102634 215.194901,40.283607 225.087265,30.470955 
	C226.004196,29.561405 227.267944,29.001499 228.679413,28.143284 
	C230.259811,29.786119 231.531448,31.564915 232.452164,33.675995 
	C230.399155,34.840672 228.340759,35.307720 227.052322,36.564274 
	C218.141663,45.254494 209.329102,54.048615 200.653854,62.973469 
	C199.284882,64.381851 198.769638,66.620056 197.859650,68.474579 
	C196.321335,67.590202 194.783005,66.705833 193.079834,65.536987 
z"/>
<path fill="#DF4632" opacity="1.000000" stroke="none" 
	d="
M303.465576,23.842396 
	C304.587036,24.695932 305.708496,25.549473 306.633179,26.839190 
	C295.157806,38.486092 283.859894,49.677593 272.638519,60.945274 
	C271.772339,61.815060 271.444214,63.220711 270.865997,64.377289 
	C269.619781,63.159313 268.373566,61.941334 267.179443,60.091221 
	C268.062347,58.232742 268.725098,56.839806 269.750061,55.805897 
	C279.673615,45.795719 289.632996,35.820526 299.664093,25.918320 
	C300.651825,24.943279 302.185364,24.521158 303.465576,23.842396 
z"/>
<path fill="#E74B37" opacity="1.000000" stroke="none" 
	d="
M303.264526,23.557926 
	C302.185364,24.521158 300.651825,24.943279 299.664093,25.918320 
	C289.632996,35.820526 279.673615,45.795719 269.750061,55.805897 
	C268.725098,56.839806 268.062347,58.232742 267.092102,59.775078 
	C265.722198,57.957943 264.491730,55.824814 263.579834,53.303062 
	C270.678314,46.363644 277.434326,39.787910 284.246613,33.270985 
	C288.662292,29.046751 293.160126,24.908411 297.621155,20.731588 
	C299.435242,21.578876 301.249359,22.426165 303.264526,23.557926 
z"/>
<path fill="#E84C38" opacity="1.000000" stroke="none" 
	d="
M138.005402,20.057106 
	C140.342346,21.113222 142.679306,22.169338 144.851227,23.586872 
	C143.125977,25.130138 141.410049,26.154587 140.030746,27.519287 
	C130.818329,36.634178 121.712547,45.857063 112.475327,54.946491 
	C111.126198,56.274033 109.261497,57.077606 107.635361,58.123627 
	C106.839569,56.633461 106.043770,55.143295 105.575043,53.282860 
	C116.413010,42.586227 126.931351,32.267410 137.406921,21.905340 
	C137.815765,21.500917 137.815201,20.682575 138.005402,20.057106 
z"/>
<path fill="#EE4F3A" opacity="1.000000" stroke="none" 
	d="
M218.338028,20.460829 
	C214.161972,24.906410 209.663986,29.044680 205.248474,33.269154 
	C198.436432,39.786472 191.680862,46.362820 184.574432,52.962051 
	C184.070786,52.423359 183.894043,51.836742 183.767303,50.639858 
	C183.615784,49.694160 183.414246,49.358730 183.212723,49.023293 
	C183.105072,47.627544 182.997437,46.231796 183.332581,44.414925 
	C186.088150,42.256893 188.554184,40.688694 190.685760,38.752323 
	C197.856262,32.238487 204.907684,25.593559 212.004654,18.998783 
	C214.020782,19.396568 216.036911,19.794359 218.338028,20.460829 
z"/>
<path fill="#EE4F3A" opacity="1.000000" stroke="none" 
	d="
M297.336548,20.462542 
	C293.160126,24.908411 288.662292,29.046751 284.246613,33.270985 
	C277.434326,39.787910 270.678314,46.363644 263.571289,52.962166 
	C263.068481,52.423000 262.892792,51.836113 262.767151,50.638763 
	C262.614990,49.693047 262.412750,49.357788 262.210510,49.022533 
	C262.102509,47.626884 261.994476,46.231232 262.329651,44.414680 
	C265.086060,42.257393 267.552887,40.690117 269.684479,38.753769 
	C276.855469,32.239605 283.907104,25.594051 291.004395,18.998768 
	C293.020233,19.397009 295.036072,19.795252 297.336548,20.462542 
z"/>
<path fill="#EE4F3A" opacity="1.000000" stroke="none" 
	d="
M137.698059,19.845650 
	C137.815201,20.682575 137.815765,21.500917 137.406921,21.905340 
	C126.931351,32.267410 116.413010,42.586227 105.575333,52.960426 
	C105.072853,52.421654 104.897163,51.835037 104.770203,50.638718 
	C104.617920,49.693939 104.416901,49.358868 104.215881,49.023796 
	C104.108101,47.627872 104.000328,46.231953 104.335320,44.414948 
	C107.090416,42.256592 109.555702,40.687679 111.687187,38.751335 
	C118.856987,32.237957 125.907951,25.593760 133.004379,18.999617 
	C134.466492,19.211142 135.928604,19.422667 137.698059,19.845650 
z"/>
<path fill="#C63827" opacity="1.000000" stroke="none" 
	d="
M292.935791,70.525497 
	C288.455414,70.249535 283.975067,69.973572 279.236023,69.058014 
	C279.744476,67.019699 280.244263,65.357964 281.320831,64.263687 
	C290.275360,55.161839 299.312286,46.140327 308.399414,37.170593 
	C309.394409,36.188461 310.862701,35.685844 312.111481,34.960819 
	C312.770538,37.059162 313.429626,39.157501 313.654175,41.636631 
	C309.718262,44.635937 305.975861,46.991840 302.770691,49.933189 
	C297.687500,54.597980 292.912781,59.605309 288.122070,64.578041 
	C286.872070,65.875526 286.045593,67.581032 284.434357,69.976860 
	C287.103973,69.976860 288.558136,69.976860 290.318451,69.977325 
	C291.394989,70.160362 292.165405,70.342926 292.935791,70.525497 
z"/>
<path fill="#DF4734" opacity="1.000000" stroke="none" 
	d="
M66.410294,23.855410 
	C67.542580,24.706791 68.674858,25.558172 69.609756,26.848881 
	C67.825600,28.475609 66.074150,29.496563 64.678574,30.877228 
	C55.121296,40.332386 45.580921,49.806770 36.202541,59.438007 
	C34.984253,60.689133 34.725239,62.874344 34.021889,64.626884 
	C32.429100,62.952457 30.836309,61.278030 29.462387,59.136406 
	C40.174698,48.225609 50.634754,37.747993 61.199989,27.377529 
	C62.671448,25.933197 64.660728,25.016409 66.410294,23.855410 
z"/>
<path fill="#D94230" opacity="1.000000" stroke="none" 
	d="
M148.021683,25.952621 
	C149.332153,27.414425 150.642609,28.876226 151.567352,30.674715 
	C149.928223,31.700579 148.437180,32.149143 147.458176,33.116119 
	C137.588043,42.864899 127.766663,52.664078 118.043144,62.558716 
	C117.004593,63.615551 116.674751,65.368851 116.016136,66.799049 
	C114.422806,65.548042 112.829475,64.297035 111.467171,62.594711 
	C123.806023,50.079803 135.913849,38.016212 148.021683,25.952621 
z"/>
<path fill="#F65842" opacity="1.000000" stroke="none" 
	d="
M53.678978,18.817921 
	C49.947300,22.556723 45.820450,26.030691 41.854431,29.679476 
	C36.403374,34.694515 31.074074,39.841900 25.348434,44.968163 
	C24.378176,29.759249 37.383080,17.661907 53.678978,18.817921 
z"/>
<path fill="#F65842" opacity="1.000000" stroke="none" 
	d="
M132.681015,18.812731 
	C125.907951,25.593760 118.856987,32.237957 111.687187,38.751335 
	C109.555702,40.687679 107.090416,42.256592 104.416801,44.000431 
	C103.794090,29.403540 116.823662,17.718710 132.681015,18.812731 
z"/>
<path fill="#E74B37" opacity="1.000000" stroke="none" 
	d="
M66.205444,23.562927 
	C64.660728,25.016409 62.671448,25.933197 61.199989,27.377529 
	C50.634754,37.747993 40.174698,48.225609 29.391518,58.817802 
	C28.136446,57.208244 27.171106,55.450096 26.203079,53.350868 
	C27.636192,52.336823 29.389034,51.987358 30.457853,50.939915 
	C39.351025,42.224617 48.144974,33.407135 56.885296,24.538128 
	C57.856441,23.552689 58.304958,22.052198 59.001961,20.430405 
	C61.338909,21.136976 63.669750,22.203711 66.205444,23.562927 
z"/>
<path fill="#F65842" opacity="1.000000" stroke="none" 
	d="
M290.681091,18.811665 
	C283.907104,25.594051 276.855469,32.239605 269.684479,38.753769 
	C267.552887,40.690117 265.086060,42.257393 262.411133,44.000320 
	C261.798981,29.398243 274.843750,17.701807 290.681091,18.811665 
z"/>
<path fill="#F65842" opacity="1.000000" stroke="none" 
	d="
M211.681305,18.811699 
	C204.907684,25.593559 197.856262,32.238487 190.685760,38.752323 
	C188.554184,40.688694 186.088150,42.256893 183.413895,44.000420 
	C182.802231,29.393406 195.837311,17.704479 211.681305,18.811699 
z"/>
<path fill="#CF3C2B" opacity="1.000000" stroke="none" 
	d="
M75.037201,34.601627 
	C71.686340,37.793102 68.178101,40.489250 65.019699,43.546783 
	C58.238426,50.111492 51.586117,56.812550 45.006664,63.579948 
	C43.706100,64.917664 42.969864,66.804047 41.951317,68.815384 
	C40.718655,68.742821 39.508057,68.292267 38.122444,67.201538 
	C39.447174,64.058968 40.551723,61.179092 42.517113,59.121471 
	C49.859917,51.434086 57.390446,43.917820 65.060883,36.556526 
	C67.379616,34.331249 70.379265,32.815479 73.067009,30.974718 
	C73.724136,32.073181 74.381264,33.171646 75.037201,34.601627 
z"/>
<path fill="#D7412F" opacity="1.000000" stroke="none" 
	d="
M73.002838,30.656702 
	C70.379265,32.815479 67.379616,34.331249 65.060883,36.556526 
	C57.390446,43.917820 49.859917,51.434086 42.517113,59.121471 
	C40.551723,61.179092 39.447174,64.058968 37.912594,66.952332 
	C36.730350,66.620964 35.582943,65.898621 34.228714,64.901581 
	C34.725239,62.874344 34.984253,60.689133 36.202541,59.438007 
	C45.580921,49.806770 55.121296,40.332386 64.678574,30.877228 
	C66.074150,29.496563 67.825600,28.475609 69.715546,27.141289 
	C70.992035,28.109140 71.965355,29.223913 73.002838,30.656702 
z"/>
<path fill="#D7412E" opacity="1.000000" stroke="none" 
	d="
M271.024292,64.650528 
	C271.444214,63.220711 271.772339,61.815060 272.638519,60.945274 
	C283.859894,49.677593 295.157806,38.486092 306.741547,27.128916 
	C308.021362,28.098152 308.996033,29.213839 309.689209,30.687115 
	C308.821442,31.332479 308.106628,31.490911 307.667786,31.927008 
	C297.311829,42.218193 286.946777,52.501160 276.713654,62.913624 
	C275.684967,63.960365 275.488068,65.824585 274.905182,67.309433 
	C273.664337,66.514206 272.423462,65.718987 271.024292,64.650528 
z"/>
<path fill="#C33625" opacity="1.000000" stroke="none" 
	d="
M213.960114,70.516296 
	C210.222519,70.429184 206.484909,70.342064 202.381836,69.705231 
	C202.364899,68.260704 202.477905,67.133263 203.097382,66.506088 
	C212.029846,57.462719 220.994507,48.449997 230.069000,39.549805 
	C230.997177,38.639469 232.681686,38.500259 234.015228,38.003212 
	C234.351425,39.745228 234.687637,41.487244 234.666229,43.619381 
	C233.530502,44.225384 232.506439,44.196312 232.011047,44.693741 
	C224.108505,52.629089 216.271118,60.629356 208.447006,68.642296 
	C208.332077,68.760002 208.574753,69.226875 208.743561,69.903816 
	C210.110184,69.903816 211.562500,69.903816 213.196350,69.966110 
	C213.620819,70.132698 213.814896,70.295334 213.960114,70.516296 
z"/>
<path fill="#E04633" opacity="1.000000" stroke="none" 
	d="
M147.920212,25.675468 
	C135.913849,38.016212 123.806023,50.079803 111.302963,62.286102 
	C109.876160,61.200592 108.844604,59.972366 107.724197,58.433887 
	C109.261497,57.077606 111.126198,56.274033 112.475327,54.946491 
	C121.712547,45.857063 130.818329,36.634178 140.030746,27.519287 
	C141.410049,26.154587 143.125977,25.130138 145.059784,23.873550 
	C146.228516,24.331976 147.023621,24.865145 147.920212,25.675468 
z"/>
<path fill="#C23525" opacity="1.000000" stroke="none" 
	d="
M155.013809,38.003654 
	C155.350113,39.745461 155.686432,41.487267 155.665436,43.619461 
	C154.530701,44.225483 153.507828,44.196430 153.012527,44.693298 
	C145.112473,52.618309 137.277328,60.608059 129.455200,68.610245 
	C129.332275,68.736008 129.558853,69.203407 129.710632,69.939690 
	C131.079071,69.939690 132.528580,69.939690 134.002808,70.123573 
	C134.027542,70.307457 134.048325,70.677948 134.048325,70.677948 
	C130.907700,70.641273 127.767082,70.604591 124.307518,69.934128 
	C124.775658,67.584007 125.174774,65.492050 126.413315,64.212784 
	C133.999771,56.376850 141.714325,48.660995 149.545502,41.069473 
	C150.995941,39.663441 153.172424,39.006390 155.013809,38.003654 
z"/>
<path fill="#CF3C2A" opacity="1.000000" stroke="none" 
	d="
M275.109161,67.561035 
	C275.488068,65.824585 275.684967,63.960365 276.713654,62.913624 
	C286.946777,52.501160 297.311829,42.218193 307.667786,31.927008 
	C308.106628,31.490911 308.821442,31.332479 309.759644,31.004795 
	C310.773163,32.073685 311.434692,33.182484 312.103851,34.626053 
	C310.862701,35.685844 309.394409,36.188461 308.399414,37.170593 
	C299.312286,46.140327 290.275360,55.161839 281.320831,64.263687 
	C280.244263,65.357964 279.744476,67.019699 278.956970,68.794907 
	C277.728760,68.718475 276.520966,68.265564 275.109161,67.561035 
z"/>
<path fill="#CA3928" opacity="1.000000" stroke="none" 
	d="
M234.085846,37.650711 
	C232.681686,38.500259 230.997177,38.639469 230.069000,39.549805 
	C220.994507,48.449997 212.029846,57.462719 203.097382,66.506088 
	C202.477905,67.133263 202.364899,68.260704 202.014404,69.512085 
	C200.782776,69.548943 199.553131,69.229225 198.091568,68.692047 
	C198.769638,66.620056 199.284882,64.381851 200.653854,62.973469 
	C209.329102,54.048615 218.141663,45.254494 227.052322,36.564274 
	C228.340759,35.307720 230.399155,34.840672 232.472870,34.009308 
	C233.281830,35.106293 233.719162,36.202251 234.085846,37.650711 
z"/>
<path fill="#B22C1D" opacity="1.000000" stroke="none" 
	d="
M293.289185,70.522308 
	C292.165405,70.342926 291.394989,70.160362 290.349091,69.635223 
	C296.950989,62.149921 303.793671,54.972916 310.760681,47.918652 
	C311.441071,47.229702 312.887299,47.297085 313.978058,47.013412 
	C312.392212,58.258537 307.690216,66.408852 293.289185,70.522308 
z"/>
<path fill="#D13D2B" opacity="1.000000" stroke="none" 
	d="
M116.224747,67.020493 
	C116.674751,65.368851 117.004593,63.615551 118.043144,62.558716 
	C127.766663,52.664078 137.588043,42.864899 147.458176,33.116119 
	C148.437180,32.149143 149.928223,31.700579 151.540146,31.007557 
	C152.337372,32.059032 152.776077,33.114349 152.856537,34.561020 
	C151.576385,35.250584 150.371902,35.273880 149.774612,35.887863 
	C139.346909,46.606983 128.993576,57.398472 118.624062,68.174210 
	C117.893829,67.863449 117.163597,67.552696 116.224747,67.020493 
z"/>
<path fill="#B22C1D" opacity="1.000000" stroke="none" 
	d="
M214.318329,70.512329 
	C213.814896,70.295334 213.620819,70.132698 213.195648,69.611176 
	C219.499146,62.481434 225.976501,55.760765 232.501953,49.087109 
	C232.754913,48.828403 233.469193,49.020802 233.975937,49.254131 
	C234.136688,49.968628 234.290039,50.431995 234.443390,50.895363 
	C233.486420,53.422791 232.835785,56.124748 231.514145,58.444393 
	C227.785599,64.988495 221.748215,68.520020 214.318329,70.512329 
z"/>
<path fill="#C93927" opacity="1.000000" stroke="none" 
	d="
M118.873413,68.439484 
	C128.993576,57.398472 139.346909,46.606983 149.774612,35.887863 
	C150.371902,35.273880 151.576385,35.250584 152.880234,34.919136 
	C153.894836,35.695396 154.527481,36.504898 155.086975,37.659027 
	C153.172424,39.006390 150.995941,39.663441 149.545502,41.069473 
	C141.714325,48.660995 133.999771,56.376850 126.413315,64.212784 
	C125.174774,65.492050 124.775658,67.584007 123.980347,69.687088 
	C122.355667,69.617477 120.739212,69.161118 118.873413,68.439484 
z"/>
<path fill="#B12B1C" opacity="1.000000" stroke="none" 
	d="
M57.542789,69.910904 
	C56.411308,70.028763 55.614151,69.992233 54.447647,69.611786 
	C59.669014,63.395092 65.203354,57.466839 70.889473,51.687923 
	C72.338554,50.215199 74.269089,49.216194 75.980515,48.365929 
	C75.975037,49.709023 75.967468,50.685722 75.959900,51.662426 
	C73.704559,61.463688 67.500046,67.318253 57.542789,69.910904 
z"/>
<path fill="#B22C1D" opacity="1.000000" stroke="none" 
	d="
M134.415970,70.712730 
	C134.048325,70.677948 134.027542,70.307457 134.047119,69.786316 
	C138.968140,64.086273 143.792557,58.830997 148.811874,53.768974 
	C150.623428,51.942013 152.902634,50.578758 155.044128,49.201981 
	C155.249329,49.664028 155.445496,49.861916 155.708313,49.993721 
	C153.048370,61.262135 146.003754,68.109779 134.415970,70.712730 
z"/>
<path fill="#BA2F1F" opacity="1.000000" stroke="none" 
	d="
M314.106384,46.608986 
	C312.887299,47.297085 311.441071,47.229702 310.760681,47.918652 
	C303.793671,54.972916 296.950989,62.149921 290.042938,69.634758 
	C288.558136,69.976860 287.103973,69.976860 284.434357,69.976860 
	C286.045593,67.581032 286.872070,65.875526 288.122070,64.578041 
	C292.912781,59.605309 297.687500,54.597980 302.770691,49.933189 
	C305.975861,46.991840 309.718262,44.635937 313.583252,42.015884 
	C314.042755,43.411091 314.138733,44.807823 314.106384,46.608986 
z"/>
<path fill="#B92E1E" opacity="1.000000" stroke="none" 
	d="
M75.978416,47.999542 
	C74.269089,49.216194 72.338554,50.215199 70.889473,51.687923 
	C65.203354,57.466839 59.669014,63.395092 54.048988,69.606552 
	C52.559288,69.945229 51.098904,69.945229 49.168575,69.945229 
	C49.603504,68.513115 49.602821,67.350105 50.183914,66.777969 
	C58.043365,59.039581 65.968979,51.367970 73.937500,43.741768 
	C74.459785,43.241913 75.463364,43.244942 76.608849,43.012993 
	C77.030075,44.400429 77.085510,45.788925 76.791580,47.583427 
	C76.442223,47.989433 75.978416,47.999542 75.978416,47.999542 
z"/>
<path fill="#B82D1E" opacity="1.000000" stroke="none" 
	d="
M154.968430,49.003891 
	C152.902634,50.578758 150.623428,51.942013 148.811874,53.768974 
	C143.792557,58.830997 138.968140,64.086273 134.022369,69.602432 
	C132.528580,69.939690 131.079071,69.939690 129.710632,69.939690 
	C129.558853,69.203407 129.332275,68.736008 129.455200,68.610245 
	C137.277328,60.608059 145.112473,52.618309 153.012527,44.693298 
	C153.507828,44.196430 154.530701,44.225483 155.676483,44.008499 
	C156.065247,45.398560 156.085632,46.789974 155.756271,48.584137 
	C155.406525,48.986877 154.968430,49.003891 154.968430,49.003891 
z"/>
<path fill="#B82D1E" opacity="1.000000" stroke="none" 
	d="
M233.968521,49.003006 
	C233.469193,49.020802 232.754913,48.828403 232.501953,49.087109 
	C225.976501,55.760765 219.499146,62.481434 213.014130,69.548882 
	C211.562500,69.903816 210.110184,69.903816 208.743561,69.903816 
	C208.574753,69.226875 208.332077,68.760002 208.447006,68.642296 
	C216.271118,60.629356 224.108505,52.629089 232.011047,44.693741 
	C232.506439,44.196312 233.530502,44.225384 234.677032,44.008461 
	C235.064346,45.398254 235.083221,46.789085 234.753967,48.582954 
	C234.405807,48.985992 233.968521,49.003006 233.968521,49.003006 
z"/>
<path fill="#C63727" opacity="1.000000" stroke="none" 
	d="
M75.980515,48.365929 
	C75.978416,47.999542 76.442223,47.989433 76.674164,47.986626 
	C76.761543,49.068893 76.616982,50.153973 76.216156,51.450737 
	C75.967468,50.685722 75.975037,49.709023 75.980515,48.365929 
z"/>
<path fill="#C33625" opacity="1.000000" stroke="none" 
	d="
M233.975937,49.254135 
	C233.968521,49.003006 234.405807,48.985992 234.624603,48.983337 
	C234.840347,49.431156 234.837265,49.881626 234.638779,50.613731 
	C234.290039,50.431995 234.136688,49.968628 233.975937,49.254135 
z"/>
<path fill="#F65842" opacity="1.000000" stroke="none" 
	d="
M25.149155,49.331635 
	C25.397125,49.359917 25.602552,49.699196 25.785797,50.346855 
	C25.544613,50.317696 25.325611,49.980164 25.149155,49.331635 
z"/>
<path fill="#F65842" opacity="1.000000" stroke="none" 
	d="
M104.174126,49.330788 
	C104.416901,49.358868 104.617920,49.693939 104.802353,50.332733 
	C104.567978,50.303562 104.350174,49.970673 104.174126,49.330788 
z"/>
<path fill="#C23525" opacity="1.000000" stroke="none" 
	d="
M155.044128,49.201981 
	C154.968430,49.003891 155.406525,48.986877 155.625732,48.984367 
	C155.880386,49.158298 155.915848,49.334743 155.829803,49.752457 
	C155.445496,49.861916 155.249329,49.664028 155.044128,49.201981 
z"/>
<path fill="#F65842" opacity="1.000000" stroke="none" 
	d="
M183.170837,49.330429 
	C183.414246,49.358730 183.615784,49.694160 183.799561,50.333794 
	C183.564163,50.304516 183.346558,49.971035 183.170837,49.330429 
z"/>
<path fill="#F65842" opacity="1.000000" stroke="none" 
	d="
M262.168274,49.329994 
	C262.412750,49.357788 262.614990,49.693047 262.800232,50.332653 
	C262.564178,50.303822 262.345123,49.970638 262.168274,49.329994 
z"/>
</svg>