<svg version="1.1" id="Layer_1" xmlns="http://www.w3.org/2000/svg" xmlns:xlink="http://www.w3.org/1999/xlink" x="0px" y="0px"
	 width="100%" viewBox="0 0 436 81" enable-background="new 0 0 436 81" xml:space="preserve">
<path fill="#FFFEFE" opacity="1.000000" stroke="none" 
	d="
M323.000000,82.000000 
	C215.333344,82.000000 108.166695,82.000000 1.000029,82.000000 
	C1.000019,55.000015 1.000019,28.000032 1.000010,1.000036 
	C146.333298,1.000024 291.666595,1.000024 436.999939,1.000012 
	C436.999939,27.999964 436.999939,54.999928 436.999969,81.999947 
	C399.166656,82.000000 361.333344,82.000000 323.000000,82.000000 
M166.104721,47.180477 
	C166.084396,45.789665 166.064072,44.398849 166.021896,42.229908 
	C165.685654,40.487827 165.349426,38.745747 165.159271,36.314491 
	C164.526718,35.505054 163.894180,34.695618 163.214020,33.169971 
	C162.775391,32.114555 162.336777,31.059141 161.952225,29.338139 
	C160.641968,27.876514 159.331726,26.414890 157.818344,24.398968 
	C157.023163,23.865686 156.227966,23.332407 155.015518,22.225962 
	C152.678772,21.169895 150.342041,20.113827 147.390427,18.635225 
	C145.928375,18.423586 144.466309,18.211946 142.373016,17.628922 
	C126.730576,16.800583 113.796181,28.392332 113.893433,43.835594 
	C114.001099,45.231651 114.108765,46.627708 114.133179,48.637489 
	C114.350830,48.970295 114.568489,49.303104 114.722275,50.247997 
	C114.897865,50.834736 115.073456,51.421474 115.248825,52.653034 
	C116.044571,54.143158 116.840317,55.633282 117.813850,57.743874 
	C118.845436,58.972214 119.877022,60.200550 121.237167,62.045898 
	C122.830193,63.296745 124.423210,64.547592 126.477486,66.268272 
	C127.656044,66.797256 128.834595,67.326233 130.587372,68.268196 
	C131.715714,68.536530 132.844040,68.804871 134.626892,69.566971 
	C137.767487,69.603867 140.908081,69.640762 144.778305,69.748520 
	C156.000748,67.111992 163.044250,60.261250 165.950592,48.510544 
	C165.915100,48.333946 165.879608,48.157345 166.104721,47.180477 
M245.187347,46.182037 
	C245.130142,44.791187 245.072937,43.400333 245.179916,41.252785 
	C244.521469,39.475887 243.863037,37.698990 243.136276,35.220627 
	C242.750793,34.147892 242.365295,33.075157 242.089844,31.322769 
	C241.056183,29.883467 240.022537,28.444162 238.789795,26.387068 
	C237.323822,25.185045 235.857849,23.983025 234.002747,22.224621 
	C232.209305,21.393021 230.415848,20.561420 228.052185,19.192854 
	C226.036255,18.795120 224.020309,18.397388 221.373123,17.627945 
	C205.736908,16.787533 192.804626,28.376631 192.890686,43.835678 
	C192.998276,45.231609 193.105865,46.627537 193.129990,48.637505 
	C193.347565,48.970833 193.565125,49.304157 193.731247,50.298904 
	C194.104935,51.300976 194.478622,52.303051 194.902817,53.981354 
	C195.921692,55.685360 196.940567,57.389366 198.110199,59.688122 
	C199.122665,60.638538 200.135147,61.588955 201.419250,63.150772 
	C203.284302,64.403534 205.149368,65.656288 207.461029,67.365952 
	C208.248169,67.614281 209.035309,67.862617 210.392563,68.649826 
	C215.330948,68.795448 220.269348,68.941071 225.942535,69.106773 
	C235.185623,66.157616 241.798431,60.627552 244.518478,50.336796 
	C244.658585,49.220154 244.798691,48.103516 245.187347,46.182037 
M403.101654,47.153603 
	C403.070557,45.439663 403.039459,43.725727 403.171631,41.218620 
	C402.468475,38.773167 401.765320,36.327713 401.069519,33.225117 
	C400.416504,32.138348 399.763458,31.051579 398.970337,29.329292 
	C397.994049,28.213692 397.017761,27.098093 395.815887,25.395269 
	C394.683960,24.532515 393.552032,23.669760 392.020203,22.240992 
	C390.232208,21.365471 388.444244,20.489950 386.038605,19.152330 
	C384.026978,18.768887 382.015381,18.385445 379.373413,17.628653 
	C363.742798,16.781567 350.806641,28.370691 350.884277,43.835186 
	C350.992950,45.231030 351.101624,46.626873 351.126526,48.637730 
	C351.345642,48.970764 351.564728,49.303799 351.731323,50.297977 
	C352.099396,51.299686 352.467499,52.301399 352.873718,53.921127 
	C353.457214,54.989872 354.040710,56.058617 354.807068,57.746143 
	C355.837769,58.971745 356.868439,60.197350 358.238434,62.059868 
	C360.127014,63.477036 362.015594,64.894203 364.313507,66.813560 
	C365.522095,67.264862 366.730682,67.716164 368.497131,68.692230 
	C372.683014,69.022278 376.868896,69.352325 381.781799,69.748260 
	C386.013550,67.658447 391.160095,66.450333 394.242157,63.252468 
	C397.974182,59.380131 399.960327,53.825165 402.948364,48.512192 
	C402.913513,48.334045 402.878693,48.155899 403.101654,47.153603 
M87.140007,46.179497 
	C87.084686,44.790310 87.029366,43.401127 87.133484,41.221050 
	C86.434196,38.792000 85.734917,36.362949 85.037758,33.270817 
	C84.380630,32.172195 83.723503,31.073576 82.937904,29.338972 
	C81.964607,28.224180 80.991310,27.109388 79.806305,25.409832 
	C78.673988,24.558424 77.541679,23.707014 76.010559,22.280006 
	C74.211754,21.395082 72.412949,20.510159 70.004723,19.158501 
	C68.003876,18.774193 66.003036,18.389885 63.367188,17.633478 
	C47.281937,16.753262 34.379936,28.749142 34.846115,44.802578 
	C34.961525,45.875286 35.076939,46.947998 35.107533,48.642467 
	C35.326439,48.979881 35.545345,49.317295 35.667015,50.260582 
	C35.845009,50.843655 36.023003,51.426731 36.206718,52.691879 
	C37.171951,54.449982 38.137188,56.208080 39.244324,58.603279 
	C40.836853,60.277550 42.429379,61.951820 44.435757,64.175362 
	C45.583179,64.897743 46.730602,65.620132 48.297737,66.840904 
	C49.508331,67.291489 50.718925,67.742065 52.496731,68.708984 
	C57.400234,68.827667 62.303741,68.946350 67.872452,68.761848 
	C70.950722,67.360313 74.297226,66.351273 77.048401,64.471115 
	C81.956474,61.116932 85.006317,56.284256 86.636536,49.823887 
	C86.726181,48.878056 86.815819,47.932224 87.140007,46.179497 
M324.233765,45.204254 
	C324.137909,43.807629 324.042053,42.411003 324.087830,40.255867 
	C323.428833,38.157597 322.769836,36.059322 322.095428,33.291531 
	C321.433960,32.182716 320.772461,31.073900 319.969879,29.329805 
	C318.995270,28.214123 318.020630,27.098440 316.829132,25.403288 
	C315.707428,24.549582 314.585724,23.695875 313.052460,22.267775 
	C311.253937,21.382984 309.455383,20.498194 307.038361,19.152609 
	C305.026917,18.768286 303.015472,18.383963 300.372894,17.627895 
	C284.741394,16.785007 271.801239,28.380003 271.888611,43.835415 
	C271.996155,45.231167 272.103699,46.626919 272.127045,48.637356 
	C272.346069,48.970394 272.565125,49.303429 272.734406,50.297047 
	C273.102753,51.297108 273.471069,52.297173 273.893097,53.970119 
	C274.913086,55.676842 275.933075,57.383564 277.127869,59.722488 
	C278.374023,60.940479 279.620178,62.158470 281.183044,63.922867 
	C282.423828,64.718124 283.664642,65.513374 285.313416,66.811813 
	C286.521240,67.264771 287.729034,67.717728 289.495026,68.696815 
	C293.975067,68.972847 298.455078,69.248886 303.641998,69.518173 
	C317.690521,65.407516 322.390381,57.258804 324.233765,45.204254 
z"/>
<path fill="#E74B37" opacity="1.000000" stroke="none" 
	d="
M197.959442,59.093369 
	C196.940567,57.389366 195.921692,55.685360 195.026123,53.317627 
	C201.982895,45.719353 208.756088,38.723942 215.672272,31.872908 
	C219.874802,27.709948 224.298218,23.769964 228.622406,19.729818 
	C230.415848,20.561420 232.209305,21.393021 233.867188,22.659130 
	C221.807571,35.093548 209.883514,47.093460 197.959442,59.093369 
z"/>
<path fill="#EE4E3A" opacity="1.000000" stroke="none" 
	d="
M64.002190,18.005577 
	C66.003036,18.389885 68.003876,18.774193 69.973724,19.583549 
	C59.888088,30.240192 49.859901,40.498180 39.728683,50.653385 
	C38.916058,51.467937 37.393597,51.574329 36.200996,52.009804 
	C36.023003,51.426731 35.845009,50.843655 35.737526,49.649426 
	C35.602806,48.699081 35.397575,48.359894 35.192348,48.020706 
	C35.076939,46.947998 34.961525,45.875286 35.269646,44.367493 
	C41.074390,38.841846 46.403389,33.694523 51.854259,28.679672 
	C55.820175,25.030994 59.947067,21.557291 64.002190,18.005577 
z"/>
<path fill="#EE4F3A" opacity="1.000000" stroke="none" 
	d="
M228.337296,19.461336 
	C224.298218,23.769964 219.874802,27.709948 215.672272,31.872908 
	C208.756088,38.723942 201.982895,45.719353 195.000870,52.979511 
	C194.478622,52.303051 194.104935,51.300976 193.774353,49.664158 
	C193.616119,48.694096 193.414795,48.358780 193.213440,48.023460 
	C193.105865,46.627537 192.998276,45.231609 193.317490,43.381039 
	C199.239502,37.706921 204.623032,32.362606 210.269455,27.312197 
	C213.985031,23.988811 218.079544,21.089088 222.004379,17.999655 
	C224.020309,18.397388 226.036255,18.795120 228.337296,19.461336 
z"/>
<path fill="#C53726" opacity="1.000000" stroke="none" 
	d="
M381.054779,69.682381 
	C376.868896,69.352325 372.683014,69.022278 368.262878,68.066460 
	C368.694122,66.130394 369.071472,64.522583 370.069641,63.555744 
	C380.342834,53.605061 390.716492,43.758118 401.062164,33.882267 
	C401.765320,36.327713 402.468475,38.773167 402.724152,41.615883 
	C401.495514,42.237923 400.471436,42.220383 399.969482,42.723633 
	C391.762390,50.951767 383.618713,59.243156 375.488129,67.547142 
	C375.357361,67.680664 375.569061,68.149490 375.699005,68.931847 
	C377.413055,68.931847 379.197113,68.931847 381.007172,69.118736 
	C381.033142,69.305626 381.054779,69.682381 381.054779,69.682381 
z"/>
<path fill="#C63727" opacity="1.000000" stroke="none" 
	d="
M67.207245,69.065025 
	C62.303741,68.946350 57.400234,68.827667 52.235130,68.072891 
	C52.970089,65.803520 53.706455,63.917278 55.007015,62.579571 
	C61.586243,55.812439 68.238274,49.111603 75.019333,42.547169 
	C78.177681,39.489712 81.685966,36.793732 85.035637,33.933899 
	C85.734917,36.362949 86.434196,38.792000 86.687515,41.617760 
	C85.059654,42.542870 83.614914,42.798046 82.737106,43.642521 
	C75.147285,50.944168 67.638474,58.330803 60.182224,65.769005 
	C59.601349,66.348473 59.601196,67.510078 59.166256,68.945137 
	C61.089012,68.945137 62.554371,68.945137 64.418228,68.950371 
	C65.613571,68.992081 66.410408,69.028557 67.207245,69.065025 
z"/>
<path fill="#DE4532" opacity="1.000000" stroke="none" 
	d="
M198.034821,59.390747 
	C209.883514,47.093460 221.807571,35.093548 234.061752,22.937321 
	C235.857849,23.983025 237.323822,25.185045 238.545731,26.731350 
	C230.866867,34.053776 223.395813,40.993824 216.009888,48.023296 
	C210.994019,52.797081 206.097519,57.696266 201.147629,62.539371 
	C200.135147,61.588955 199.122665,60.638538 198.034821,59.390747 
z"/>
<path fill="#DF4632" opacity="1.000000" stroke="none" 
	d="
M313.464020,22.842155 
	C314.585724,23.695875 315.707428,24.549582 316.632538,25.839542 
	C305.157684,37.486187 293.860107,48.677345 282.639069,59.944698 
	C281.772888,60.814461 281.444641,62.219975 280.866333,63.376465 
	C279.620178,62.158470 278.374023,60.940479 277.179932,59.090477 
	C278.062805,57.232201 278.725586,55.839355 279.750488,54.805508 
	C289.673584,44.795780 299.632568,34.821056 309.663116,24.919212 
	C310.650940,23.944075 312.184021,23.521303 313.464020,22.842155 
z"/>
<path fill="#EE4F3A" opacity="1.000000" stroke="none" 
	d="
M273.839417,53.297241 
	C273.471069,52.297173 273.102753,51.297108 272.775848,49.662575 
	C272.615265,48.692963 272.413239,48.357819 272.211243,48.022675 
	C272.103699,46.626919 271.996155,45.231167 272.314667,43.381046 
	C280.015594,36.201241 287.249695,29.430792 294.592468,22.780300 
	C296.559418,20.998785 298.857788,19.583212 301.004028,17.999640 
	C303.015472,18.383963 305.026917,18.768286 306.993622,19.555347 
	C295.912384,31.071138 284.875916,42.184189 273.839417,53.297241 
z"/>
<path fill="#EE4F3A" opacity="1.000000" stroke="none" 
	d="
M380.003754,18.002001 
	C382.015381,18.385445 384.026978,18.768887 385.993469,19.555462 
	C374.910767,31.073431 363.873169,42.188267 352.835571,53.303108 
	C352.467499,52.301399 352.099396,51.299686 351.774261,49.663094 
	C351.614899,48.693043 351.412598,48.357880 351.210297,48.022720 
	C351.101624,46.626873 350.992950,45.231030 351.310883,43.381050 
	C359.013092,36.201962 366.247925,29.431986 373.591431,22.782028 
	C375.558594,21.000643 377.857269,19.585354 380.003754,18.002001 
z"/>
<path fill="#E84C38" opacity="1.000000" stroke="none" 
	d="
M117.636063,57.123405 
	C116.840317,55.633282 116.044571,54.143158 115.575668,52.282696 
	C126.413109,41.586246 136.931152,31.267656 147.406433,20.905851 
	C147.815338,20.501389 147.814972,19.683182 148.005295,19.057762 
	C150.342041,20.113827 152.678772,21.169895 154.850586,22.587242 
	C153.125504,24.130384 151.409637,25.154861 150.030365,26.519547 
	C140.818222,35.634197 131.712708,44.856819 122.475792,53.946014 
	C121.126671,55.273560 119.262123,56.077297 117.636063,57.123405 
z"/>
<path fill="#E74B37" opacity="1.000000" stroke="none" 
	d="
M273.866272,53.633682 
	C284.875916,42.184189 295.912384,31.071138 307.302856,19.785744 
	C309.455383,20.498194 311.253937,21.382984 313.258240,22.554960 
	C312.184021,23.521303 310.650940,23.944075 309.663116,24.919212 
	C299.632568,34.821056 289.673584,44.795780 279.750488,54.805508 
	C278.725586,55.839355 278.062805,57.232201 277.092529,58.774376 
	C275.933075,57.383564 274.913086,55.676842 273.866272,53.633682 
z"/>
<path fill="#E74B37" opacity="1.000000" stroke="none" 
	d="
M352.854645,53.612114 
	C363.873169,42.188267 374.910767,31.073431 386.302307,19.786514 
	C388.444244,20.489950 390.232208,21.365471 391.847473,22.597120 
	C390.115570,24.136549 388.401611,25.163475 387.022156,26.528425 
	C377.810181,35.643505 368.704559,44.866264 359.467133,53.955208 
	C358.118286,55.282391 356.251373,56.083069 354.624176,57.127365 
	C354.040710,56.058617 353.457214,54.989872 352.854645,53.612114 
z"/>
<path fill="#EE4F3A" opacity="1.000000" stroke="none" 
	d="
M147.697861,18.846493 
	C147.814972,19.683182 147.815338,20.501389 147.406433,20.905851 
	C136.931152,31.267656 126.413109,41.586246 115.575775,51.960285 
	C115.073456,51.421474 114.897865,50.834736 114.770599,49.638374 
	C114.618088,48.693752 114.417259,48.358761 114.216431,48.023766 
	C114.108765,46.627708 114.001099,45.231651 114.322868,43.382099 
	C117.921928,40.364395 121.203423,37.925198 124.237923,35.209961 
	C130.562561,29.550734 136.756561,23.745527 143.004257,18.000307 
	C144.466309,18.211946 145.928375,18.423586 147.697861,18.846493 
z"/>
<path fill="#D53F2D" opacity="1.000000" stroke="none" 
	d="
M201.283447,62.845070 
	C206.097519,57.696266 210.994019,52.797081 216.009888,48.023296 
	C223.395813,40.993824 230.866867,34.053776 238.645279,27.040247 
	C240.022537,28.444162 241.056183,29.883467 241.687012,31.698275 
	C238.561890,34.177212 235.608292,36.043140 233.159943,38.427822 
	C225.268875,46.113651 217.509277,53.937569 209.840393,61.845375 
	C208.540298,63.185978 207.938721,65.204002 207.014420,66.909050 
	C205.149368,65.656288 203.284302,64.403534 201.283447,62.845070 
z"/>
<path fill="#C63827" opacity="1.000000" stroke="none" 
	d="
M322.110809,33.961052 
	C322.769836,36.059322 323.428833,38.157597 323.653503,40.636665 
	C319.717896,43.636040 315.975677,45.992046 312.770630,48.933380 
	C307.687683,53.598087 302.913116,58.605259 298.122559,63.577805 
	C296.872589,64.875275 296.045959,66.580597 294.434143,68.976883 
	C297.104126,68.976883 298.558197,68.976883 300.318329,68.977341 
	C301.394623,69.160172 302.164886,69.342545 302.935120,69.524918 
	C298.455078,69.248886 293.975067,68.972847 289.236267,68.057327 
	C289.744720,66.019211 290.244659,64.357628 291.321259,63.263351 
	C300.275543,54.161812 309.312164,45.140564 318.398956,36.171082 
	C319.393951,35.188938 320.862122,34.686165 322.110809,33.961052 
z"/>
<path fill="#DF4734" opacity="1.000000" stroke="none" 
	d="
M76.409363,22.855602 
	C77.541679,23.707014 78.673988,24.558424 79.600990,25.838165 
	C78.535370,26.763521 77.520210,27.104385 76.837967,27.780958 
	C66.344742,38.186928 55.851929,48.594494 45.504059,59.143955 
	C44.514912,60.152367 44.492897,62.109428 44.021904,63.626091 
	C42.429379,61.951820 40.836853,60.277550 39.463005,58.136040 
	C50.174789,47.225529 60.634525,36.748264 71.199387,26.378098 
	C72.670845,24.933758 74.659912,24.016733 76.409363,22.855602 
z"/>
<path fill="#D8412F" opacity="1.000000" stroke="none" 
	d="
M396.041443,25.982496 
	C397.017761,27.098093 397.994049,28.213692 398.688477,29.687019 
	C397.820374,30.332651 397.105682,30.491266 396.666779,30.927420 
	C386.310608,41.218880 375.945312,51.502094 365.711975,61.914856 
	C364.683289,62.961605 364.486847,64.826279 363.904175,66.311371 
	C362.015594,64.894203 360.127014,63.477036 358.473114,61.609116 
	C360.096924,59.980556 361.573730,58.890892 362.861176,57.610821 
	C372.077026,48.447781 381.218201,39.209297 390.477844,30.091013 
	C392.104065,28.489643 394.175568,27.340492 396.041443,25.982496 
z"/>
<path fill="#D94230" opacity="1.000000" stroke="none" 
	d="
M126.016235,65.798439 
	C124.423210,64.547592 122.830193,63.296745 121.467972,61.594475 
	C133.806335,49.079784 145.913895,37.016525 158.021469,24.953264 
	C159.331726,26.414890 160.641968,27.876514 161.566711,29.674791 
	C159.927826,30.700706 158.436890,31.149422 157.457855,32.116417 
	C147.587982,41.864960 137.766861,51.663914 128.043579,61.558289 
	C127.004997,62.615139 126.674965,64.368301 126.016235,65.798439 
z"/>
<path fill="#DF4632" opacity="1.000000" stroke="none" 
	d="
M395.928650,25.688885 
	C394.175568,27.340492 392.104065,28.489643 390.477844,30.091013 
	C381.218201,39.209297 372.077026,48.447781 362.861176,57.610821 
	C361.573730,58.890892 360.096924,59.980556 358.303467,61.290657 
	C356.868439,60.197350 355.837769,58.971745 354.715637,57.436752 
	C356.251373,56.083069 358.118286,55.282391 359.467133,53.955208 
	C368.704559,44.866264 377.810181,35.643505 387.022156,26.528425 
	C388.401611,25.163475 390.115570,24.136549 392.047424,22.880127 
	C393.552032,23.669760 394.683960,24.532515 395.928650,25.688885 
z"/>
<path fill="#F65842" opacity="1.000000" stroke="none" 
	d="
M63.684689,17.819527 
	C59.947067,21.557291 55.820175,25.030994 51.854259,28.679672 
	C46.403389,33.694523 41.074390,38.841846 35.349068,43.968102 
	C34.379936,28.749142 47.281937,16.753262 63.684689,17.819527 
z"/>
<path fill="#E74B37" opacity="1.000000" stroke="none" 
	d="
M76.209961,22.567804 
	C74.659912,24.016733 72.670845,24.933758 71.199387,26.378098 
	C60.634525,36.748264 50.174789,47.225529 39.392052,57.817490 
	C38.137188,56.208080 37.171951,54.449982 36.203857,52.350842 
	C37.393597,51.574329 38.916058,51.467937 39.728683,50.653385 
	C49.859901,40.498180 59.888088,30.240192 70.278442,19.816917 
	C72.412949,20.510159 74.211754,21.395082 76.209961,22.567804 
z"/>
<path fill="#F65842" opacity="1.000000" stroke="none" 
	d="
M142.688629,17.814613 
	C136.756561,23.745527 130.562561,29.550734 124.237923,35.209961 
	C121.203423,37.925198 117.921928,40.364395 114.404190,42.967522 
	C113.796181,28.392332 126.730576,16.800583 142.688629,17.814613 
z"/>
<path fill="#F65842" opacity="1.000000" stroke="none" 
	d="
M300.688477,17.813766 
	C298.857788,19.583212 296.559418,20.998785 294.592468,22.780300 
	C287.249695,29.430792 280.015594,36.201241 272.395447,42.966518 
	C271.801239,28.380003 284.741394,16.785007 300.688477,17.813766 
z"/>
<path fill="#CF3C2B" opacity="1.000000" stroke="none" 
	d="
M85.036697,33.602356 
	C81.685966,36.793732 78.177681,39.489712 75.019333,42.547169 
	C68.238274,49.111603 61.586243,55.812439 55.007015,62.579571 
	C53.706455,63.917278 52.970089,65.803520 51.951527,67.814720 
	C50.718925,67.742065 49.508331,67.291489 48.122879,66.197952 
	C49.087067,63.415325 49.816238,60.880318 51.434341,59.202690 
	C59.514317,50.825470 67.751060,42.594170 76.115807,34.500832 
	C78.066338,32.613586 80.730537,31.463961 83.066376,29.974953 
	C83.723503,31.073576 84.380630,32.172195 85.036697,33.602356 
z"/>
<path fill="#F65842" opacity="1.000000" stroke="none" 
	d="
M379.688599,17.815327 
	C377.857269,19.585354 375.558594,21.000643 373.591431,22.782028 
	C366.247925,29.431986 359.013092,36.201962 351.391907,42.966473 
	C350.806641,28.370691 363.742798,16.781567 379.688599,17.815327 
z"/>
<path fill="#C53727" opacity="1.000000" stroke="none" 
	d="
M225.207733,69.086693 
	C220.269348,68.941071 215.330948,68.795448 210.396713,68.194489 
	C220.568344,57.395618 230.724670,47.041027 240.936203,36.741165 
	C241.447510,36.225430 242.437485,36.184238 243.204590,35.922096 
	C243.863037,37.698990 244.521469,39.475887 244.731445,41.632248 
	C243.500351,42.236298 242.473846,42.217773 241.971512,42.721741 
	C233.754501,50.965202 225.601181,59.272175 217.461365,67.592094 
	C217.333618,67.722672 217.555435,68.195259 217.697037,68.950447 
	C219.080948,68.950447 220.548401,68.950447 222.415268,68.955917 
	C223.612350,69.003159 224.410049,69.044922 225.207733,69.086693 
z"/>
<path fill="#F65842" opacity="1.000000" stroke="none" 
	d="
M221.688751,17.813801 
	C218.079544,21.089088 213.985031,23.988811 210.269455,27.312197 
	C204.623032,32.362606 199.239502,37.706921 193.398712,42.966469 
	C192.804626,28.376631 205.736908,16.787533 221.688751,17.813801 
z"/>
<path fill="#D7412E" opacity="1.000000" stroke="none" 
	d="
M281.024689,63.649670 
	C281.444641,62.219975 281.772888,60.814461 282.639069,59.944698 
	C293.860107,48.677345 305.157684,37.486187 316.740967,26.129276 
	C318.020630,27.098440 318.995270,28.214123 319.688507,29.687382 
	C318.820923,30.332792 318.106201,30.491318 317.667358,30.927441 
	C307.311737,41.218296 296.947021,51.500938 286.714203,61.913071 
	C285.685516,62.959805 285.488434,64.823868 284.905426,66.308624 
	C283.664642,65.513374 282.423828,64.718124 281.024689,63.649670 
z"/>
<path fill="#D7412F" opacity="1.000000" stroke="none" 
	d="
M83.002136,29.656963 
	C80.730537,31.463961 78.066338,32.613586 76.115807,34.500832 
	C67.751060,42.594170 59.514317,50.825470 51.434341,59.202690 
	C49.816238,60.880318 49.087067,63.415325 47.913025,65.948761 
	C46.730602,65.620132 45.583179,64.897743 44.228828,63.900726 
	C44.492897,62.109428 44.514912,60.152367 45.504059,59.143955 
	C55.851929,48.594494 66.344742,38.186928 76.837967,27.780958 
	C77.520210,27.104385 78.535370,26.763521 79.706841,26.130547 
	C80.991310,27.109388 81.964607,28.224180 83.002136,29.656963 
z"/>
<path fill="#E04633" opacity="1.000000" stroke="none" 
	d="
M157.919907,24.676117 
	C145.913895,37.016525 133.806335,49.079784 121.303680,61.285965 
	C119.877022,60.200550 118.845436,58.972214 117.724960,57.433640 
	C119.262123,56.077297 121.126671,55.273560 122.475792,53.946014 
	C131.712708,44.856819 140.818222,35.634197 150.030365,26.519547 
	C151.409637,25.154861 153.125504,24.130384 155.059235,22.873825 
	C156.227966,23.332407 157.023163,23.865686 157.919907,24.676117 
z"/>
<path fill="#C23525" opacity="1.000000" stroke="none" 
	d="
M144.048676,69.677658 
	C140.908081,69.640762 137.767487,69.603867 134.307785,68.933395 
	C134.775848,66.583534 135.175110,64.491714 136.413651,63.212444 
	C143.999893,55.376759 151.714188,47.661118 159.545120,40.069798 
	C160.995544,38.663738 163.171890,38.006508 165.013184,37.003670 
	C165.349426,38.745747 165.685654,40.487827 165.664551,42.620117 
	C164.529877,43.226055 163.507217,43.197201 163.011902,43.694065 
	C155.112381,51.618385 147.277695,59.607410 139.456070,67.608879 
	C139.332901,67.734879 139.558990,68.202271 139.709641,68.937836 
	C141.078629,68.937836 142.527939,68.937836 144.002136,69.122116 
	C144.027008,69.306389 144.048676,69.677658 144.048676,69.677658 
z"/>
<path fill="#CF3C2A" opacity="1.000000" stroke="none" 
	d="
M364.108826,66.562462 
	C364.486847,64.826279 364.683289,62.961605 365.711975,61.914856 
	C375.945312,51.502094 386.310608,41.218880 396.666779,30.927420 
	C397.105682,30.491266 397.820374,30.332651 398.758484,30.004778 
	C399.763458,31.051579 400.416504,32.138348 401.065857,33.553696 
	C390.716492,43.758118 380.342834,53.605061 370.069641,63.555744 
	C369.071472,64.522583 368.694122,66.130394 367.983948,67.804077 
	C366.730682,67.716164 365.522095,67.264862 364.108826,66.562462 
z"/>
<path fill="#CF3C2A" opacity="1.000000" stroke="none" 
	d="
M285.109436,66.560219 
	C285.488434,64.823868 285.685516,62.959805 286.714203,61.913071 
	C296.947021,51.500938 307.311737,41.218296 317.667358,30.927441 
	C318.106201,30.491318 318.820923,30.332792 319.759064,30.005020 
	C320.772461,31.073900 321.433960,32.182716 322.103119,33.626289 
	C320.862122,34.686165 319.393951,35.188938 318.398956,36.171082 
	C309.312164,45.140564 300.275543,54.161812 291.321259,63.263351 
	C290.244659,64.357628 289.744720,66.019211 288.957184,67.794266 
	C287.729034,67.717728 286.521240,67.264771 285.109436,66.560219 
z"/>
<path fill="#B22C1D" opacity="1.000000" stroke="none" 
	d="
M303.288574,69.521545 
	C302.164886,69.342545 301.394623,69.160172 300.349030,68.635254 
	C306.950867,61.150108 313.793365,53.973236 320.760132,46.919075 
	C321.440643,46.230026 322.886658,46.296997 323.977356,46.013054 
	C322.390381,57.258804 317.690521,65.407516 303.288574,69.521545 
z"/>
<path fill="#CC3A28" opacity="1.000000" stroke="none" 
	d="
M243.170441,35.571362 
	C242.437485,36.184238 241.447510,36.225430 240.936203,36.741165 
	C230.724670,47.041027 220.568344,57.395618 210.111664,67.925049 
	C209.035309,67.862617 208.248169,67.614281 207.237732,67.137497 
	C207.938721,65.204002 208.540298,63.185978 209.840393,61.845375 
	C217.509277,53.937569 225.268875,46.113651 233.159943,38.427822 
	C235.608292,36.043140 238.561890,34.177212 241.631989,32.038101 
	C242.365295,33.075157 242.750793,34.147892 243.170441,35.571362 
z"/>
<path fill="#D13D2B" opacity="1.000000" stroke="none" 
	d="
M126.246864,66.033356 
	C126.674965,64.368301 127.004997,62.615139 128.043579,61.558289 
	C137.766861,51.663914 147.587982,41.864960 157.457855,32.116417 
	C158.436890,31.149422 159.927826,30.700706 161.539673,30.007584 
	C162.336777,31.059141 162.775391,32.114555 162.855896,33.561249 
	C161.329834,34.474442 159.889450,34.719810 159.035828,35.560780 
	C149.841843,44.618496 140.682800,53.714161 131.688629,62.968971 
	C130.603317,64.085739 130.546600,66.202126 130.013153,67.855217 
	C128.834595,67.326233 127.656044,66.797256 126.246864,66.033356 
z"/>
<path fill="#B22D1E" opacity="1.000000" stroke="none" 
	d="
M381.418274,69.715317 
	C381.054779,69.682381 381.033142,69.305626 381.018311,68.761108 
	C387.499878,61.495029 393.988251,54.765575 400.523682,48.082150 
	C400.772400,47.827766 401.475983,48.018124 402.040588,48.201256 
	C402.239899,48.669079 402.436005,48.868099 402.701965,48.998329 
	C399.960327,53.825165 397.974182,59.380131 394.242157,63.252468 
	C391.160095,66.450333 386.013550,67.658447 381.418274,69.715317 
z"/>
<path fill="#B22C1D" opacity="1.000000" stroke="none" 
	d="
M225.575134,69.096733 
	C224.410049,69.044922 223.612350,69.003159 222.445740,68.616714 
	C227.669434,62.396362 233.205383,56.464905 238.893967,50.683651 
	C240.343216,49.210781 242.276703,48.214401 243.988159,47.373032 
	C243.981552,48.743671 243.974472,49.740372 243.967407,50.737068 
	C241.798431,60.627552 235.185623,66.157616 225.575134,69.096733 
z"/>
<path fill="#C93927" opacity="1.000000" stroke="none" 
	d="
M130.300262,68.061707 
	C130.546600,66.202126 130.603317,64.085739 131.688629,62.968971 
	C140.682800,53.714161 149.841843,44.618496 159.035828,35.560780 
	C159.889450,34.719810 161.329834,34.474442 162.879700,33.919350 
	C163.894180,34.695618 164.526718,35.505054 165.086243,36.659081 
	C163.171890,38.006508 160.995544,38.663738 159.545120,40.069798 
	C151.714188,47.661118 143.999893,55.376759 136.413651,63.212444 
	C135.175110,64.491714 134.775848,66.583534 133.980530,68.686508 
	C132.844040,68.804871 131.715714,68.536530 130.300262,68.061707 
z"/>
<path fill="#B12B1C" opacity="1.000000" stroke="none" 
	d="
M67.539848,68.913437 
	C66.410408,69.028557 65.613571,68.992081 64.447601,68.611717 
	C69.670036,62.394146 75.205063,56.464813 80.892326,50.685291 
	C82.341408,49.212700 84.273445,48.215359 85.986336,47.418404 
	C86.037079,48.676086 86.085068,49.515018 86.133057,50.353954 
	C85.006317,56.284256 81.956474,61.116932 77.048401,64.471115 
	C74.297226,66.351273 70.950722,67.360313 67.539848,68.913437 
z"/>
<path fill="#B22D1E" opacity="1.000000" stroke="none" 
	d="
M144.413483,69.713089 
	C144.048676,69.677658 144.027008,69.306389 144.046936,68.785118 
	C148.968292,63.085407 153.792770,57.830650 158.811966,52.768993 
	C160.623566,50.942059 162.902451,49.578480 165.043945,48.201527 
	C165.249435,48.663490 165.445511,48.861584 165.708069,48.993877 
	C163.044250,60.261250 156.000748,67.111992 144.413483,69.713089 
z"/>
<path fill="#BA2F1F" opacity="1.000000" stroke="none" 
	d="
M324.105560,45.608650 
	C322.886658,46.296997 321.440643,46.230026 320.760132,46.919075 
	C313.793365,53.973236 306.950867,61.150108 300.042969,68.634796 
	C298.558197,68.976883 297.104126,68.976883 294.434143,68.976883 
	C296.045959,66.580597 296.872589,64.875275 298.122559,63.577805 
	C302.913116,58.605259 307.687683,53.598087 312.770630,48.933380 
	C315.975677,45.992046 319.717896,43.636040 323.582672,41.015923 
	C324.042053,42.411003 324.137909,43.807629 324.105560,45.608650 
z"/>
<path fill="#B92E1E" opacity="1.000000" stroke="none" 
	d="
M85.983582,46.999657 
	C84.273445,48.215359 82.341408,49.212700 80.892326,50.685291 
	C75.205063,56.464813 69.670036,62.394146 64.049095,68.606483 
	C62.554371,68.945137 61.089012,68.945137 59.166256,68.945137 
	C59.601196,67.510078 59.601349,66.348473 60.182224,65.769005 
	C67.638474,58.330803 75.147285,50.944168 82.737106,43.642521 
	C83.614914,42.798046 85.059654,42.542870 86.607796,42.013206 
	C87.029366,43.401127 87.084686,44.790310 86.792252,46.585472 
	C86.444496,46.991447 85.983582,46.999657 85.983582,46.999657 
z"/>
<path fill="#B82E1E" opacity="1.000000" stroke="none" 
	d="
M401.967590,48.001240 
	C401.475983,48.018124 400.772400,47.827766 400.523682,48.082150 
	C393.988251,54.765575 387.499878,61.495029 380.992310,68.574219 
	C379.197113,68.931847 377.413055,68.931847 375.699005,68.931847 
	C375.569061,68.149490 375.357361,67.680664 375.488129,67.547142 
	C383.618713,59.243156 391.762390,50.951767 399.969482,42.723633 
	C400.471436,42.220383 401.495514,42.237923 402.642517,42.012466 
	C403.039459,43.725727 403.070557,45.439663 402.753601,47.568703 
	C402.405579,47.983799 401.967590,48.001240 401.967590,48.001240 
z"/>
<path fill="#B92E1E" opacity="1.000000" stroke="none" 
	d="
M243.987686,46.999084 
	C242.276703,48.214401 240.343216,49.210781 238.893967,50.683651 
	C233.205383,56.464905 227.669434,62.396362 222.046326,68.611237 
	C220.548401,68.950447 219.080948,68.950447 217.697037,68.950447 
	C217.555435,68.195259 217.333618,67.722672 217.461365,67.592094 
	C225.601181,59.272175 233.754501,50.965202 241.971512,42.721741 
	C242.473846,42.217773 243.500351,42.236298 244.649353,42.010597 
	C245.072937,43.400333 245.130142,44.791187 244.825287,46.586952 
	C244.463211,46.991871 243.987686,46.999084 243.987686,46.999084 
z"/>
<path fill="#B72D1E" opacity="1.000000" stroke="none" 
	d="
M164.968079,48.003456 
	C162.902451,49.578480 160.623566,50.942059 158.811966,52.768993 
	C153.792770,57.830650 148.968292,63.085407 144.022049,68.600845 
	C142.527939,68.937836 141.078629,68.937836 139.709641,68.937836 
	C139.558990,68.202271 139.332901,67.734879 139.456070,67.608879 
	C147.277695,59.607410 155.112381,51.618385 163.011902,43.694065 
	C163.507217,43.197201 164.529877,43.226055 165.675476,43.009186 
	C166.064072,44.398849 166.084396,45.789665 165.755310,47.583298 
	C165.405914,47.986115 164.968079,48.003452 164.968079,48.003456 
z"/>
<path fill="#C53727" opacity="1.000000" stroke="none" 
	d="
M243.988159,47.373032 
	C243.987686,46.999084 244.463211,46.991871 244.701004,46.989372 
	C244.798691,48.103516 244.658585,49.220154 244.242950,50.536934 
	C243.974472,49.740372 243.981552,48.743671 243.988159,47.373032 
z"/>
<path fill="#C63727" opacity="1.000000" stroke="none" 
	d="
M85.986336,47.418404 
	C85.983582,46.999657 86.444496,46.991447 86.674973,46.988922 
	C86.815819,47.932224 86.726181,48.878056 86.384796,50.088921 
	C86.085068,49.515018 86.037079,48.676086 85.986336,47.418404 
z"/>
<path fill="#F65842" opacity="1.000000" stroke="none" 
	d="
M114.174805,48.330627 
	C114.417259,48.358761 114.618088,48.693752 114.802528,49.332329 
	C114.568489,49.303104 114.350830,48.970295 114.174805,48.330627 
z"/>
<path fill="#F65842" opacity="1.000000" stroke="none" 
	d="
M35.149940,48.331589 
	C35.397575,48.359894 35.602806,48.699081 35.786140,49.346489 
	C35.545345,49.317295 35.326439,48.979881 35.149940,48.331589 
z"/>
<path fill="#C23525" opacity="1.000000" stroke="none" 
	d="
M165.043945,48.201523 
	C164.968079,48.003452 165.405914,47.986115 165.625000,47.983429 
	C165.879608,48.157345 165.915100,48.333946 165.829330,48.752213 
	C165.445511,48.861584 165.249435,48.663490 165.043945,48.201523 
z"/>
<path fill="#F65842" opacity="1.000000" stroke="none" 
	d="
M193.171722,48.330482 
	C193.414795,48.358780 193.616119,48.694096 193.800064,49.333450 
	C193.565125,49.304157 193.347565,48.970833 193.171722,48.330482 
z"/>
<path fill="#F65842" opacity="1.000000" stroke="none" 
	d="
M272.169128,48.330017 
	C272.413239,48.357819 272.615265,48.692963 272.800720,49.332283 
	C272.565125,49.303429 272.346069,48.970394 272.169128,48.330017 
z"/>
<path fill="#F65842" opacity="1.000000" stroke="none" 
	d="
M351.168396,48.330223 
	C351.412598,48.357880 351.614899,48.693043 351.800537,49.332520 
	C351.564728,49.303799 351.345642,48.970764 351.168396,48.330223 
z"/>
<path fill="#C53726" opacity="1.000000" stroke="none" 
	d="
M402.040588,48.201256 
	C401.967590,48.001240 402.405579,47.983799 402.624756,47.980778 
	C402.878693,48.155899 402.913513,48.334045 402.825165,48.755260 
	C402.436005,48.868099 402.239899,48.669079 402.040588,48.201256 
z"/>
</svg>