<svg version="1.1" id="Layer_1" xmlns="http://www.w3.org/2000/svg" xmlns:xlink="http://www.w3.org/1999/xlink" x="0px" y="0px"
	 width="100%" viewBox="0 0 436 81" enable-background="new 0 0 436 81" xml:space="preserve">
<path fill="#F5F4DA" opacity="1.000000" stroke="none" 
	d="
M327.000000,82.000000 
	C218.000015,82.000000 109.500023,82.000000 1.000029,82.000000 
	C1.000019,55.000015 1.000019,28.000032 1.000010,1.000036 
	C146.333298,1.000024 291.666595,1.000024 436.999939,1.000012 
	C436.999939,27.999964 436.999939,54.999928 436.999969,81.999947 
	C400.500000,82.000000 364.000000,82.000000 327.000000,82.000000 
M394.064850,24.988003 
	C394.064850,24.988003 394.132904,24.955523 393.954681,24.439552 
	C393.641418,24.278690 393.328186,24.117830 393.002808,24.004654 
	C393.002808,24.004654 393.046234,23.981428 392.885803,23.574575 
	C392.681213,23.303535 392.419281,23.225952 391.465790,22.963326 
	C389.971497,22.308006 388.477203,21.652689 386.672760,20.838190 
	C386.672760,20.838190 386.331696,20.910225 386.075409,20.376337 
	C385.723999,20.280308 385.372589,20.184278 384.452240,19.958382 
	C384.064758,19.928144 383.677307,19.897905 382.985870,19.115330 
	C373.317230,15.832750 365.288849,19.248919 358.664307,25.958040 
	C351.461670,33.252617 349.175018,42.092522 352.957367,52.766853 
	C355.270050,59.768734 359.730530,64.739761 367.220673,67.772095 
	C368.506439,68.103012 369.792206,68.433922 371.844604,69.029243 
	C385.487946,71.542252 397.895325,64.310249 401.635773,51.321701 
	C402.421997,48.591606 401.752106,45.475712 402.106079,42.580738 
	C402.881134,36.241795 400.664673,31.180229 395.668488,26.674957 
	C395.436279,26.445990 395.205872,26.215197 394.962158,25.439390 
	C394.659760,25.264008 394.357330,25.088625 394.064850,24.988003 
M83.976860,32.460373 
	C83.744392,32.239750 83.511917,32.019127 83.282707,31.742052 
	C83.282707,31.742052 83.270195,31.686909 83.206291,30.996141 
	C81.260139,28.870756 79.313995,26.745371 77.228783,24.664192 
	C77.228783,24.664192 77.287560,24.797754 77.141098,24.231293 
	C76.774429,24.105713 76.407761,23.980135 76.046486,23.940405 
	C76.046486,23.940405 76.129662,23.918467 75.850121,23.342974 
	C75.254547,23.125732 74.658974,22.908491 74.098869,22.317205 
	C74.098869,22.317205 73.891273,22.004040 73.657684,21.345713 
	C68.591621,20.235260 63.473568,17.994347 58.469154,18.224497 
	C42.922199,18.939478 31.072136,36.541824 36.430504,50.877934 
	C37.602581,53.263268 38.774662,55.648598 40.066017,58.705833 
	C42.330051,60.808281 44.594090,62.910728 47.253250,65.496391 
	C47.826336,65.706566 48.399422,65.916740 48.971710,66.046661 
	C48.971710,66.046661 48.892467,66.059380 49.266659,66.678535 
	C65.061020,74.972908 84.954964,65.414230 86.497307,44.709805 
	C86.639961,42.794788 85.575813,40.789871 85.071297,38.156506 
	C84.821907,37.380253 84.572525,36.603996 84.263313,35.208221 
	C84.155258,34.807785 84.047203,34.407352 84.092735,33.478760 
	C84.028625,33.306988 83.964523,33.135212 83.976860,32.460373 
M158.958405,26.428938 
	C158.644257,26.241674 158.330093,26.054411 157.901291,25.382307 
	C157.706787,25.065695 157.424179,24.920078 156.872559,24.407156 
	C156.251556,24.024876 155.630539,23.642597 154.802933,22.910835 
	C154.802933,22.910835 154.411743,22.802259 154.130844,22.297792 
	C153.782516,22.162481 153.434204,22.027170 153.074234,21.875616 
	C153.074234,21.875616 153.095306,21.852640 152.690872,21.271402 
	C138.053375,13.674759 121.451683,19.909864 115.594757,35.493221 
	C115.352936,37.003567 115.111107,38.513912 114.550926,40.698620 
	C114.572670,41.190350 114.594406,41.682079 114.314011,42.854843 
	C114.519363,44.274185 114.724709,45.693527 114.867416,47.885162 
	C115.059685,48.894783 115.251945,49.904408 115.337517,51.617874 
	C117.072044,54.566410 118.806572,57.514942 120.753662,60.875618 
	C120.929565,61.139137 121.157600,61.344872 121.761200,62.086655 
	C124.473145,63.828781 127.185089,65.570908 130.133865,67.500732 
	C130.133865,67.500732 130.435699,67.515427 130.935760,68.010757 
	C132.300583,68.316628 133.665421,68.622498 135.791092,69.164139 
	C147.917908,70.953941 159.358551,64.999390 163.613068,54.023674 
	C166.046509,47.745926 167.632736,41.084190 163.112503,34.235271 
	C162.826294,33.800961 162.540100,33.366650 162.184998,32.205914 
	C161.561951,31.026421 160.938904,29.846930 160.230621,28.813267 
	C160.230621,28.813267 160.397705,28.838057 160.386719,28.199493 
	C159.934753,27.778666 159.482803,27.357838 159.001678,26.992752 
	C159.001678,26.992752 159.064362,26.987446 158.958405,26.428938 
M308.922058,20.440557 
	C308.309998,20.269043 307.697906,20.097528 306.476257,19.419540 
	C305.959045,19.339251 305.441833,19.258961 304.296143,18.674643 
	C298.680267,17.145557 293.300140,17.936640 287.407867,20.357870 
	C285.287292,21.914232 283.166718,23.470592 280.445374,25.251513 
	C279.642670,26.219496 278.839935,27.187477 277.639008,28.244387 
	C277.373047,28.408501 277.271179,28.643700 277.015839,29.301649 
	C277.015839,29.301649 276.910950,29.763691 276.357697,30.115828 
	C276.162964,30.721348 275.968231,31.326868 275.878540,31.924448 
	C275.878540,31.924448 275.839661,31.826563 275.243500,32.212635 
	C270.160645,41.811077 271.494781,53.094147 278.826172,60.782360 
	C280.588531,62.184837 282.350891,63.587315 284.472198,65.560440 
	C300.786224,76.170197 320.443359,64.579903 323.276062,49.295208 
	C325.333984,37.907803 321.145782,27.642429 312.013214,22.115582 
	C311.037201,21.699659 310.061188,21.283737 309.022675,20.951260 
	C309.022675,20.951260 309.120453,20.915081 308.922058,20.440557 
M241.991577,32.428318 
	C241.650681,31.969627 241.309784,31.510937 240.965790,30.412512 
	C240.558487,29.961922 240.151199,29.511333 239.624237,28.488684 
	C239.111115,28.238449 238.598007,27.988213 237.957520,27.204729 
	C237.632812,27.108711 237.308121,27.012693 236.440857,26.516560 
	C234.354843,24.635960 232.268814,22.755360 229.685120,20.322748 
	C219.203354,15.939003 208.458298,17.911903 200.858551,25.615576 
	C193.401337,33.174747 191.224762,43.873493 195.279984,53.678097 
	C197.448975,56.475830 199.617966,59.273560 202.062119,62.663765 
	C203.049225,63.448338 204.036346,64.232903 205.402115,65.567596 
	C206.631729,66.085991 207.861359,66.604385 209.258621,67.222969 
	C209.258621,67.222969 209.394135,67.082344 209.897079,67.719208 
	C218.989182,71.559059 230.135727,69.259521 237.279999,62.070122 
	C244.488052,54.816521 246.718552,43.922440 242.899612,34.477039 
	C242.595276,33.992226 242.290939,33.507416 241.991577,32.428318 
z"/>
<path fill="#ED5844" opacity="1.000000" stroke="none" 
	d="
M195.289413,52.990128 
	C191.224762,43.873493 193.401337,33.174747 200.858551,25.615576 
	C208.458298,17.911903 219.203354,15.939003 229.556580,20.643764 
	C228.283020,21.307896 227.137985,21.651009 225.646790,22.060324 
	C223.271774,25.528845 215.391663,23.292744 217.834671,31.030266 
	C211.651047,30.051189 209.071228,34.021828 206.412476,37.935905 
	C205.111023,39.851788 204.018143,42.752823 202.225555,43.330849 
	C197.177765,44.958538 197.242233,49.194351 195.892334,52.957180 
	C195.692535,52.983845 195.289413,52.990128 195.289413,52.990128 
z"/>
<path fill="#EC5844" opacity="1.000000" stroke="none" 
	d="
M114.616142,42.173809 
	C114.594406,41.682079 114.572670,41.190350 114.945358,40.214828 
	C115.585068,38.161694 115.830345,36.592346 116.075630,35.023003 
	C121.451683,19.909864 138.053375,13.674759 152.469604,21.614050 
	C149.833694,22.303635 147.419037,22.650574 144.639465,23.002731 
	C141.123352,25.510239 137.875168,27.901394 134.846725,30.544319 
	C131.436615,33.520317 127.217361,36.183189 125.188187,39.967800 
	C122.797852,44.425983 120.235176,46.642517 115.229919,45.747711 
	C114.973015,44.335655 114.794579,43.254730 114.616142,42.173809 
z"/>
<path fill="#EB4D38" opacity="1.000000" stroke="none" 
	d="
M386.331696,20.910225 
	C386.331696,20.910225 386.672760,20.838190 386.874512,21.218826 
	C389.349030,25.502575 386.416168,27.066813 383.864624,28.862835 
	C381.794708,30.319860 379.563507,31.654022 377.817352,33.445671 
	C371.712097,39.709866 365.786072,46.148708 360.316010,51.964066 
	C358.343475,51.236137 356.669281,50.618317 354.729797,49.736359 
	C354.705139,47.640041 354.276428,45.191784 355.299744,44.079967 
	C360.325043,38.619877 365.702667,33.480453 371.029541,28.303577 
	C372.855652,26.528891 374.895752,24.974428 376.847595,23.311279 
	C376.488556,22.626143 375.959717,21.616905 375.043091,19.867668 
	C378.346008,19.867668 380.817932,19.867668 383.289825,19.867668 
	C383.677307,19.897905 384.064758,19.928144 384.902618,20.233061 
	C385.679230,20.641903 386.005463,20.776064 386.331696,20.910225 
z"/>
<path fill="#EB4F3B" opacity="1.000000" stroke="none" 
	d="
M304.924622,19.178673 
	C305.441833,19.258961 305.959045,19.339251 306.885437,19.890511 
	C307.903229,20.546017 308.511841,20.730551 309.120453,20.915083 
	C309.120453,20.915081 309.022675,20.951260 309.017944,21.197697 
	C309.000427,21.636925 308.987610,21.829716 308.662964,22.160461 
	C306.392273,23.451071 304.433411,24.603725 303.282196,25.281124 
	C303.134125,32.411488 296.100189,32.575264 293.582245,36.683491 
	C290.827972,41.177311 286.943451,44.978367 283.957336,48.590443 
	C281.077698,49.822708 278.541290,50.908096 275.993530,51.619987 
	C275.327911,49.167278 274.673706,47.088066 274.399261,44.996342 
	C276.075867,44.105686 277.606598,43.435734 278.616028,42.301754 
	C280.225494,40.493725 281.911224,38.549408 282.806366,36.353592 
	C284.501007,32.196510 292.476105,32.168732 289.567200,25.285732 
	C292.102875,25.041588 294.293945,24.830622 297.419830,24.529650 
	C295.664703,23.038052 294.736115,22.248903 293.807526,21.459753 
	C293.822998,20.959938 293.838470,20.460121 293.853943,19.960306 
	C297.544159,19.699762 301.234406,19.439217 304.924622,19.178673 
z"/>
<path fill="#ED5B47" opacity="1.000000" stroke="none" 
	d="
M36.375660,50.094734 
	C31.072136,36.541824 42.922199,18.939478 58.469154,18.224497 
	C63.473568,17.994347 68.591621,20.235260 73.456657,21.687859 
	C72.831192,22.037235 72.406754,22.044466 71.596733,22.023315 
	C66.160774,20.283005 60.853790,17.748690 58.907078,25.888691 
	C58.840359,26.167683 58.484818,26.385302 58.247597,26.614670 
	C54.161610,30.565456 50.203026,34.662746 45.923542,38.391697 
	C44.114552,39.967968 41.629101,40.767902 39.451122,41.920708 
	C38.970993,41.510353 38.490868,41.099998 38.010738,40.689644 
	C38.010738,43.799599 38.010738,46.909550 37.602119,50.041546 
	C36.920883,50.073971 36.648270,50.084354 36.375660,50.094734 
z"/>
<path fill="#ED5B47" opacity="1.000000" stroke="none" 
	d="
M383.137848,19.491499 
	C380.817932,19.867668 378.346008,19.867668 375.043091,19.867668 
	C375.959717,21.616905 376.488556,22.626143 376.847595,23.311279 
	C374.895752,24.974428 372.855652,26.528891 371.029541,28.303577 
	C365.702667,33.480453 360.325043,38.619877 355.299744,44.079967 
	C354.276428,45.191784 354.705139,47.640041 354.725952,50.079571 
	C354.970886,51.144253 354.954315,51.601589 354.606384,52.046291 
	C353.831268,52.031471 353.387512,52.029285 352.943756,52.027100 
	C349.175018,42.092522 351.461670,33.252617 358.664307,25.958040 
	C365.288849,19.248919 373.317230,15.832750 383.137848,19.491499 
z"/>
<path fill="#CD3F2E" opacity="1.000000" stroke="none" 
	d="
M284.113251,64.989792 
	C282.350891,63.587315 280.588531,62.184837 278.847717,60.450600 
	C278.869263,60.118843 279.170258,60.001759 279.473572,60.001099 
	C280.185028,60.000065 280.593109,59.999687 281.336182,59.964966 
	C283.728058,59.831875 286.287292,60.468887 287.736389,59.479683 
	C290.663452,57.481503 292.951355,54.561794 295.567230,52.090294 
	C303.037109,45.032719 310.539246,38.009285 318.329071,31.142611 
	C319.423279,33.191372 320.217133,35.069939 320.663147,37.006409 
	C317.587280,39.177391 314.691162,41.108994 312.169647,43.444984 
	C308.118805,47.197765 304.076569,51.011929 300.479858,55.187099 
	C297.331482,58.841827 294.801392,63.029186 291.620300,66.980286 
	C288.866028,66.316139 286.489655,65.652969 284.113251,64.989792 
z"/>
<path fill="#E04835" opacity="1.000000" stroke="none" 
	d="
M354.937744,52.058929 
	C354.954315,51.601589 354.970886,51.144253 354.991272,50.343704 
	C356.669281,50.618317 358.343475,51.236137 360.316010,51.964066 
	C365.786072,46.148708 371.712097,39.709866 377.817352,33.445671 
	C379.563507,31.654022 381.794708,30.319860 383.864624,28.862835 
	C386.416168,27.066813 389.349030,25.502575 387.029602,21.298416 
	C388.477203,21.652689 389.971497,22.308006 391.916260,23.291790 
	C392.572113,23.780369 392.798615,23.900759 393.046234,23.981428 
	C393.046234,23.981428 393.002808,24.004654 393.139221,24.203251 
	C393.561401,24.586409 393.847137,24.770967 394.132904,24.955524 
	C394.132904,24.955523 394.064850,24.988003 394.042480,25.219837 
	C394.020538,25.630568 394.020966,25.809462 393.773010,26.248272 
	C389.372223,26.753210 390.360016,29.657803 390.824707,32.116093 
	C381.916412,35.083462 377.292725,42.769127 371.182770,48.694328 
	C367.356506,52.404900 363.651825,56.240864 359.600159,59.858437 
	C357.851074,57.150520 356.394409,54.604725 354.937744,52.058929 
z"/>
<path fill="#DF4936" opacity="1.000000" stroke="none" 
	d="
M36.403084,50.486336 
	C36.648270,50.084354 36.920883,50.073971 37.734749,50.338203 
	C38.995411,51.879681 39.714817,53.146538 40.626682,54.752308 
	C43.237083,52.556652 45.752213,50.713772 47.944607,48.544682 
	C53.929028,42.623871 59.879795,36.661350 65.630486,30.515661 
	C68.026459,27.955120 69.881378,24.888306 71.982315,22.051697 
	C72.406754,22.044466 72.831192,22.037235 73.573456,22.017023 
	C73.891273,22.004040 74.098869,22.317205 74.223679,22.799541 
	C74.942215,23.494074 75.535942,23.706270 76.129662,23.918467 
	C76.129662,23.918467 76.046486,23.940405 76.172562,24.145714 
	C76.628281,24.499933 76.957916,24.648844 77.287560,24.797754 
	C77.287560,24.797754 77.228783,24.664192 77.181091,25.040255 
	C75.280075,28.011641 73.697113,30.862991 71.525177,33.156609 
	C63.442089,41.692562 55.234821,50.115971 46.842239,58.345089 
	C46.094795,59.077965 43.673298,58.068058 42.023911,57.933552 
	C41.338806,57.877689 40.639561,57.995239 39.946743,58.033932 
	C38.774662,55.648598 37.602581,53.263268 36.403084,50.486336 
z"/>
<path fill="#D64331" opacity="1.000000" stroke="none" 
	d="
M40.006378,58.369881 
	C40.639561,57.995239 41.338806,57.877689 42.023911,57.933552 
	C43.673298,58.068058 46.094795,59.077965 46.842239,58.345089 
	C55.234821,50.115971 63.442089,41.692562 71.525177,33.156609 
	C73.697113,30.862991 75.280075,28.011641 77.250626,25.018150 
	C79.313995,26.745371 81.260139,28.870756 82.867317,31.463114 
	C80.383446,33.100506 77.853966,33.872467 76.158646,35.508701 
	C67.765923,43.608936 59.560566,51.905010 51.376556,60.218090 
	C50.039635,61.576099 49.139725,63.364330 47.743645,64.983368 
	C47.252350,65.013084 47.055237,65.013130 46.858124,65.013176 
	C44.594090,62.910728 42.330051,60.808281 40.006378,58.369881 
z"/>
<path fill="#E94C37" opacity="1.000000" stroke="none" 
	d="
M115.308388,46.078846 
	C120.235176,46.642517 122.797852,44.425983 125.188187,39.967800 
	C127.217361,36.183189 131.436615,33.520317 134.846725,30.544319 
	C137.875168,27.901394 141.123352,25.510239 144.801132,23.303549 
	C146.431808,24.291908 147.535873,24.984673 148.322983,25.478554 
	C146.422440,28.644423 145.454330,31.135853 143.751541,32.930058 
	C138.479858,38.484791 132.907349,43.752998 127.494736,49.175472 
	C124.804123,51.870998 121.903885,53.644791 117.702835,51.906307 
	C116.780991,51.501896 116.112595,51.207962 115.444206,50.914028 
	C115.251945,49.904408 115.059685,48.894783 114.995804,47.241142 
	C115.185585,46.424366 115.246986,46.251606 115.308388,46.078846 
z"/>
<path fill="#DF4835" opacity="1.000000" stroke="none" 
	d="
M117.956284,52.016785 
	C121.903885,53.644791 124.804123,51.870998 127.494736,49.175472 
	C132.907349,43.752998 138.479858,38.484791 143.751541,32.930058 
	C145.454330,31.135853 146.422440,28.644423 148.322983,25.478554 
	C147.535873,24.984673 146.431808,24.291908 145.166046,23.298328 
	C147.419037,22.650574 149.833694,22.303635 152.671829,21.904669 
	C153.095306,21.852640 153.074234,21.875616 153.218170,22.137119 
	C153.711975,22.533169 154.061859,22.667713 154.411743,22.802259 
	C154.411743,22.802259 154.802933,22.910835 154.960999,23.369968 
	C155.720932,24.515331 156.322815,25.201561 156.811935,26.221565 
	C154.427094,28.493967 151.980255,30.263823 149.914978,32.402187 
	C143.136093,39.421036 136.394943,46.483219 129.879517,53.744324 
	C128.417114,55.374111 127.930405,57.879406 126.621338,59.990170 
	C125.501633,60.007717 124.755127,60.016747 123.794296,59.770710 
	C122.723892,59.339951 121.867813,59.164253 120.834045,58.691933 
	C119.756332,56.269135 118.856308,54.142960 117.956284,52.016785 
z"/>
<path fill="#CD402F" opacity="1.000000" stroke="none" 
	d="
M209.394135,67.082344 
	C209.394135,67.082344 209.258621,67.222969 208.997559,66.863678 
	C207.498825,66.008743 206.261139,65.513115 205.023453,65.017479 
	C204.036346,64.232903 203.049225,63.448338 202.290878,62.338898 
	C203.346024,61.343334 204.172394,60.672638 205.372467,59.989464 
	C209.609192,57.373066 213.787994,55.128819 217.260559,52.080147 
	C222.347366,47.614292 227.147415,42.764805 231.615875,37.680019 
	C233.377411,35.675495 233.918442,32.598408 235.357544,29.939377 
	C236.127716,28.884909 236.555557,27.900793 236.983414,26.916676 
	C237.308121,27.012693 237.632812,27.108711 238.128754,27.732113 
	C238.781281,28.526579 239.262589,28.793661 239.743896,29.060745 
	C240.151199,29.511333 240.558487,29.961922 240.987976,31.063965 
	C241.029556,32.158146 241.048935,32.600876 241.043701,33.404907 
	C239.970825,35.385040 239.157913,37.234375 237.835434,38.584618 
	C230.283020,46.295563 222.547485,53.827721 215.032700,61.574425 
	C213.648422,63.001415 212.991379,65.133850 211.565216,66.965576 
	C210.552567,67.021103 209.973343,67.051727 209.394135,67.082344 
z"/>
<path fill="#D7412F" opacity="1.000000" stroke="none" 
	d="
M359.892609,60.020561 
	C363.651825,56.240864 367.356506,52.404900 371.182770,48.694328 
	C377.292725,42.769127 381.916412,35.083462 390.824707,32.116093 
	C390.360016,29.657803 389.372223,26.753210 394.011627,26.249155 
	C394.498627,25.990120 394.977325,25.982578 394.977325,25.982578 
	C395.205872,26.215197 395.436279,26.445990 395.841492,27.211288 
	C396.022400,28.481291 396.030304,29.214964 395.986084,30.300369 
	C388.451263,38.771702 380.973572,46.895947 373.475586,55.001453 
	C372.919373,55.602741 372.211365,56.062134 371.584595,56.599934 
	C369.624939,58.281418 367.670410,59.968864 364.915985,62.341248 
	C364.841522,62.333210 363.384705,62.175907 361.665527,61.891800 
	C360.899597,61.183517 360.396118,60.602039 359.892609,60.020561 
z"/>
<path fill="#CC3A29" opacity="1.000000" stroke="none" 
	d="
M124.008614,60.025776 
	C124.755127,60.016747 125.501633,60.007717 126.857071,60.249352 
	C129.428452,59.715446 131.882477,59.431396 133.273605,58.065113 
	C142.317017,49.183098 151.129425,40.065891 160.157074,31.298397 
	C160.949081,32.024853 161.601501,32.478592 162.253906,32.932335 
	C162.540100,33.366650 162.826294,33.800961 163.063141,34.887314 
	C162.998169,36.022766 162.982544,36.506176 162.626312,37.036682 
	C161.371460,37.754864 160.328842,38.304970 159.563721,39.116631 
	C154.519699,44.467426 149.579346,49.916222 144.517258,55.249603 
	C140.702881,59.268414 136.757507,63.162907 132.456543,67.127243 
	C131.506989,67.266312 130.971344,67.390869 130.435699,67.515427 
	C130.435699,67.515427 130.133865,67.500732 129.918137,67.069870 
	C127.798515,64.767387 125.894615,62.895771 123.996597,60.774441 
	C124.002472,60.524727 124.008614,60.025776 124.008614,60.025776 
z"/>
<path fill="#D6412F" opacity="1.000000" stroke="none" 
	d="
M160.017456,31.025682 
	C151.129425,40.065891 142.317017,49.183098 133.273605,58.065113 
	C131.882477,59.431396 129.428452,59.715446 127.230255,60.240829 
	C127.930405,57.879406 128.417114,55.374111 129.879517,53.744324 
	C136.394943,46.483219 143.136093,39.421036 149.914978,32.402187 
	C151.980255,30.263823 154.427094,28.493967 156.842010,25.986385 
	C156.984833,25.417435 157.053452,24.945457 157.053452,24.945457 
	C157.424179,24.920078 157.706787,25.065695 158.073669,25.862434 
	C158.518814,26.557522 158.791595,26.772484 159.064362,26.987446 
	C159.064362,26.987446 159.001678,26.992752 159.052826,27.288101 
	C159.535233,28.001650 159.966476,28.419851 160.397705,28.838055 
	C160.397705,28.838057 160.230621,28.813267 160.179565,29.129368 
	C160.091507,29.972210 160.054489,30.498947 160.017456,31.025682 
z"/>
<path fill="#C13726" opacity="1.000000" stroke="none" 
	d="
M84.323135,35.827744 
	C84.572525,36.603996 84.821907,37.380253 85.050232,38.890144 
	C84.362259,41.419113 83.695351,43.214443 82.680771,45.045601 
	C79.888428,48.054295 77.443756,51.027153 74.869904,54.291611 
	C74.490829,55.384281 74.240952,56.185352 73.621506,56.995430 
	C68.539253,59.259087 62.926689,60.502644 61.727875,67.280365 
	C58.636120,67.037079 55.820293,66.528854 53.160721,65.719772 
	C54.685261,64.256607 56.158745,63.196487 57.404034,61.914680 
	C63.531609,55.607430 69.507820,49.150379 75.730110,42.939198 
	C78.350082,40.323902 81.444427,38.183842 84.323135,35.827744 
z"/>
<path fill="#AE3626" opacity="1.000000" stroke="none" 
	d="
M162.966919,36.989582 
	C162.982544,36.506176 162.998169,36.022766 163.038116,35.177429 
	C167.632736,41.084190 166.046509,47.745926 163.613068,54.023674 
	C159.358551,64.999390 147.917908,70.953941 135.410553,68.811684 
	C135.029999,68.459229 135.015076,67.990303 135.423584,67.994873 
	C137.866211,67.250885 140.292648,66.974365 141.863693,65.668617 
	C147.422256,61.048740 153.122086,56.464977 157.916718,51.105614 
	C161.260147,47.368374 166.330475,43.458363 162.966919,36.989582 
z"/>
<path fill="#AD3828" opacity="1.000000" stroke="none" 
	d="
M209.645599,67.400772 
	C209.973343,67.051727 210.552567,67.021103 211.965088,66.983818 
	C213.865601,66.988907 214.932800,67.000656 216.255005,67.271339 
	C220.623764,69.126633 223.071136,66.179543 225.502258,63.909584 
	C230.409302,59.327789 235.109589,54.518139 239.773483,49.685051 
	C242.087036,47.287552 244.006302,44.598167 242.015305,40.606812 
	C242.277405,38.500999 242.542175,36.788319 242.806946,35.075634 
	C246.718552,43.922440 244.488052,54.816521 237.279999,62.070122 
	C230.135727,69.259521 218.989182,71.559059 209.645599,67.400772 
z"/>
<path fill="#CD3C2B" opacity="1.000000" stroke="none" 
	d="
M84.293228,35.517982 
	C81.444427,38.183842 78.350082,40.323902 75.730110,42.939198 
	C69.507820,49.150379 63.531609,55.607430 57.404034,61.914680 
	C56.158745,63.196487 54.685261,64.256607 52.749802,65.717484 
	C51.085907,66.030495 49.989185,66.044937 48.892467,66.059380 
	C48.892467,66.059380 48.971710,66.046661 48.873604,65.849152 
	C48.529602,65.418999 48.283714,65.186356 48.037823,64.953712 
	C49.139725,63.364330 50.039635,61.576099 51.376556,60.218090 
	C59.560566,51.905010 67.765923,43.608936 76.158646,35.508701 
	C77.853966,33.872467 80.383446,33.100506 82.899269,31.808498 
	C83.270195,31.686909 83.282707,31.742052 83.194733,32.067055 
	C83.091179,32.596748 83.075600,32.801437 83.152267,33.215721 
	C83.417953,33.688572 83.649490,33.882439 83.939140,34.006920 
	C84.047203,34.407352 84.155258,34.807785 84.293228,35.517982 
z"/>
<path fill="#F05944" opacity="1.000000" stroke="none" 
	d="
M304.610382,18.926659 
	C301.234406,19.439217 297.544159,19.699762 293.853943,19.960306 
	C293.838470,20.460121 293.822998,20.959938 293.807526,21.459753 
	C294.736115,22.248903 295.664703,23.038052 297.419830,24.529650 
	C294.293945,24.830622 292.102875,25.041588 289.567200,25.285732 
	C292.476105,32.168732 284.501007,32.196510 282.806366,36.353592 
	C281.911224,38.549408 280.225494,40.493725 278.616028,42.301754 
	C277.606598,43.435734 276.075867,44.105686 274.392883,44.570778 
	C274.617706,40.047333 275.228699,35.936951 275.839661,31.826565 
	C275.839661,31.826563 275.878540,31.924448 276.123260,31.772257 
	C276.548981,31.001276 276.729980,30.382486 276.910950,29.763693 
	C276.910950,29.763691 277.015839,29.301649 277.321716,29.022907 
	C277.807739,28.578300 277.944305,28.382065 278.037201,28.155457 
	C278.839935,27.187477 279.642670,26.219496 281.108093,25.128269 
	C283.874542,23.444021 285.978271,21.883015 288.082001,20.322010 
	C293.300140,17.936640 298.680267,17.145557 304.610382,18.926659 
z"/>
<path fill="#DF4936" opacity="1.000000" stroke="none" 
	d="
M204.998779,60.001945 
	C204.172394,60.672638 203.346024,61.343334 202.153290,62.042660 
	C199.617966,59.273560 197.448975,56.475830 195.284698,53.334114 
	C195.289413,52.990128 195.692535,52.983845 196.254517,52.973167 
	C199.149628,52.669022 202.311401,53.237556 203.670593,51.930954 
	C209.173874,46.640610 213.942078,40.591141 219.370560,35.214569 
	C221.356781,33.247349 224.424026,32.371571 226.999451,30.999374 
	C227.000778,31.000858 227.006104,31.006132 227.004028,31.386719 
	C226.076706,33.602459 225.513275,35.778702 224.161942,37.212139 
	C219.044373,42.640560 213.523773,47.692501 208.477829,53.182941 
	C206.814346,54.992928 206.130539,57.703281 204.998779,60.001945 
z"/>
<path fill="#A83827" opacity="1.000000" stroke="none" 
	d="
M49.079563,66.368958 
	C49.989185,66.044937 51.085907,66.030495 52.593544,66.018341 
	C55.820293,66.528854 58.636120,67.037079 62.124779,67.275780 
	C69.272896,67.426048 71.041199,61.973736 74.372665,57.970673 
	C78.638290,55.568977 84.250519,54.640781 83.010529,47.625053 
	C83.016792,46.504143 83.022621,45.756958 83.028450,45.009773 
	C83.695351,43.214443 84.362259,41.419113 85.050598,39.225243 
	C85.575813,40.789871 86.639961,42.794788 86.497307,44.709805 
	C84.954964,65.414230 65.061020,74.972908 49.079563,66.368958 
z"/>
<path fill="#A83728" opacity="1.000000" stroke="none" 
	d="
M284.292725,65.275116 
	C286.489655,65.652969 288.866028,66.316139 291.968658,67.140640 
	C294.463135,67.530205 296.231384,67.758453 298.390503,67.980782 
	C303.736725,66.835037 309.009308,66.181473 310.428436,59.882259 
	C310.526489,59.447025 311.636444,59.327408 311.998444,58.850475 
	C315.782257,53.865356 321.845947,50.304085 321.987488,42.744980 
	C322.012665,42.288513 322.025116,42.106064 322.271484,42.201195 
	C322.605133,44.970856 322.704865,47.462929 322.804596,49.955006 
	C320.443359,64.579903 300.786224,76.170197 284.292725,65.275116 
z"/>
<path fill="#C53726" opacity="1.000000" stroke="none" 
	d="
M215.999985,67.012398 
	C214.932800,67.000656 213.865601,66.988907 212.398529,66.958908 
	C212.991379,65.133850 213.648422,63.001415 215.032700,61.574425 
	C222.547485,53.827721 230.283020,46.295563 237.835434,38.584618 
	C239.157913,37.234375 239.970825,35.385040 241.272781,33.397198 
	C241.526489,33.028191 241.986588,33.022606 241.986588,33.022606 
	C242.290939,33.507416 242.595276,33.992226 242.853271,34.776337 
	C242.542175,36.788319 242.277405,38.500999 241.669739,40.646782 
	C232.884552,49.724049 224.442261,58.368221 215.999985,67.012398 
z"/>
<path fill="#A84335" opacity="1.000000" stroke="none" 
	d="
M396.038208,29.948635 
	C396.030304,29.214964 396.022400,28.481291 396.017700,27.380896 
	C400.664673,31.180229 402.881134,36.241795 402.106079,42.580738 
	C401.752106,45.475712 402.421997,48.591606 401.635773,51.321701 
	C397.895325,64.310249 385.487946,71.542252 371.477600,68.694595 
	C371.110596,68.359940 371.107513,67.953697 371.468018,67.963287 
	C372.554779,67.972527 373.281097,67.972183 374.435974,67.983444 
	C379.211060,67.601234 383.911377,68.307938 387.389038,64.056839 
	C396.002472,61.854259 397.053650,54.179234 400.080750,47.567070 
	C399.773682,42.781517 399.407166,38.397141 398.904907,33.718422 
	C397.858826,32.265598 396.948517,31.107115 396.038208,29.948635 
z"/>
<path fill="#DF4936" opacity="1.000000" stroke="none" 
	d="
M236.712128,26.716618 
	C236.555557,27.900793 236.127716,28.884909 235.116531,29.754009 
	C232.024170,30.094707 229.515137,30.550419 227.006104,31.006130 
	C227.006104,31.006132 227.000778,31.000858 227.033066,30.687750 
	C228.188263,29.525640 229.311172,28.676641 230.263962,27.956261 
	C228.855347,25.989878 227.424149,23.992002 225.992966,21.994125 
	C227.137985,21.651009 228.283020,21.307896 229.805420,20.919769 
	C232.268814,22.755360 234.354843,24.635960 236.712128,26.716618 
z"/>
<path fill="#DC5D4B" opacity="1.000000" stroke="none" 
	d="
M275.541595,32.019600 
	C275.228699,35.936951 274.617706,40.047333 274.013123,44.583282 
	C274.673706,47.088066 275.327911,49.167278 276.033813,51.977150 
	C277.113770,55.139126 278.141998,57.570446 279.170227,60.001762 
	C279.170258,60.001759 278.869263,60.118843 278.707855,60.132690 
	C271.494781,53.094147 270.160645,41.811077 275.541595,32.019600 
z"/>
<path fill="#B65D4B" opacity="1.000000" stroke="none" 
	d="
M323.040344,49.625107 
	C322.704865,47.462929 322.605133,44.970856 322.261780,41.839050 
	C321.682465,39.782379 321.346710,38.365444 321.010986,36.948509 
	C320.217133,35.069939 319.423279,33.191372 318.265839,30.820858 
	C316.287201,28.852036 314.672180,27.375154 313.022766,25.591255 
	C312.645874,24.540056 312.303314,23.795877 312.070068,22.948223 
	C312.179382,22.844749 312.401459,22.641483 312.401459,22.641483 
	C321.145782,27.642429 325.333984,37.907803 323.040344,49.625107 
z"/>
<path fill="#CB6652" opacity="1.000000" stroke="none" 
	d="
M359.600159,59.858440 
	C360.396118,60.602039 360.899597,61.183517 361.823669,62.183296 
	C363.865387,64.019585 365.486511,65.437576 367.011047,66.972336 
	C366.914398,67.089104 366.718750,67.320671 366.718750,67.320671 
	C359.730530,64.739761 355.270050,59.768734 352.950562,52.396976 
	C353.387512,52.029285 353.831268,52.031471 354.606384,52.046295 
	C356.394409,54.604725 357.851074,57.150520 359.600159,59.858440 
z"/>
<path fill="#CC6A57" opacity="1.000000" stroke="none" 
	d="
M123.990723,61.024155 
	C125.894615,62.895771 127.798515,64.767387 129.799713,66.976013 
	C127.185089,65.570908 124.473145,63.828781 121.751678,61.662590 
	C121.742157,61.238529 122.028084,60.963646 122.354752,60.984573 
	C123.117859,61.011715 123.554291,61.017937 123.990723,61.024155 
z"/>
<path fill="#CC6A57" opacity="1.000000" stroke="none" 
	d="
M117.702835,51.906307 
	C118.856308,54.142960 119.756332,56.269135 120.840622,58.932240 
	C121.024887,59.469173 121.068336,59.947723 120.934631,60.074730 
	C120.800934,60.201736 120.541100,60.463478 120.541107,60.463478 
	C118.806572,57.514942 117.072044,54.566410 115.390862,51.265953 
	C116.112595,51.207962 116.780991,51.501896 117.702835,51.906307 
z"/>
<path fill="#DC5D4B" opacity="1.000000" stroke="none" 
	d="
M287.744934,20.339939 
	C285.978271,21.883015 283.874542,23.444021 281.408447,25.015989 
	C283.166718,23.470592 285.287292,21.914232 287.744934,20.339939 
z"/>
<path fill="#CC6A57" opacity="1.000000" stroke="none" 
	d="
M115.835190,35.258110 
	C115.830345,36.592346 115.585068,38.161694 115.104530,39.877647 
	C115.111107,38.513912 115.352936,37.003567 115.835190,35.258110 
z"/>
<path fill="#BF3727" opacity="1.000000" stroke="none" 
	d="
M160.157074,31.298399 
	C160.054489,30.498947 160.091507,29.972210 160.222198,29.056454 
	C160.938904,29.846930 161.561951,31.026421 162.219452,32.569122 
	C161.601501,32.478592 160.949081,32.024853 160.157074,31.298399 
z"/>
<path fill="#CB6652" opacity="1.000000" stroke="none" 
	d="
M371.107513,67.953690 
	C371.107513,67.953697 371.110596,68.359940 371.094299,68.562393 
	C369.792206,68.433922 368.506439,68.103012 366.969727,67.546387 
	C366.718750,67.320671 366.914398,67.089104 367.357330,67.017624 
	C368.499329,66.999725 369.198364,67.053299 370.055786,67.302773 
	C370.511963,67.650345 370.809723,67.802017 371.107513,67.953690 
z"/>
<path fill="#CC6A57" opacity="1.000000" stroke="none" 
	d="
M135.015076,67.990303 
	C135.015076,67.990303 135.029999,68.459229 135.030121,68.693802 
	C133.665421,68.622498 132.300583,68.316628 130.685730,67.763092 
	C130.971344,67.390869 131.506989,67.266312 132.670502,67.338364 
	C133.870621,67.686745 134.442841,67.838524 135.015076,67.990303 
z"/>
<path fill="#AD3828" opacity="1.000000" stroke="none" 
	d="
M205.212784,65.292542 
	C206.261139,65.513115 207.498825,66.008743 208.913742,66.813583 
	C207.861359,66.604385 206.631729,66.085991 205.212784,65.292542 
z"/>
<path fill="#B65D4B" opacity="1.000000" stroke="none" 
	d="
M308.974792,22.022503 
	C308.987610,21.829716 309.000427,21.636925 309.049194,21.155975 
	C310.061188,21.283737 311.037201,21.699659 312.207336,22.378532 
	C312.401459,22.641483 312.179382,22.844749 311.756592,22.899612 
	C310.547455,22.643818 309.761108,22.333160 308.974792,22.022503 
z"/>
<path fill="#CC6A57" opacity="1.000000" stroke="none" 
	d="
M115.229919,45.747711 
	C115.246986,46.251606 115.185585,46.424366 115.027115,46.854996 
	C114.724709,45.693527 114.519363,44.274185 114.465073,42.514328 
	C114.794579,43.254730 114.973015,44.335655 115.229919,45.747711 
z"/>
<path fill="#BF3727" opacity="1.000000" stroke="none" 
	d="
M156.963013,24.676308 
	C157.053452,24.945457 156.984833,25.417435 156.954773,25.652613 
	C156.322815,25.201561 155.720932,24.515331 155.064301,23.544708 
	C155.630539,23.642597 156.251556,24.024876 156.963013,24.676308 
z"/>
<path fill="#B65D4B" opacity="1.000000" stroke="none" 
	d="
M309.021240,20.677822 
	C308.511841,20.730551 307.903229,20.546017 307.190247,20.143747 
	C307.697906,20.097528 308.309998,20.269043 309.021240,20.677822 
z"/>
<path fill="#BF3727" opacity="1.000000" stroke="none" 
	d="
M160.392212,28.518772 
	C159.966476,28.419851 159.535233,28.001650 159.067413,27.260231 
	C159.482803,27.357838 159.934753,27.778666 160.392212,28.518772 
z"/>
<path fill="#AD3828" opacity="1.000000" stroke="none" 
	d="
M239.684067,28.774715 
	C239.262589,28.793661 238.781281,28.526579 238.192429,27.998737 
	C238.598007,27.988213 239.111115,28.238449 239.684067,28.774715 
z"/>
<path fill="#DC5D4B" opacity="1.000000" stroke="none" 
	d="
M276.634338,29.939762 
	C276.729980,30.382486 276.548981,31.001276 276.070740,31.776228 
	C275.968231,31.326868 276.162964,30.721348 276.634338,29.939762 
z"/>
<path fill="#A83827" opacity="1.000000" stroke="none" 
	d="
M47.743645,64.983368 
	C48.283714,65.186356 48.529602,65.418999 48.874001,65.889282 
	C48.399422,65.916740 47.826336,65.706566 47.055687,65.254784 
	C47.055237,65.013130 47.252350,65.013084 47.743645,64.983368 
z"/>
<path fill="#AD3828" opacity="1.000000" stroke="none" 
	d="
M241.989075,32.725464 
	C241.986588,33.022606 241.526489,33.028191 241.297394,33.035896 
	C241.048935,32.600876 241.029556,32.158146 240.989532,31.383831 
	C241.309784,31.510937 241.650681,31.969627 241.989075,32.725464 
z"/>
<path fill="#D64331" opacity="1.000000" stroke="none" 
	d="
M75.989891,23.630720 
	C75.535942,23.706270 74.942215,23.494074 74.205948,22.986565 
	C74.658974,22.908491 75.254547,23.125732 75.989891,23.630720 
z"/>
<path fill="#CC6A57" opacity="1.000000" stroke="none" 
	d="
M121.589966,61.365673 
	C121.157600,61.344872 120.929565,61.139137 120.647385,60.669548 
	C120.541100,60.463478 120.800934,60.201736 121.129044,60.209091 
	C121.704865,60.421654 121.895172,60.670719 122.028084,60.963646 
	C122.028084,60.963646 121.742157,61.238529 121.589966,61.365673 
z"/>
<path fill="#E04835" opacity="1.000000" stroke="none" 
	d="
M386.203552,20.643282 
	C386.005463,20.776064 385.679230,20.641903 385.187073,20.297995 
	C385.372589,20.184278 385.723999,20.280308 386.203552,20.643282 
z"/>
<path fill="#A84335" opacity="1.000000" stroke="none" 
	d="
M392.966003,23.778002 
	C392.798615,23.900759 392.572113,23.780369 392.233398,23.481041 
	C392.419281,23.225952 392.681213,23.303535 392.966003,23.778002 
z"/>
<path fill="#EC5844" opacity="1.000000" stroke="none" 
	d="
M154.271301,22.550026 
	C154.061859,22.667713 153.711975,22.533169 153.223984,22.145241 
	C153.434204,22.027170 153.782516,22.162481 154.271301,22.550026 
z"/>
<path fill="#C13726" opacity="1.000000" stroke="none" 
	d="
M84.015938,33.742840 
	C83.649490,33.882439 83.417953,33.688572 83.362228,33.209854 
	C83.479935,32.994385 83.900414,32.963440 83.900414,32.963440 
	C83.964523,33.135212 84.028625,33.306988 84.015938,33.742840 
z"/>
<path fill="#D64331" opacity="1.000000" stroke="none" 
	d="
M77.214325,24.514523 
	C76.957916,24.648844 76.628281,24.499933 76.169861,24.102789 
	C76.407761,23.980135 76.774429,24.105713 77.214325,24.514523 
z"/>
<path fill="#A84335" opacity="1.000000" stroke="none" 
	d="
M394.043793,24.697538 
	C393.847137,24.770967 393.561401,24.586409 393.145264,24.179409 
	C393.328186,24.117830 393.641418,24.278690 394.043793,24.697538 
z"/>
<path fill="#A84335" opacity="1.000000" stroke="none" 
	d="
M394.969727,25.710983 
	C394.977325,25.982578 394.498627,25.990120 394.260010,25.989239 
	C394.020966,25.809462 394.020538,25.630568 394.037537,25.182457 
	C394.357330,25.088625 394.659760,25.264008 394.969727,25.710983 
z"/>
<path fill="#BF3727" opacity="1.000000" stroke="none" 
	d="
M159.011383,26.708191 
	C158.791595,26.772484 158.518814,26.557522 158.130997,26.104855 
	C158.330093,26.054411 158.644257,26.241674 159.011383,26.708191 
z"/>
<path fill="#DC5D4B" opacity="1.000000" stroke="none" 
	d="
M277.838104,28.199921 
	C277.944305,28.382065 277.807739,28.578300 277.480469,28.847073 
	C277.271179,28.643700 277.373047,28.408501 277.838104,28.199921 
z"/>
<path fill="#D64331" opacity="1.000000" stroke="none" 
	d="
M83.938637,32.711906 
	C83.900414,32.963440 83.479935,32.994385 83.269974,33.000256 
	C83.075600,32.801437 83.091179,32.596748 83.193100,32.095280 
	C83.511917,32.019127 83.744392,32.239750 83.938637,32.711906 
z"/>
<path fill="#E94B37" opacity="1.000000" stroke="none" 
	d="
M225.646790,22.060326 
	C227.424149,23.992002 228.855347,25.989878 230.263962,27.956261 
	C229.311172,28.676641 228.188263,29.525640 227.031738,30.686264 
	C224.424026,32.371571 221.356781,33.247349 219.370560,35.214569 
	C213.942078,40.591141 209.173874,46.640610 203.670593,51.930954 
	C202.311401,53.237556 199.149628,52.669022 196.454315,52.946503 
	C197.242233,49.194351 197.177765,44.958538 202.225555,43.330849 
	C204.018143,42.752823 205.111023,39.851788 206.412476,37.935905 
	C209.071228,34.021828 211.651047,30.051189 217.834671,31.030266 
	C215.391663,23.292744 223.271774,25.528845 225.646790,22.060326 
z"/>
<path fill="#E24935" opacity="1.000000" stroke="none" 
	d="
M308.662964,22.160461 
	C309.761108,22.333160 310.547455,22.643818 311.647278,23.003086 
	C312.303314,23.795877 312.645874,24.540056 312.994995,25.961723 
	C312.294098,27.665348 311.682800,28.776363 310.864197,29.704479 
	C302.721069,38.936703 290.639221,44.375729 285.245361,56.290726 
	C285.011688,56.806973 283.829651,56.815636 283.308777,57.297764 
	C282.445587,58.096748 281.761047,59.088676 281.001221,59.999313 
	C280.593109,59.999687 280.185028,60.000065 279.473572,60.001106 
	C278.141998,57.570446 277.113770,55.139126 276.045197,52.350643 
	C278.541290,50.908096 281.077698,49.822708 283.957336,48.590443 
	C286.943451,44.978367 290.827972,41.177311 293.582245,36.683491 
	C296.100189,32.575264 303.134125,32.411488 303.282196,25.281124 
	C304.433411,24.603725 306.392273,23.451071 308.662964,22.160461 
z"/>
<path fill="#EB4C37" opacity="1.000000" stroke="none" 
	d="
M71.596733,22.023315 
	C69.881378,24.888306 68.026459,27.955120 65.630486,30.515661 
	C59.879795,36.661350 53.929028,42.623871 47.944607,48.544682 
	C45.752213,50.713772 43.237083,52.556652 40.626682,54.752308 
	C39.714817,53.146538 38.995411,51.879681 38.143372,50.316162 
	C38.010738,46.909550 38.010738,43.799599 38.010738,40.689644 
	C38.490868,41.099998 38.970993,41.510353 39.451122,41.920708 
	C41.629101,40.767902 44.114552,39.967968 45.923542,38.391697 
	C50.203026,34.662746 54.161610,30.565456 58.247597,26.614670 
	C58.484818,26.385302 58.840359,26.167683 58.907078,25.888691 
	C60.853790,17.748690 66.160774,20.283005 71.596733,22.023315 
z"/>
<path fill="#D94230" opacity="1.000000" stroke="none" 
	d="
M281.336182,59.964970 
	C281.761047,59.088676 282.445587,58.096748 283.308777,57.297764 
	C283.829651,56.815636 285.011688,56.806973 285.245361,56.290726 
	C290.639221,44.375729 302.721069,38.936703 310.864197,29.704479 
	C311.682800,28.776363 312.294098,27.665348 313.029358,26.268742 
	C314.672180,27.375154 316.287201,28.852036 317.965454,30.650669 
	C310.539246,38.009285 303.037109,45.032719 295.567230,52.090294 
	C292.951355,54.561794 290.663452,57.481503 287.736389,59.479683 
	C286.287292,60.468887 283.728058,59.831875 281.336182,59.964970 
z"/>
<path fill="#C23625" opacity="1.000000" stroke="none" 
	d="
M320.663147,37.006405 
	C321.346710,38.365444 321.682465,39.782379 322.027863,41.561466 
	C322.025116,42.106064 322.012665,42.288513 321.646790,42.780212 
	C320.716156,43.388752 320.024597,43.570644 319.578827,44.004868 
	C312.424316,50.973969 305.270081,57.944347 298.233185,65.031013 
	C297.701935,65.566017 298.056732,66.980858 297.999634,67.986694 
	C296.231384,67.758453 294.463135,67.530205 292.346527,67.141609 
	C294.801392,63.029186 297.331482,58.841827 300.479858,55.187099 
	C304.076569,51.011929 308.118805,47.197765 312.169647,43.444984 
	C314.691162,41.108994 317.587280,39.177391 320.663147,37.006405 
z"/>
<path fill="#D6412F" opacity="1.000000" stroke="none" 
	d="
M122.354752,60.984573 
	C121.895172,60.670719 121.704865,60.421654 121.262749,60.082085 
	C121.068336,59.947723 121.024887,59.469173 121.018311,59.228867 
	C121.867813,59.164253 122.723892,59.339951 123.794296,59.770710 
	C124.008614,60.025776 124.002472,60.524727 123.996597,60.774441 
	C123.554291,61.017937 123.117859,61.011715 122.354752,60.984573 
z"/>
<path fill="#D9412F" opacity="1.000000" stroke="none" 
	d="
M227.004028,31.386719 
	C229.515137,30.550419 232.024170,30.094707 234.774231,29.824364 
	C233.918442,32.598408 233.377411,35.675495 231.615875,37.680019 
	C227.147415,42.764805 222.347366,47.614292 217.260559,52.080147 
	C213.787994,55.128819 209.609192,57.373066 205.372467,59.989464 
	C206.130539,57.703281 206.814346,54.992928 208.477829,53.182941 
	C213.523773,47.692501 219.044373,42.640560 224.161942,37.212139 
	C225.513275,35.778702 226.076706,33.602459 227.004028,31.386719 
z"/>
<path fill="#CC3C2B" opacity="1.000000" stroke="none" 
	d="
M369.897430,67.106880 
	C369.198364,67.053299 368.499329,66.999725 367.453979,66.900856 
	C365.486511,65.437576 363.865387,64.019585 362.086060,62.310104 
	C363.384705,62.175907 364.841522,62.333210 364.915985,62.341248 
	C367.670410,59.968864 369.624939,58.281418 371.584595,56.599934 
	C372.211365,56.062134 372.919373,55.602741 373.475586,55.001453 
	C380.973572,46.895947 388.451263,38.771702 395.986084,30.300365 
	C396.948517,31.107115 397.858826,32.265598 398.749023,34.033997 
	C396.750702,37.664108 395.149902,41.036060 392.723907,43.638908 
	C385.285065,51.620018 377.529724,59.306084 369.897430,67.106880 
z"/>
<path fill="#BF3727" opacity="1.000000" stroke="none" 
	d="
M135.423584,67.994873 
	C134.442841,67.838524 133.870621,67.686745 133.084412,67.323853 
	C136.757507,63.162907 140.702881,59.268414 144.517258,55.249603 
	C149.579346,49.916222 154.519699,44.467426 159.563721,39.116631 
	C160.328842,38.304970 161.371460,37.754864 162.626312,37.036682 
	C166.330475,43.458363 161.260147,47.368374 157.916718,51.105614 
	C153.122086,56.464977 147.422256,61.048740 141.863693,65.668617 
	C140.292648,66.974365 137.866211,67.250885 135.423584,67.994873 
z"/>
<path fill="#B92E1F" opacity="1.000000" stroke="none" 
	d="
M74.009766,58.018784 
	C71.041199,61.973736 69.272896,67.426048 62.400703,67.010834 
	C62.926689,60.502644 68.539253,59.259087 73.626068,57.253601 
	C74.003395,57.674778 74.006584,57.846783 74.009766,58.018784 
z"/>
<path fill="#B82D1E" opacity="1.000000" stroke="none" 
	d="
M74.372665,57.970673 
	C74.006584,57.846783 74.003395,57.674778 73.995644,57.244598 
	C74.240952,56.185352 74.490829,55.384281 75.202461,54.234474 
	C78.112839,51.923420 80.561462,49.961102 83.010086,47.998779 
	C84.250519,54.640781 78.638290,55.568977 74.372665,57.970673 
z"/>
<path fill="#B92E1F" opacity="1.000000" stroke="none" 
	d="
M83.010529,47.625053 
	C80.561462,49.961102 78.112839,51.923420 75.331650,53.942875 
	C77.443756,51.027153 79.888428,48.054295 82.680771,45.045601 
	C83.022621,45.756958 83.016792,46.504143 83.010529,47.625053 
z"/>
<path fill="#BD3220" opacity="1.000000" stroke="none" 
	d="
M216.255005,67.271332 
	C224.442261,58.368221 232.884552,49.724049 241.672394,41.039909 
	C244.006302,44.598167 242.087036,47.287552 239.773483,49.685051 
	C235.109589,54.518139 230.409302,59.327789 225.502258,63.909584 
	C223.071136,66.179543 220.623764,69.126633 216.255005,67.271332 
z"/>
<path fill="#B82F1D" opacity="1.000000" stroke="none" 
	d="
M298.390503,67.980782 
	C298.056732,66.980858 297.701935,65.566017 298.233185,65.031013 
	C305.270081,57.944347 312.424316,50.973969 319.578827,44.004868 
	C320.024597,43.570644 320.716156,43.388752 321.634033,43.054230 
	C321.845947,50.304085 315.782257,53.865356 311.998444,58.850475 
	C311.636444,59.327408 310.526489,59.447025 310.428436,59.882259 
	C309.009308,66.181473 303.736725,66.835037 298.390503,67.980782 
z"/>
<path fill="#C03625" opacity="1.000000" stroke="none" 
	d="
M370.055786,67.302773 
	C377.529724,59.306084 385.285065,51.620018 392.723907,43.638908 
	C395.149902,41.036060 396.750702,37.664108 398.884796,34.328339 
	C399.407166,38.397141 399.773682,42.781517 399.701233,47.585014 
	C397.914307,48.951080 396.455048,49.777332 395.254364,50.884102 
	C394.335083,51.731438 393.742523,52.933189 392.929810,53.632519 
	C390.608795,50.731247 389.444305,52.500626 387.822266,54.248135 
	C384.368774,57.968872 380.623810,61.418900 377.002014,64.983643 
	C375.997009,65.972832 375.005219,66.975395 374.007385,67.971832 
	C373.281097,67.972183 372.554779,67.972527 371.468018,67.963287 
	C370.809723,67.802017 370.511963,67.650345 370.055786,67.302773 
z"/>
<path fill="#B72E1E" opacity="1.000000" stroke="none" 
	d="
M374.435974,67.983444 
	C375.005219,66.975395 375.997009,65.972832 377.002014,64.983643 
	C380.623810,61.418900 384.368774,57.968872 387.822266,54.248135 
	C389.444305,52.500626 390.608795,50.731247 392.885315,53.993607 
	C390.952606,57.827808 388.989532,60.956146 387.026428,64.084473 
	C383.911377,68.307938 379.211060,67.601234 374.435974,67.983444 
z"/>
<path fill="#AF2918" opacity="1.000000" stroke="none" 
	d="
M387.389038,64.056839 
	C388.989532,60.956146 390.952606,57.827808 392.960175,54.338387 
	C393.742523,52.933189 394.335083,51.731438 395.254364,50.884102 
	C396.455048,49.777332 397.914307,48.951080 399.641785,47.986191 
	C397.053650,54.179234 396.002472,61.854259 387.389038,64.056839 
z"/>
</svg>