<svg version="1.1" id="Layer_1" xmlns="http://www.w3.org/2000/svg" xmlns:xlink="http://www.w3.org/1999/xlink" x="0px" y="0px"
	 width="100%" viewBox="0 0 336 336" enable-background="new 0 0 336 336" xml:space="preserve">
<path fill="#000000" opacity="1.000000" stroke="none" 
	d="
M247.017349,213.017502 
	C242.737778,218.673431 248.230957,222.386627 249.773712,226.885132 
	C244.643250,226.413666 242.399292,221.363342 243.438538,211.993835 
	C241.359970,212.651611 239.466568,213.250809 237.236969,213.956390 
	C241.371002,220.749268 243.906769,228.289749 250.007248,233.169754 
	C254.551285,236.804688 252.754700,240.877762 251.386124,244.418457 
	C250.060852,247.847153 246.583633,250.054428 242.522507,249.529526 
	C235.758362,248.655243 229.048569,247.369461 222.299622,246.366241 
	C214.645462,245.228455 209.548950,240.345215 204.891449,234.757874 
	C203.050064,232.548889 204.433685,230.944153 206.370010,230.786697 
	C210.376770,230.460876 213.051682,227.759796 215.950195,225.787491 
	C219.996414,223.034210 219.075699,218.065765 220.354477,213.710922 
	C215.597290,215.904037 214.583328,220.592804 211.342819,223.162598 
	C208.813324,225.168518 205.651108,225.952484 202.540710,223.798996 
	C200.028778,222.059875 198.812164,220.345413 198.664017,216.647552 
	C198.436768,210.975494 201.498291,208.852722 205.480484,206.643005 
	C200.470093,206.876526 197.946457,210.226044 196.105362,213.467026 
	C184.101089,212.547562 170.806076,216.564758 162.679733,202.713394 
	C161.115265,206.464661 158.013641,206.067551 155.559830,207.028946 
	C152.993362,208.034500 150.411957,208.888367 150.920959,212.726181 
	C150.999176,213.007355 151.021957,212.979858 151.021957,212.979858 
	C150.373688,214.297256 149.725403,215.614670 149.054474,216.978088 
	C146.815338,217.383286 147.448395,214.842682 145.843567,213.971710 
	C145.633270,219.603027 148.251648,224.003815 151.773941,228.971100 
	C146.998672,228.501999 143.413544,228.328888 139.892685,227.758850 
	C135.440567,227.038071 133.943756,222.802887 134.963776,219.926941 
	C137.002289,214.179443 133.285873,211.512573 130.615707,208.036896 
	C130.113785,207.383560 129.566330,206.765228 128.829620,205.877335 
	C125.793266,207.788300 122.852562,206.084869 119.462311,205.872147 
	C121.291977,203.915314 123.357552,204.748215 126.274498,204.310883 
	C121.674637,203.027420 118.387581,201.880447 116.490105,206.776642 
	C116.016624,207.998413 114.982018,210.130219 112.719284,208.450821 
	C111.837685,207.796478 110.894547,208.334625 110.683174,209.078384 
	C109.358749,213.738586 105.369553,213.320953 101.537872,213.980606 
	C105.255386,214.220825 106.272385,216.288879 106.444237,219.452713 
	C106.549026,221.381866 107.330139,223.347504 109.165215,224.579239 
	C112.101013,226.549805 111.237404,228.546616 108.824341,229.976562 
	C105.964684,231.671173 105.869621,233.570541 107.418045,236.178024 
	C109.239731,239.245667 108.334999,241.050644 104.666298,240.780594 
	C97.214371,240.232132 90.464645,237.794907 84.459023,232.817413 
	C85.628235,230.305832 87.290321,228.420654 89.317070,226.728226 
	C91.214119,225.144104 93.087959,223.540329 94.039101,221.052628 
	C97.186523,212.820587 91.034309,203.874222 82.169571,202.956924 
	C76.638741,202.384613 77.118538,206.848450 75.136032,209.727020 
	C75.003250,210.003387 75.035988,209.973831 75.035988,209.973831 
	C73.039497,210.289719 71.037804,209.408218 69.268318,211.866089 
	C67.395073,214.468094 59.924595,214.108292 57.881172,211.523148 
	C56.054348,209.212051 53.882004,208.954147 51.330299,208.794571 
	C51.289719,210.561966 54.093895,211.814102 52.140556,213.716553 
	C50.812485,215.010056 49.699322,213.937927 48.616047,213.195816 
	C46.054585,211.441086 43.883759,212.013641 42.149479,214.392273 
	C40.850769,216.173523 41.220005,217.858978 42.926037,219.202438 
	C45.373959,221.130142 47.490242,220.713394 49.311165,218.236771 
	C49.675724,217.740921 50.215504,217.373886 50.861679,216.773560 
	C52.826294,218.849457 53.032925,220.878891 50.986614,222.469009 
	C48.631226,224.299286 46.007706,226.040817 42.865604,223.681458 
	C36.526745,218.921692 36.693832,211.928528 43.505684,207.911011 
	C45.421940,206.780838 45.994255,204.983719 47.389481,203.455093 
	C44.288605,202.554626 41.694736,203.495438 39.115623,204.715012 
	C37.001377,205.714783 35.343983,207.806381 32.314224,206.150024 
	C30.799067,205.321686 29.817621,207.864029 28.861074,209.142105 
	C27.853634,210.488205 26.713387,211.269806 25.045231,210.441437 
	C24.121780,209.982864 23.334311,209.266953 23.518768,208.112473 
	C23.786776,206.435165 25.222069,206.104126 26.537369,206.054916 
	C29.942965,205.927475 30.780996,202.065308 34.306011,201.369278 
	C38.443470,200.552307 42.289204,199.648422 46.511417,200.523697 
	C48.677174,200.972656 51.126106,201.333160 53.167091,199.159225 
	C51.769981,197.175003 49.707020,197.368484 47.802280,197.288895 
	C45.819981,197.206070 43.831535,197.270416 42.008575,197.270416 
	C40.268902,195.658066 41.717209,193.166565 39.516033,191.873032 
	C37.782158,190.854126 37.001148,188.805115 38.847435,186.587418 
	C42.147881,187.122147 43.655609,189.942215 45.487007,192.137695 
	C46.755974,193.658936 47.888054,195.013565 49.971382,194.545685 
	C55.407383,193.324814 60.941410,192.443726 65.224182,188.225647 
	C68.763268,184.740051 69.469032,180.978836 67.545425,176.508347 
	C65.836639,172.537094 62.663704,170.339935 58.587776,170.702835 
	C53.599506,171.146973 48.506546,168.638779 43.580452,171.487106 
	C41.991650,172.405792 40.139557,171.715088 39.997887,169.446152 
	C39.868896,167.380249 41.124741,166.691971 43.167709,166.574707 
	C57.960957,165.725662 72.768257,165.862564 87.573120,165.774765 
	C91.551506,165.751175 95.567230,166.047745 99.534744,164.560226 
	C103.630463,172.894073 103.706825,181.544861 102.250259,190.329910 
	C102.002022,191.827103 101.411079,193.219910 102.623573,195.093262 
	C103.126228,197.638641 101.728058,200.717712 105.463608,200.865936 
	C108.161232,200.972977 111.501869,202.142181 112.975105,197.614990 
	C107.948837,202.079208 104.969917,201.134567 103.047287,194.973251 
	C104.554810,185.538895 103.084625,176.024353 103.812424,166.569061 
	C103.926796,165.083206 103.794701,163.521805 104.211334,162.125031 
	C106.715721,153.729080 103.256569,148.680389 94.246132,148.310532 
	C87.599312,148.037689 80.932281,148.256958 74.289940,148.256958 
	C79.755135,154.241119 87.018204,151.015045 93.482468,151.912399 
	C95.121574,152.139954 96.827637,151.960541 98.440086,152.282669 
	C99.906448,152.575638 100.566490,153.868073 100.568474,155.302597 
	C100.570526,156.785355 99.536789,157.393372 98.210815,157.183884 
	C87.934784,155.560379 77.617180,158.101715 67.344376,156.835663 
	C65.880760,156.655273 64.328949,156.652084 63.004768,155.255569 
	C64.103004,152.771820 67.401962,154.132996 68.948242,151.726608 
	C63.172943,147.980026 55.096733,152.977570 49.175285,146.829376 
	C54.620232,144.069763 59.926163,145.051147 64.857895,144.135834 
	C67.761253,143.596954 70.718140,143.913147 72.969994,141.151703 
	C74.471077,139.310944 76.965065,140.038345 79.110428,140.502319 
	C83.707710,141.496536 88.312630,142.307297 92.750008,139.889603 
	C94.723511,138.814346 96.162880,140.048462 97.839737,140.783951 
	C107.098206,144.844742 116.547935,144.449783 125.078529,139.561691 
	C129.331253,137.124878 133.139862,136.186661 137.662201,136.768387 
	C146.752457,137.937729 155.888016,138.408554 165.039749,138.710175 
	C166.340942,138.753067 167.845032,138.879593 168.887238,139.544357 
	C176.659424,144.501740 183.892349,141.615341 191.695068,139.097336 
	C200.140030,136.372101 209.068130,134.084915 218.115295,136.912903 
	C224.412048,138.881180 230.692078,137.409653 236.043243,135.051331 
	C247.048904,130.200974 258.476837,127.724907 270.220215,126.439827 
	C275.258911,125.888443 280.123047,127.521194 283.877167,131.386826 
	C287.185059,134.792999 290.914062,137.289429 295.753235,138.253983 
	C300.382782,139.176758 303.602295,142.512558 306.316895,146.180115 
	C307.920166,148.346207 309.472168,150.618774 311.876617,151.816788 
	C316.964325,154.351715 318.869263,158.560471 319.235352,163.935379 
	C319.544525,168.474792 321.420380,169.919327 325.743225,168.632156 
	C329.390198,167.546265 332.840851,165.801163 336.689209,164.173920 
	C337.000000,177.687561 337.000000,191.375122 337.000000,205.531342 
	C335.282745,205.542267 333.848907,205.384628 334.627167,207.973679 
	C335.094757,209.529175 335.944763,211.060226 335.087830,213.066589 
	C331.230988,213.316788 327.755737,213.674515 324.957428,209.387909 
	C322.876831,206.200745 319.812561,203.308960 315.365784,201.914673 
	C317.372559,196.675232 319.302429,191.636581 321.466614,185.986130 
	C319.400787,186.440491 317.349487,188.082016 316.270874,185.447815 
	C316.025665,183.804810 317.809479,183.915146 318.378448,183.008545 
	C321.712006,177.696732 319.518829,173.634628 313.186371,173.408173 
	C305.716553,173.141037 298.317993,171.551865 290.791321,172.267990 
	C288.848297,172.452881 286.703918,171.826721 286.204224,169.943085 
	C284.794769,164.629623 280.844635,165.051956 276.814697,165.110382 
	C275.110870,165.135101 273.065308,165.745743 271.819824,163.411331 
	C272.833923,161.004166 275.212860,159.535309 276.817291,157.525787 
	C279.526337,154.132782 279.380096,150.644669 278.155609,147.217865 
	C277.034149,144.079361 273.577881,144.134201 270.834564,143.994400 
	C266.874115,143.792572 262.872772,143.912048 258.918579,144.246140 
	C256.488251,144.451492 253.403931,144.854752 253.485397,148.179016 
	C253.562927,151.342148 251.487946,155.323349 256.072083,157.375183 
	C258.103943,158.284653 259.819580,159.632126 259.133698,162.665146 
	C255.300232,162.888565 251.723495,164.842773 247.591690,164.240738 
	C248.045181,165.704727 249.839188,166.400330 248.777237,168.112030 
	C246.549667,169.238571 245.127411,168.057922 243.883453,166.264053 
	C242.336578,164.033325 240.456192,162.557434 237.576187,163.892212 
	C234.503189,165.316483 230.523621,165.417786 230.915466,170.765900 
	C231.400986,177.392670 231.167435,184.090607 230.934280,190.746948 
	C230.630722,199.413498 227.722076,201.407349 219.160706,199.404846 
	C219.160706,194.193558 219.160706,189.052399 219.160706,183.815796 
	C221.897842,184.326782 219.541107,187.037811 222.489868,187.491119 
	C226.396423,183.729660 223.893509,178.482666 224.674805,173.938889 
	C225.760025,167.627380 218.919540,166.733047 217.035873,162.324341 
	C212.164261,163.586380 207.289764,165.324936 202.065338,165.301636 
	C199.908707,165.292007 197.296280,165.883926 197.170319,162.676880 
	C197.058441,159.828140 196.547699,156.850723 200.678329,155.477844 
	C206.968765,153.387085 213.573975,154.429855 219.884750,152.751846 
	C224.244064,151.592728 224.713531,150.651718 221.659592,146.584000 
	C218.197952,153.029480 200.166260,154.991440 193.108231,149.525406 
	C195.137939,143.873795 199.945908,143.680679 205.887512,143.886520 
	C198.926025,141.410767 193.565231,141.248764 189.099579,146.732773 
	C187.124771,149.157928 186.638855,151.042923 189.390350,152.940598 
	C192.632935,155.176971 193.604706,158.278366 193.229767,162.032425 
	C192.939545,164.938507 193.910477,167.545441 195.874680,169.827209 
	C193.444214,171.981369 191.169174,172.303589 188.447510,170.866577 
	C189.090790,168.367325 190.350433,166.200211 187.025177,164.467804 
	C186.879990,166.942825 181.570435,169.694107 188.023270,170.977814 
	C189.782562,178.567047 194.520294,183.793365 200.985916,187.826431 
	C203.518433,189.406128 204.703262,187.667999 206.076141,186.395782 
	C207.755234,184.839844 208.852570,182.815979 211.863770,184.496094 
	C214.618042,186.032837 216.933716,187.266388 217.136627,190.948654 
	C217.555359,198.547211 217.059753,199.517944 209.378555,199.128647 
	C199.376953,198.621750 189.540985,201.229462 179.445038,200.516632 
	C180.802521,201.983398 182.637665,202.042343 184.433121,201.973831 
	C188.420776,201.821671 192.404358,201.562012 196.389297,201.340775 
	C197.216904,201.294830 198.240295,200.878174 198.840759,201.218811 
	C209.020996,206.994247 218.949280,198.054550 229.184006,200.775803 
	C233.142517,201.828323 232.190750,196.863297 234.185608,194.386551 
	C238.631729,199.063171 244.685822,200.505188 251.066254,202.922989 
	C254.136841,200.511597 258.442596,200.359863 263.078705,202.526291 
	C264.871429,203.364014 274.810944,199.422394 275.811005,197.927780 
	C266.095581,197.020172 256.324921,197.149307 246.560318,197.003220 
	C238.471085,196.882187 235.076996,193.545685 234.897507,186.039780 
	C234.689133,177.325592 237.437088,171.728363 246.521393,171.603409 
	C256.454102,171.466782 266.407379,171.160980 276.295471,172.491760 
	C277.662781,172.675766 278.477448,172.153778 279.375854,171.349472 
	C280.771606,170.099915 282.515594,168.608719 283.977386,170.782974 
	C285.202728,172.605530 283.639923,174.191940 282.197205,175.391281 
	C281.597992,175.889404 280.562958,175.841660 280.268616,177.350983 
	C282.065063,181.901871 281.577484,186.979263 280.766907,192.118240 
	C280.145935,196.055130 285.600525,201.776306 290.410400,201.463486 
	C295.677155,201.121002 300.846863,203.754059 306.130310,201.690918 
	C306.718201,201.461334 307.786224,202.461243 308.734802,202.943436 
	C307.515808,205.112778 305.015900,204.743042 303.356720,206.576996 
	C302.999115,206.928497 302.690033,207.193481 302.690033,207.193481 
	C298.866180,208.508667 297.494568,212.079346 295.532715,215.319916 
	C293.135193,214.027618 295.567505,211.716599 294.120667,210.285767 
	C289.341156,215.467972 291.309753,220.568085 294.246307,225.526352 
	C295.656952,227.908157 296.363892,230.673782 294.636444,232.488052 
	C291.609009,235.667603 288.416656,239.064331 283.600494,239.656448 
	C283.171021,239.709229 282.654480,239.371475 282.232971,239.122650 
	C278.084595,236.673645 273.528412,225.753082 274.517548,221.110214 
	C274.994324,218.872223 275.029144,216.540070 275.257599,214.313843 
	C274.170715,213.703979 274.183807,214.843597 273.506134,215.026779 
	C272.361816,214.034882 273.699982,212.680679 273.238678,211.470993 
	C271.818665,211.330017 270.379425,211.187134 268.602600,211.010742 
	C271.136536,223.380264 265.265778,228.533813 253.858231,226.255997 
	C248.618713,225.209793 246.196060,219.702377 247.152252,213.166992 
	C248.996277,209.221405 252.125641,207.414627 254.440613,204.845154 
	C250.562393,206.263611 247.347946,208.300095 247.017349,213.017502 
M179.175674,182.312561 
	C179.915863,179.395844 179.918381,176.225632 181.684677,173.761719 
	C184.133362,174.116501 181.725388,176.765610 184.146317,177.202957 
	C183.554626,172.246628 180.282349,169.191589 177.863861,165.482056 
	C173.853470,167.538483 176.365601,174.527863 170.251465,173.830185 
	C169.335281,172.342056 169.444656,170.938553 170.953125,169.961227 
	C173.090698,168.576340 172.574966,166.925354 171.596222,165.224487 
	C170.500443,163.320206 168.769165,163.731934 167.186188,164.317902 
	C163.264511,165.769531 159.162262,166.397079 155.106949,167.285431 
	C151.757385,168.019180 150.409317,171.405502 150.164490,173.944107 
	C149.912369,176.558167 153.206955,176.881668 155.577271,177.022491 
	C157.984207,177.165482 160.459946,177.113144 161.503403,180.148010 
	C162.835907,175.504150 160.513184,173.868027 155.857224,173.804779 
	C163.617950,169.923569 172.089584,174.952286 171.884506,182.470734 
	C171.774506,186.502975 174.735184,187.217392 177.307037,188.452560 
	C179.218674,186.752426 178.235046,184.648727 179.175674,182.312561 
M143.532043,171.025803 
	C144.468750,169.876541 145.596008,168.792587 144.877563,166.991577 
	C142.703140,165.679260 140.761826,166.933685 138.807373,167.681808 
	C137.396133,168.222031 136.081604,168.821548 134.528412,168.064789 
	C129.029144,165.385345 127.927597,165.777435 125.256592,171.199265 
	C126.957260,172.876083 130.665207,170.936356 131.273392,174.473572 
	C131.503662,175.812683 130.530090,176.653076 129.332870,177.011368 
	C127.023163,177.702606 127.991356,174.890091 126.438438,174.222366 
	C125.978600,177.314407 124.720757,180.090027 125.145828,183.135468 
	C125.719856,187.248001 128.322586,188.497772 131.198532,185.632050 
	C133.016159,183.820862 134.678253,183.761368 136.870575,184.444855 
	C136.998520,182.169540 135.625702,181.026505 134.827576,179.644516 
	C132.474014,175.569168 133.563202,173.363861 138.204453,173.492477 
	C140.302933,173.550644 141.632050,172.608292 143.532043,171.025803 
M91.235886,191.134903 
	C97.165512,189.611542 100.764702,184.131989 99.548065,178.480118 
	C98.377098,173.040421 91.404129,169.958176 84.448120,171.677948 
	C87.249733,172.711899 90.161385,173.917923 93.158676,174.847946 
	C95.273468,175.504120 96.699486,176.612564 97.134048,178.820175 
	C98.272522,184.603638 94.802467,189.005386 88.873116,189.216248 
	C86.544136,189.299057 84.197327,189.343109 81.878693,189.156097 
	C77.311333,188.787720 74.513008,185.756775 73.366219,181.807800 
	C72.445450,178.637131 74.559067,176.195786 77.582893,174.722748 
	C78.740990,174.158585 79.672646,173.169525 79.629379,171.644531 
	C74.740181,172.157379 70.663216,177.895584 71.095543,183.569992 
	C71.351959,186.935516 77.129608,191.333450 80.976234,191.186371 
	C84.133430,191.065659 87.295715,191.078232 91.235886,191.134903 
M253.468552,215.046234 
	C253.615097,220.068130 256.089966,222.585022 259.687073,221.311630 
	C261.880920,220.534988 263.461365,218.962875 263.458954,216.619965 
	C263.456635,214.350800 262.137329,212.582932 259.915283,211.724152 
	C257.024048,210.606735 255.226471,212.140686 253.468552,215.046234 
M208.401337,213.027222 
	C205.907898,211.678787 203.883469,212.211777 202.621597,214.733994 
	C201.653046,216.669876 202.652740,218.309036 204.075104,219.548416 
	C205.664154,220.933044 207.280731,220.851273 208.888397,219.280243 
	C210.930237,217.284897 211.218811,215.398682 208.401337,213.027222 
M146.809418,184.348373 
	C147.723206,182.419739 148.129745,179.927399 146.194946,179.078201 
	C144.637787,178.394775 142.227631,177.211090 140.324417,178.885147 
	C138.599976,180.401932 139.564392,182.570663 140.172607,183.934708 
	C141.529480,186.977783 143.966064,187.196304 146.809418,184.348373 
M119.006416,189.190796 
	C119.863976,190.220886 120.823166,191.616089 122.177704,191.322632 
	C127.007256,190.276276 131.969208,191.203766 136.819611,190.093887 
	C130.567215,189.156815 124.103081,190.002869 118.111794,187.500763 
	C118.289352,187.929749 118.466911,188.358719 119.006416,189.190796 
M108.596046,155.106705 
	C105.733963,160.016937 112.673683,162.425232 111.003242,167.713699 
	C114.692505,162.077911 111.338211,158.653107 108.596046,155.106705 
M182.562927,156.491745 
	C181.166672,153.887436 178.754501,152.513657 176.106003,151.162201 
	C179.766495,153.953644 179.401031,157.562943 177.693970,162.634628 
	C180.212677,160.187668 181.730789,159.022141 182.562927,156.491745 
M117.763321,178.731796 
	C117.629005,177.881409 118.340912,176.685257 116.560257,176.313522 
	C115.338081,178.722717 113.092865,180.997528 116.418663,184.230255 
	C116.934639,182.212952 117.296967,180.796356 117.763321,178.731796 
M327.861450,188.348007 
	C327.539001,187.789352 327.216522,187.230698 326.894073,186.672043 
	C327.830475,190.776642 328.579437,194.933060 331.664978,198.135925 
	C330.481750,195.062607 329.298492,191.989288 327.861450,188.348007 
z"/>
<path fill="#000000" opacity="1.000000" stroke="none" 
	d="
M1.000000,147.468658 
	C1.624096,147.767548 2.327167,149.252121 2.860256,149.193405 
	C9.258972,148.488617 13.033394,152.969177 17.545034,156.158585 
	C20.196810,158.033188 23.410934,158.460861 26.619860,157.382935 
	C30.489229,156.083176 32.720791,157.370605 32.990105,161.480148 
	C33.146156,163.861374 33.756428,165.998077 34.936306,168.081146 
	C35.560165,169.182556 36.322044,170.981186 35.855377,171.801895 
	C32.214901,178.204208 37.130489,184.332413 36.213760,190.665344 
	C35.615395,194.798981 33.412979,197.718323 29.215609,197.856567 
	C28.066931,197.894409 26.908302,197.617020 25.753672,197.489441 
	C21.944540,197.068527 18.063629,196.264648 15.540374,200.446747 
	C13.174548,204.367905 13.291320,208.430405 15.278505,212.265167 
	C16.788151,215.178360 15.936576,216.100586 13.254961,217.451416 
	C9.459759,219.363220 6.178240,222.312668 1.345703,222.853394 
	C1.000000,197.979111 1.000000,172.958206 1.000000,147.468658 
z"/>
<path fill="#000000" opacity="1.000000" stroke="none" 
	d="
M309.759827,187.941803 
	C309.934753,189.668106 310.087158,190.990265 310.149384,192.316666 
	C310.328033,196.125763 309.657318,198.794601 304.847504,196.599258 
	C302.392090,195.478546 300.084320,196.486542 297.676880,197.416718 
	C292.044708,199.592789 289.132416,197.333862 289.510468,191.307419 
	C289.737488,187.688705 288.334259,184.032867 290.056091,179.746994 
	C296.639404,180.235413 303.448730,180.740601 310.055542,181.230743 
	C311.122803,183.814026 308.910736,185.539658 309.759827,187.941803 
z"/>
<path fill="#000000" opacity="1.000000" stroke="none" 
	d="
M65.040619,183.978577 
	C61.790997,189.798508 48.782898,191.289108 45.099091,186.322693 
	C43.123360,183.659088 41.675472,180.444916 44.396851,177.179092 
	C48.467461,172.294098 55.273064,170.247757 59.341824,172.684479 
	C66.332855,176.871338 67.140282,178.379318 65.040619,183.978577 
z"/>
<path fill="#000000" opacity="1.000000" stroke="none" 
	d="
M303.149353,206.791168 
	C307.871094,206.226532 312.370667,205.272003 316.144623,209.468338 
	C320.323029,214.114365 320.815308,218.872589 316.899536,224.175507 
	C314.210236,227.817429 307.317505,228.890472 302.765198,226.375870 
	C298.158447,223.831223 296.464691,218.244217 298.588989,212.932236 
	C299.421387,210.850754 300.957642,209.348877 302.531586,207.460388 
	C302.690033,207.193481 302.999115,206.928497 303.149353,206.791168 
M305.355988,213.773880 
	C302.985718,216.189499 302.658600,218.793030 305.214630,221.146393 
	C307.028381,222.816360 309.257141,223.435883 311.515228,221.600601 
	C313.705322,219.820602 314.702881,217.644058 313.152740,215.077682 
	C311.419342,212.207840 308.919861,211.523697 305.355988,213.773880 
z"/>
<path fill="#000000" opacity="1.000000" stroke="none" 
	d="
M74.988617,210.019897 
	C79.020157,207.873398 83.030785,205.817825 87.296310,209.678314 
	C90.925888,212.963257 91.183067,216.113083 88.017067,220.673920 
	C84.784904,225.330109 81.887566,226.138657 77.544785,223.596466 
	C73.731644,221.364319 72.126427,216.837463 73.782578,212.962738 
	C74.108871,212.199356 74.469688,211.450714 74.925293,210.334564 
	C75.035988,209.973831 75.003250,210.003387 74.988617,210.019897 
M80.271683,219.950317 
	C83.100616,221.219864 84.664406,219.740417 85.515686,217.307480 
	C86.190460,215.378998 85.395790,213.739532 83.656761,212.699432 
	C82.247055,211.856293 80.686104,211.936020 79.573174,213.107986 
	C77.589424,215.196945 77.530975,217.442780 80.271683,219.950317 
z"/>
<path fill="#000000" opacity="1.000000" stroke="none" 
	d="
M115.690201,222.310974 
	C112.875160,219.175735 111.981453,215.953232 113.828911,212.461914 
	C115.277145,209.725006 117.355774,207.603012 120.869202,207.908447 
	C124.468208,208.221313 128.633621,208.974686 129.173630,212.833496 
	C129.683228,216.474976 129.979370,220.985764 125.853912,223.720825 
	C122.175491,226.159500 118.989449,225.344589 115.690201,222.310974 
M125.193047,215.191879 
	C124.078712,213.061432 122.605453,211.647842 120.032898,212.897781 
	C118.230133,213.773697 117.139885,215.241211 117.639694,217.298691 
	C118.109985,219.234695 119.537735,220.702133 121.528740,220.549545 
	C124.160294,220.347885 125.688072,218.687164 125.193047,215.191879 
z"/>
<path fill="#000000" opacity="1.000000" stroke="none" 
	d="
M150.990814,213.023376 
	C157.384827,205.912231 161.428162,205.726990 166.872177,211.987930 
	C168.613602,213.990707 168.481171,215.835953 167.648911,217.938828 
	C166.204773,221.587677 160.897949,225.463959 158.219971,224.877838 
	C153.729858,223.895142 150.964966,219.695801 150.978806,213.397095 
	C151.021957,212.979858 150.999176,213.007355 150.990814,213.023376 
M163.506317,215.743729 
	C162.356842,213.175354 160.556976,211.576447 157.643982,212.669907 
	C155.714737,213.394089 155.091919,215.183731 155.371078,217.205063 
	C155.638046,219.138123 157.019913,220.253265 158.712067,220.441803 
	C161.494675,220.751816 162.867569,218.886734 163.506317,215.743729 
z"/>
<path fill="#000000" opacity="1.000000" stroke="none" 
	d="
M60.444363,227.072662 
	C57.796040,226.971634 56.979340,225.199417 57.648640,223.662262 
	C58.872269,220.852036 60.463928,218.065887 62.481178,215.780945 
	C64.060478,213.992081 66.610413,215.564590 66.981529,217.015442 
	C68.379700,222.481384 72.682800,226.124176 76.094421,232.211914 
	C70.016655,230.613525 65.733688,227.658447 60.444363,227.072662 
z"/>
<path fill="#000000" opacity="1.000000" stroke="none" 
	d="
M260.535950,159.691040 
	C261.516418,155.653320 264.591583,156.762573 266.540741,157.457260 
	C269.122833,158.377502 270.356964,160.828568 269.442139,164.118988 
	C265.988037,163.669464 261.808380,165.339828 260.535950,159.691040 
z"/>
<path fill="#000000" opacity="1.000000" stroke="none" 
	d="
M185.652008,221.061264 
	C185.878510,222.943329 185.207489,224.084106 183.657623,224.157211 
	C181.221970,224.272110 179.942215,222.605255 178.611847,220.641800 
	C181.257538,218.196991 183.421829,218.434982 185.652008,221.061264 
z"/>
<path fill="#000000" opacity="1.000000" stroke="none" 
	d="
M264.078247,151.733856 
	C266.610504,148.646118 269.099640,149.794571 272.137848,151.828445 
	C269.183014,153.762802 266.717804,153.551849 264.078247,151.733856 
z"/>
</svg>